<?xml version="1.0" encoding="UTF-8" standalone="no"?>
<!-- Generator: Adobe Illustrator 25.0.1, SVG Export Plug-In . SVG Version: 6.00 Build 0)  -->

<svg
   version="1.1"
   id="Layer_1"
   x="0px"
   y="0px"
   viewBox="0 0 454.6 162.1"
   style="enable-background:new 0 0 454.6 162.1;"
   xml:space="preserve"
   sodipodi:docname="cuernito2.svg"
   inkscape:version="1.1 (c68e22c387, 2021-05-23)"
   xmlns:inkscape="http://www.inkscape.org/namespaces/inkscape"
   xmlns:sodipodi="http://sodipodi.sourceforge.net/DTD/sodipodi-0.dtd"
   xmlns="http://www.w3.org/2000/svg"
   xmlns:svg="http://www.w3.org/2000/svg"><defs
   id="defs270" /><sodipodi:namedview
   id="namedview268"
   pagecolor="#ffffff"
   bordercolor="#666666"
   borderopacity="1.0"
   inkscape:pageshadow="2"
   inkscape:pageopacity="0.0"
   inkscape:pagecheckerboard="0"
   showgrid="false"
   inkscape:zoom="1.2681478"
   inkscape:cx="290.58127"
   inkscape:cy="65.449784"
   inkscape:window-width="1366"
   inkscape:window-height="739"
   inkscape:window-x="0"
   inkscape:window-y="0"
   inkscape:window-maximized="1"
   inkscape:current-layer="Layer_1" />
<style
   type="text/css"
   id="style237">
	.st0{fill:#008176;}
	.st1{fill:#00B68C;}
	.st2{fill:#010101;}
</style>
<path
   class="st0"
   d="m 274.67689,-17.966584 c -0.4,-1.4 -12,-36.2 -62.9,-50.7 -26.6,-7.6 -46.1,-25.3 -56.5,-51.399996 -7.7,-19.3 -7.6,-36.3 -7.6,-37.1 l 20,0.2 -10,-0.1 10,0.1 c 0,2.2 0.4,55.1 49.6,69.099996 61.9,17.6 76,62.2 76.6,64.1 z"
   id="path239" />
<path
   class="st0"
   d="m 341.39645,-12.382531 -19.1,-5.8 c 0.6,-1.9 14.7,-46.5 76.6,-64.1 49.2,-14 49.6,-66.799999 49.6,-69.099999 l 20,-0.2 c 0,0.7 0.1,17.8 -7.6,37.1 -10.4,26.099999 -29.9,43.899999 -56.5,51.399999 -51,14.4 -62.5,49.2 -63,50.7 z"
   id="path241" />
<path
   class="st1"
   d="m 119.91019,-6.2464206 c 0,-0.5 -2.9,-10.4000004 -17.2,-24.7000004 -23.800001,-23.8 -86.500001,-26.7 -110.6000012,-26.9 -8.6999998,-0.1 -17.2999998,-1.2 -25.5999998,-3.5 -25.9,-7.3 -43.2,-20 -51.6,-37.9 -14.9,-32.099999 5.5,-67.599999 6.3,-69.099999 l 17.3,10.1 c -0.1,0.3 -16,28.2 -5.4,50.7 5,10.799999 15.5,18.999999 31.2,24.599999 9.7,3.5 20,5.3 30.3999998,5.5 56.5000002,1.2 97.7000002,12.1 122.5000012,32.6 21.3,17.6 22.6,35.8000004 22.7,37.8000004 l -20,0.7 z"
   id="path243" />
<path
   class="st1"
   d="M244.2,162.1c0-0.5,2.9-10.4,17.2-24.7c23.8-23.8,86.5-26.7,110.6-26.9c8.7-0.1,17.3-1.2,25.6-3.5  c25.9-7.2,43.2-19.9,51.6-37.9c14.9-32-5.4-67.6-6.3-69.1l-17.3,10.1c0.1,0.3,16,28.2,5.4,50.7c-5,10.8-15.5,19-31.2,24.6  c-9.7,3.5-20,5.3-30.4,5.5c-56.5,1.2-97.7,12.1-122.5,32.6c-21.3,17.6-22.6,35.8-22.7,37.8l20,0.7L244.2,162.1z"
   id="path245" />
<path
   class="st1"
   d="M146.6,552.9c0.4-0.3,9.8-7.7,11.4-27.8c1.6-20-4.3-55.9-41.8-114.1l-0.5-0.7l-0.3-0.8  c-13.8-32.6-14.4-59.3-1.8-79.3c18.8-29.9,59.7-32.1,61.5-32.1l0.9,20c-0.3,0-32.3,1.9-45.5,22.9c-8.8,14-7.8,34.2,3,59.9  c33.2,51.7,48.1,95,44.1,128.8c-3.2,27.5-17.8,38.4-19.5,39.5l-11.4-16.4L146.6,552.9z"
   id="path247" />
<path
   class="st1"
   d="M519.1,557.8l-0.2-0.1l-11.6,16.3c-1.6-1.2-16.1-12.3-19-39.7c-3.6-33.8,11.8-76.9,45.5-128.3  c11.1-25.7,12.3-45.8,3.7-59.9c-13-21.2-44.9-23.4-45.3-23.4l1.1-20c1.7,0.1,42.6,2.7,61.1,32.8c12.4,20.1,11.5,46.8-2.7,79.3  l-0.3,0.8l-0.5,0.7c-38.1,57.7-44.5,93.6-43,113.6C509.4,550,518.7,557.5,519.1,557.8z"
   id="path249" />
<g
   id="g265">
	<path
   class="st2"
   d="M208,509.9c0-2.5,0.5-4.8,1.5-7c1-2.2,2.3-4.1,4-5.7c1.7-1.6,3.6-2.9,5.9-3.9c2.3-1,4.7-1.4,7.2-1.4   c2.6,0,5,0.5,7.2,1.4c2.3,1,4.2,2.2,5.9,3.9c1.7,1.6,3,3.5,4,5.7c1,2.2,1.5,4.5,1.5,7c0,2.5-0.5,4.8-1.5,7c-1,2.2-2.3,4.1-4,5.7   c-1.7,1.6-3.7,2.9-5.9,3.9c-2.3,1-4.7,1.4-7.2,1.4c-2.6,0-5-0.5-7.2-1.4c-2.3-1-4.2-2.2-5.9-3.9c-1.7-1.6-3-3.5-4-5.7   C208.5,514.7,208,512.3,208,509.9z M217.7,509.9c0,1.2,0.2,2.3,0.7,3.4s1.1,2,1.9,2.9c0.8,0.8,1.7,1.5,2.8,2s2.2,0.7,3.4,0.7   s2.4-0.2,3.4-0.7s2-1.2,2.9-2c0.8-0.8,1.5-1.8,1.9-2.9s0.7-2.2,0.7-3.4c0-1.2-0.2-2.3-0.7-3.4c-0.5-1.1-1.1-2-1.9-2.9   c-0.8-0.8-1.8-1.5-2.9-2s-2.2-0.7-3.4-0.7s-2.4,0.2-3.4,0.7s-2,1.1-2.8,2s-1.4,1.8-1.9,2.9C218,507.5,217.7,508.7,217.7,509.9z"
   id="path251" />
	<path
   class="st2"
   d="M250.3,493.6c0-0.3,0.1-0.6,0.3-0.8c0.2-0.2,0.5-0.3,0.8-0.3h7.4c0.3,0,0.6,0.1,0.8,0.3   c0.2,0.2,0.3,0.5,0.3,0.8v19.3c0,1.2,0.2,2.3,0.6,3.1c0.4,0.8,0.9,1.4,1.5,1.9c0.6,0.5,1.3,0.8,1.9,1c0.7,0.2,1.3,0.3,1.9,0.3   c0.6,0,1.2-0.1,1.9-0.3c0.7-0.2,1.3-0.5,1.9-1s1.1-1.1,1.5-1.9c0.4-0.8,0.6-1.8,0.6-3.1v-17c0-2.1,1.3-3.3,3.9-3.5l5.9,0v20.4   c0,2.3-0.4,4.3-1.1,6.1s-1.8,3.4-3.2,4.7c-1.4,1.3-3,2.3-5,3c-1.9,0.7-4.1,1.1-6.4,1.1c-2.4,0-4.5-0.4-6.4-1.1   c-1.9-0.7-3.6-1.7-5-3c-1.4-1.3-2.4-2.9-3.2-4.7s-1.1-3.9-1.1-6.1V493.6z"
   id="path253" />
	<path
   class="st2"
   d="M307,524.1l-7.3-8c-0.2-0.3-0.4-0.4-0.6-0.3c-0.2,0.1-0.2,0.3-0.2,0.6v10.5c0,0.4-0.4,0.5-1.2,0.4h-7.4   c-0.4,0-0.7-0.1-0.9-0.3c-0.2-0.2-0.3-0.5-0.3-0.8v-32.6c0-0.3,0.1-0.6,0.3-0.8c0.2-0.2,0.5-0.3,0.9-0.3h7.4c0.3,0,0.6,0.1,0.8,0.3   c0.2,0.2,0.3,0.5,0.3,0.8v11c0,0.3,0.1,0.5,0.2,0.6c0.1,0,0.3-0.1,0.5-0.3l8.9-11.4c0.2-0.3,0.5-0.5,0.8-0.6   c0.4-0.2,0.7-0.3,1.1-0.3h9.4c0.4,0,0.6,0.2,0.7,0.5c0.1,0.3,0,0.6-0.1,0.8l-12.9,15.7c-0.2,0.3-0.3,0.5-0.3,0.9   c0,0.3,0.1,0.6,0.4,0.8c1.1,1.2,2.7,3,4.7,5.3c2,2.4,5.2,5.5,9.4,9.5c1.2,1,1.1,1.5-0.2,1.4h-7.7   C311.3,527.4,309.1,526.4,307,524.1z"
   id="path255" />
	<path
   class="st2"
   d="M323.5,509.9c0-2.5,0.5-4.8,1.5-7c1-2.2,2.3-4.1,4-5.7c1.7-1.6,3.6-2.9,5.9-3.9c2.3-1,4.7-1.4,7.2-1.4   c2.6,0,5,0.5,7.2,1.4c2.3,1,4.2,2.2,5.9,3.9c1.7,1.6,3,3.5,4,5.7c1,2.2,1.5,4.5,1.5,7c0,2.5-0.5,4.8-1.5,7c-1,2.2-2.3,4.1-4,5.7   c-1.7,1.6-3.7,2.9-5.9,3.9c-2.3,1-4.7,1.4-7.2,1.4c-2.6,0-5-0.5-7.2-1.4c-2.3-1-4.2-2.2-5.9-3.9c-1.7-1.6-3-3.5-4-5.7   C324,514.7,323.5,512.3,323.5,509.9z M333.3,509.9c0,1.2,0.2,2.3,0.7,3.4s1.1,2,1.9,2.9c0.8,0.8,1.7,1.5,2.8,2s2.2,0.7,3.4,0.7   s2.4-0.2,3.4-0.7s2-1.2,2.9-2c0.8-0.8,1.5-1.8,1.9-2.9s0.7-2.2,0.7-3.4c0-1.2-0.2-2.3-0.7-3.4c-0.5-1.1-1.1-2-1.9-2.9   c-0.8-0.8-1.8-1.5-2.9-2s-2.2-0.7-3.4-0.7s-2.4,0.2-3.4,0.7s-2,1.1-2.8,2s-1.4,1.8-1.9,2.9C333.5,507.5,333.3,508.7,333.3,509.9z"
   id="path257" />
	<path
   class="st2"
   d="M365.9,527.4v-33.8c0-0.3,0.1-0.6,0.3-0.8c0.2-0.2,0.5-0.3,0.8-0.3h13.4c5.1,0,9.3,1.5,12.6,4.4   c1.8,1.6,3.1,3.5,4,5.7c0.9,2.2,1.4,4.7,1.4,7.4c0,2.7-0.5,5.2-1.4,7.4c-0.9,2.2-2.3,4.1-4,5.7c-1.6,1.4-3.5,2.5-5.6,3.2   s-4.4,1.1-7,1.1L365.9,527.4z M375.7,518.5h4.9c0.9,0,1.9-0.1,2.8-0.3c1-0.2,1.9-0.6,2.7-1.3c0.8-0.6,1.4-1.5,1.9-2.6   s0.8-2.6,0.8-4.4c0-1.8-0.3-3.3-0.8-4.4c-0.5-1.1-1.2-2-2-2.6s-1.7-1-2.7-1.3c-1-0.2-1.9-0.3-2.8-0.3h-3.7c-0.3,0-0.6,0.1-0.8,0.3   c-0.2,0.2-0.3,0.5-0.3,0.8v15V518.5z"
   id="path259" />
	<path
   class="st2"
   d="M414.1,502.3v2c0,0.3,0.1,0.6,0.3,0.8c0.2,0.2,0.5,0.3,0.8,0.3H427c1.2,0,1.9,0,2.2,0s0.4,0.2,0.4,0.7   c-0.3,4.9-2.2,7.6-5.5,8.1h-8.8c-0.3,0-0.6,0.1-0.8,0.3c-0.2,0.2-0.3,0.5-0.3,0.8v1.8c0,0.3,0.1,0.6,0.3,0.8   c0.2,0.2,0.5,0.3,0.8,0.3h15.3c0.3,0,0.6,0.1,0.8,0.3c0.2,0.2,0.3,0.5,0.3,0.8v6.6c0,0.3-0.1,0.6-0.3,0.8c-0.2,0.2-0.5,0.3-0.8,0.3   h-25c-0.3,0-0.6-0.1-0.8-0.3c-0.2-0.2-0.3-0.5-0.3-0.8v-32.6c0-0.3,0.1-0.6,0.3-0.8c0.2-0.2,0.5-0.3,0.8-0.3h25   c0.3,0,0.6,0.1,0.8,0.3c0.2,0.2,0.3,0.5,0.3,0.8v6.5c0,0.3-0.1,0.6-0.3,0.8c-0.2,0.2-0.5,0.3-0.8,0.3h-15.3c-0.3,0-0.6,0.1-0.8,0.3   C414.3,501.7,414.1,502,414.1,502.3z"
   id="path261" />
	<path
   class="st2"
   d="M446.6,527.3h-7.3c-0.3,0-0.6-0.1-0.8-0.3c-0.2-0.2-0.3-0.5-0.3-0.8v-32.6c0-0.3,0.1-0.6,0.3-0.8   c0.2-0.2,0.5-0.3,0.8-0.3h15.3c1.9,0,3.7,0.3,5.3,0.9s3,1.5,4.1,2.6c1.1,1.1,2,2.4,2.7,4c0.6,1.5,0.9,3.2,0.9,5.1c0,1-0.1,2-0.4,3   c-0.2,1-0.6,2-1.1,2.8c-0.5,0.9-1,1.7-1.6,2.4s-1.3,1.3-2.1,1.8c-0.3,0.2-0.4,0.4-0.5,0.7c-0.1,0.3,0,0.5,0.2,0.8   c1.2,0.8,2.2,2.3,3.3,4.6s2,3.8,3,4.7c1,0.9,1.3,1.4,0.8,1.6l-8.1,0c-1.5,0.2-2.8-0.7-3.8-2.7c-1-2-2.1-3.6-3.4-4.8s-2.5-2-3.9-2.5   h-1.1c-0.3,0-0.6,0.1-0.8,0.3c-0.2,0.2-0.3,0.5-0.3,0.8v8.9C447.3,527.3,446.9,527.3,446.6,527.3z M448.9,508.5h5.2   c0.4,0,0.8-0.1,1.2-0.2c0.4-0.1,0.8-0.4,1.2-0.7s0.7-0.7,0.9-1.1c0.2-0.4,0.3-1,0.3-1.6c0-0.3-0.1-0.7-0.2-1.1   c-0.1-0.4-0.3-0.8-0.6-1.2c-0.3-0.4-0.7-0.7-1.1-1c-0.5-0.3-1.1-0.4-1.8-0.4h-6.4v6.2c0,0.3,0.1,0.6,0.3,0.8   C448.3,508.4,448.6,508.5,448.9,508.5z"
   id="path263" />
</g>
</svg>
