<?xml version="1.0" encoding="utf-8"?>
<!-- Generator: Adobe Illustrator 24.1.1, SVG Export Plug-In . SVG Version: 6.00 Build 0)  -->
<svg version="1.1" id="Layer_1" xmlns="http://www.w3.org/2000/svg" xmlns:xlink="http://www.w3.org/1999/xlink" x="0px" y="0px"
	 viewBox="0 0 512 512" style="enable-background:new 0 0 512 512;" xml:space="preserve">
<style type="text/css">
	.st0{fill:#E0DCDC;}
	.st1{fill:#03B68C;}
	.st2{fill:#5BC2A6;}
	.st3{fill:#5D6A7C;}
	.st4{fill:#058175;}
	.st5{fill:#E5E4E4;}
	.st6{fill:#DD5136;}
	.st7{fill:#C9C7C7;}
	.st8{fill:#D6D6D6;}
	.st9{fill:#231F20;}
	.st10{opacity:0.1;}
	.st11{font-family:'MyriadPro-Regular';}
	.st12{font-size:12px;}
</style>
<path class="st0" d="M490.6,233.9H366.5c-7.3,0-13.3,6-13.3,13.3v18.2v205.2v18.2c0,7.3,6,13.3,13.3,13.3h124.1
	c7.3,0,13.3-6,13.3-13.3v-18.2V265.4v-18.2C503.9,239.9,498,233.9,490.6,233.9z"/>
<rect x="378" y="284.7" class="st1" width="101.2" height="169.3"/>
<rect x="378" y="284.7" class="st2" width="101.2" height="29.2"/>
<path class="st3" d="M373.6,9.9H328H110.7H16.6c-4.7,0-8.6,3.8-8.6,8.6v317.8c0,4.7,3.8,8.6,8.6,8.6h94.1H328h25.2v-79.4v-18.2
	c0-7.3,6-13.3,13.3-13.3h64.1V18.5c0-4.7-3.8-8.6-8.6-8.6h-22.6"/>
<path class="st4" d="M353.2,247.2c0-7.3,6-13.3,13.3-13.3h34.3V39h-363v216.5h315.4L353.2,247.2L353.2,247.2z"/>
<rect x="37.9" y="39" class="st5" width="363" height="29.2"/>
<rect x="37.9" y="39" class="st6" width="33.6" height="29.2"/>
<polygon class="st7" points="272.8,422.3 165.9,422.3 177.8,344.9 263.6,344.9 "/>
<g>
	<path class="st8" d="M308.5,435.5c0,6.8-5.5,12.2-12.2,12.2H142.5c-6.8,0-12.2-5.5-12.2-12.2v-1c0-6.8,5.5-12.2,12.2-12.2h153.8
		c6.8,0,12.2,5.5,12.2,12.2L308.5,435.5L308.5,435.5z"/>
	<path class="st8" d="M8.1,284.7v51.6c0,4.7,3.8,8.6,8.6,8.6h94.1H328h25.2v-60.2H86.4"/>
</g>
<g>
	<path class="st9" d="M490.6,225.8h-51.9V18.5c0-9.2-7.5-16.6-16.6-16.6h-22.6c-4.5,0-8.1,3.6-8.1,8.1s3.6,8.1,8.1,8.1h22.6
		c0.3,0,0.5,0.2,0.5,0.5v207.4h-13.6V68.2V39c0-4.5-3.6-8.1-8.1-8.1H71.5H37.9c-4.5,0-8.1,3.6-8.1,8.1v29.2v187.3
		c0,4.5,3.6,8.1,8.1,8.1h307.3v13H86.4c-4.5,0-8.1,3.6-8.1,8.1c0,4.5,3.6,8.1,8.1,8.1h258.8v44h-81.6h-85.8H16.6
		c-0.3,0-0.5-0.2-0.5-0.5v-43.6H62c4.5,0,8.1-3.6,8.1-8.1c0-4.5-3.6-8.1-8.1-8.1H16.2V18.5c0-0.3,0.2-0.5,0.5-0.5h357
		c4.5,0,8.1-3.6,8.1-8.1s-3.6-8.1-8.1-8.1h-357C7.5,1.8,0,9.3,0,18.5v266.2v51.6c0,9.2,7.5,16.6,16.6,16.6h151.7l-9.4,61.3h-16.5
		c-11.2,0-20.3,9.1-20.3,20.3v1c0,11.2,9.1,20.3,20.3,20.3h153.8c11.2,0,20.3-9.1,20.3-20.3v-1c0-11.2-9.1-20.3-20.3-20.3H280
		l-7.3-61.3h72.5v135.9c0,11.8,9.6,21.4,21.4,21.4h124.1c11.8,0,21.4-9.6,21.4-21.4V247.2C512,235.4,502.4,225.8,490.6,225.8z
		 M300.4,434.5v1c0,2.3-1.9,4.1-4.1,4.1H142.5c-2.3,0-4.1-1.9-4.1-4.1v-1c0-2.3,1.9-4.1,4.1-4.1h23.5h106.9c0,0,0,0,0,0h23.4
		C298.5,430.4,300.4,432.2,300.4,434.5z M263.7,414.2h-88.4l9.4-61.3h71.7L263.7,414.2z M392.8,60.1H79.6V47h313.2V60.1z M46,47
		h17.4v13H46V47z M46,247.4V76.2h25.5h321.3v149.6h-26.2c-11.8,0-21.4,9.6-21.4,21.4v0.2H46z M495.8,488.8c0,2.9-2.3,5.2-5.2,5.2
		H366.5c-2.9,0-5.2-2.3-5.2-5.2v-144v-60.2v-29.2v-8.2c0-2.9,2.3-5.2,5.2-5.2h34.3h29.8h60c2.9,0,5.2,2.3,5.2,5.2L495.8,488.8
		L495.8,488.8z"/>
	<path class="st9" d="M430.3,470.7h-2.1c-4.5,0-8.1,3.6-8.1,8.1s3.6,8.1,8.1,8.1h2.1c4.5,0,8.1-3.6,8.1-8.1
		C438.4,474.3,434.7,470.7,430.3,470.7z"/>
	<path class="st9" d="M456.4,267.3h2.1c4.5,0,8.1-3.6,8.1-8.1c0-4.5-3.6-8.1-8.1-8.1h-2.1c-4.5,0-8.1,3.6-8.1,8.1
		S451.9,267.3,456.4,267.3z"/>
	<path class="st9" d="M401.9,267.3h29.8c4.5,0,8.1-3.6,8.1-8.1c0-4.5-3.6-8.1-8.1-8.1h-29.8c-4.5,0-8.1,3.6-8.1,8.1
		C393.9,263.7,397.5,267.3,401.9,267.3z"/>
	<path class="st9" d="M224.1,322.8c4.5,0,8.1-3.6,8.1-8.1s-3.6-8.1-8.1-8.1h-9.7c-4.5,0-8.1,3.6-8.1,8.1s3.6,8.1,8.1,8.1H224.1z"/>
	<path class="st9" d="M479.2,276.6H378c-4.5,0-8.1,3.6-8.1,8.1v29.2V454c0,4.5,3.6,8.1,8.1,8.1h101.2c4.5,0,8.1-3.6,8.1-8.1V313.9
		v-29.2C487.3,280.2,483.7,276.6,479.2,276.6z M386,292.7h85.1v13H386V292.7z M386,445.9v-124h85.1v124L386,445.9L386,445.9z"/>
</g>
<g class="st10">
	<path class="st9" d="M378.5,488.8v-18.2V265.4v-18.2c0-7.3,6-13.3,13.3-13.3h-25.3c-7.3,0-13.3,6-13.3,13.3v18.2v205.2v18.2
		c0,7.3,6,13.3,13.3,13.3h25.3C384.5,502.1,378.5,496.2,378.5,488.8z"/>
</g>
<g class="st10">
	<rect x="45.8" y="44.2" class="st9" width="17.5" height="211.3"/>
</g>
<g class="st10">
	<rect x="15.9" y="11.5" class="st9" width="17.2" height="326"/>
</g>
<g class="st10">
	
		<rect x="153.1" y="375" transform="matrix(0.1589 -0.9873 0.9873 0.1589 -220.1187 508.838)" class="st9" width="70.9" height="17.2"/>
</g>
<g class="st10">
	<rect x="384.4" y="285.9" class="st9" width="19" height="161.9"/>
</g>
<text transform="matrix(1 0 0 1 231.4014 260.022)" class="st11 st12">#5bc2a6</text>
</svg>
