<?xml version="1.0" encoding="iso-8859-1"?>
<!-- Generator: Adobe Illustrator 19.0.0, SVG Export Plug-In . SVG Version: 6.00 Build 0)  -->
<svg xmlns="http://www.w3.org/2000/svg" xmlns:xlink="http://www.w3.org/1999/xlink" version="1.1" id="Layer_1" x="0px" y="0px" viewBox="0 0 512 512" style="enable-background:new 0 0 512 512;" xml:space="preserve">
<path style="fill:#E0DCDC;" d="M490.626,233.919H366.537c-7.342,0-13.296,5.952-13.296,13.296v18.206v205.197v18.205  c0,7.344,5.953,13.296,13.296,13.296h124.089c7.342,0,13.296-5.951,13.296-13.296v-18.205V265.421v-18.206  C503.922,239.871,497.967,233.919,490.626,233.919z"/>
<rect x="377.958" y="284.659" style="fill:#F47454;" width="101.248" height="169.343"/>
<rect x="377.958" y="284.659" style="fill:#DD5136;" width="101.248" height="29.2"/>
<path style="fill:#5D6A7C;" d="M373.608,9.88h-45.581H110.7H16.649c-4.734,0-8.571,3.838-8.571,8.571v317.84  c0,4.734,3.838,8.571,8.571,8.571H110.7h217.326h25.215v-79.44v-18.206c0-7.343,5.953-13.296,13.296-13.296h64.111V18.451  c0-4.733-3.838-8.571-8.571-8.571h-22.626"/>
<path style="fill:#F47454;" d="M353.242,247.215c0-7.343,5.953-13.296,13.296-13.296h34.32V38.962H37.871v216.499h315.37V247.215z"/>
<rect x="37.871" y="38.959" style="fill:#E5E4E4;" width="362.986" height="29.2"/>
<rect x="37.871" y="38.959" style="fill:#DD5136;" width="33.606" height="29.2"/>
<polygon style="fill:#C9C7C7;" points="272.807,422.272 165.919,422.272 177.796,344.862 263.57,344.862 "/>
<g>
	<path style="fill:#D6D6D6;" d="M308.487,435.513c0,6.751-5.472,12.223-12.223,12.223H142.463c-6.751,0-12.223-5.472-12.223-12.223   v-1.018c0-6.751,5.472-12.223,12.223-12.223h153.802c6.751,0,12.223,5.472,12.223,12.223v1.018H308.487z"/>
	<path style="fill:#D6D6D6;" d="M8.078,284.662v51.629c0,4.734,3.838,8.571,8.571,8.571H110.7h217.326h25.215v-60.2H86.369"/>
</g>
<g>
	<path style="fill:#231F20;" d="M490.626,225.841h-51.899V18.451c0-9.18-7.469-16.649-16.649-16.649h-22.626   c-4.462,0-8.078,3.617-8.078,8.078s3.616,8.078,8.078,8.078h22.626c0.271,0,0.492,0.221,0.492,0.492v207.39h-13.634V68.163v-29.2   c0-4.461-3.616-8.078-8.078-8.078H71.472h-33.6c-4.462,0-8.078,3.617-8.078,8.078v29.2v187.299c0,4.462,3.616,8.078,8.078,8.078   h307.292v13.044H86.369c-4.462,0-8.078,3.616-8.078,8.078c0,4.461,3.616,8.078,8.078,8.078h258.795v44.043h-81.593h-85.774H16.649   c-0.271,0-0.492-0.221-0.492-0.492V292.74h45.804c4.462,0,8.078-3.617,8.078-8.078c0-4.462-3.616-8.078-8.078-8.078H16.157V18.451   c0-0.271,0.221-0.492,0.492-0.492h356.959c4.462,0,8.078-3.617,8.078-8.078s-3.616-8.078-8.078-8.078H16.649   C7.469,1.802,0,9.271,0,18.451v266.211v51.629c0,9.18,7.469,16.649,16.649,16.649h151.736l-9.399,61.254h-16.524   c-11.194,0-20.301,9.107-20.301,20.301v1.018c0,11.194,9.107,20.301,20.301,20.301h153.802c11.194,0,20.301-9.107,20.301-20.301   v-1.018c0-11.194-9.107-20.301-20.301-20.301h-16.285l-7.309-61.254h72.494v135.884c0,11.786,9.587,21.374,21.374,21.374h124.088   c11.786,0,21.374-9.587,21.374-21.374V247.215C512,235.429,502.412,225.841,490.626,225.841z M300.408,434.495v1.018   c0,2.286-1.859,4.145-4.145,4.145H142.463c-2.286,0-4.145-1.859-4.145-4.145v-1.018c0-2.286,1.858-4.145,4.145-4.145h23.456   h106.888c0.008,0,0.015,0,0.022,0h23.436C298.55,430.351,300.408,432.21,300.408,434.495z M263.708,414.194h-88.377l9.4-61.254   h71.668L263.708,414.194z M392.779,60.084H79.55V47.041h313.229V60.084z M45.95,47.041h17.444v13.044H45.95V47.041z M45.95,247.383   V76.241h25.522h321.307v149.6h-26.242c-11.786,0-21.374,9.588-21.374,21.374v0.168H45.95z M495.843,488.824   c0,2.877-2.341,5.217-5.217,5.217H366.537c-2.877,0-5.217-2.341-5.217-5.217V344.862v-60.2v-29.2v-8.246   c0-2.877,2.341-5.218,5.217-5.218h34.32h29.791h59.978c2.877,0,5.217,2.341,5.217,5.218L495.843,488.824L495.843,488.824z"/>
	<path style="fill:#231F20;" d="M430.276,470.705h-2.114c-4.462,0-8.078,3.616-8.078,8.078c0,4.462,3.616,8.078,8.078,8.078h2.114   c4.462,0,8.078-3.616,8.078-8.078C438.355,474.321,434.738,470.705,430.276,470.705z"/>
	<path style="fill:#231F20;" d="M456.383,267.31h2.114c4.462,0,8.078-3.616,8.078-8.078c0-4.461-3.616-8.078-8.078-8.078h-2.114   c-4.462,0-8.078,3.617-8.078,8.078C448.305,263.693,451.921,267.31,456.383,267.31z"/>
	<path style="fill:#231F20;" d="M401.934,267.31h29.791c4.462,0,8.078-3.616,8.078-8.078c0-4.461-3.616-8.078-8.078-8.078h-29.791   c-4.462,0-8.078,3.617-8.078,8.078C393.856,263.693,397.473,267.31,401.934,267.31z"/>
	<path style="fill:#231F20;" d="M224.064,322.841c4.462,0,8.078-3.616,8.078-8.078c0-4.462-3.616-8.078-8.078-8.078h-9.692   c-4.462,0-8.078,3.616-8.078,8.078c0,4.462,3.616,8.078,8.078,8.078H224.064z"/>
	<path style="fill:#231F20;" d="M479.206,276.584H377.958c-4.462,0-8.078,3.616-8.078,8.078v29.2v140.146   c0,4.462,3.616,8.078,8.078,8.078h101.248c4.462,0,8.078-3.616,8.078-8.078V313.863v-29.2   C487.285,280.201,483.669,276.584,479.206,276.584z M386.036,292.74h85.092v13.044h-85.092V292.74z M386.036,445.931V321.942   h85.092v123.989L386.036,445.931L386.036,445.931z"/>
</g>
<g style="opacity:0.1;">
	<path style="fill:#231F20;" d="M378.522,488.824v-18.205V265.421v-18.206c0-7.343,5.953-13.296,13.296-13.296h-25.281   c-7.342,0-13.296,5.952-13.296,13.296v18.206v205.197v18.205c0,7.344,5.953,13.296,13.296,13.296h25.281   C384.476,502.12,378.522,496.168,378.522,488.824z"/>
</g>
<g style="opacity:0.1;">
	<rect x="45.786" y="44.172" style="fill:#231F20;" width="17.503" height="211.297"/>
</g>
<g style="opacity:0.1;">
	<rect x="15.896" y="11.496" style="fill:#231F20;" width="17.234" height="326.009"/>
</g>
<g style="opacity:0.1;">
	
		<rect x="179.965" y="348.138" transform="matrix(-0.9873 -0.1589 0.1589 -0.9873 313.8122 792.3124)" style="fill:#231F20;" width="17.234" height="70.945"/>
</g>
<g style="opacity:0.1;">
	<rect x="384.356" y="285.854" style="fill:#231F20;" width="19.028" height="161.879"/>
</g>
<g>
</g>
<g>
</g>
<g>
</g>
<g>
</g>
<g>
</g>
<g>
</g>
<g>
</g>
<g>
</g>
<g>
</g>
<g>
</g>
<g>
</g>
<g>
</g>
<g>
</g>
<g>
</g>
<g>
</g>
</svg>
