<?xml version="1.0" encoding="utf-8"?>
<!-- Generator: Adobe Illustrator 25.0.1, SVG Export Plug-In . SVG Version: 6.00 Build 0)  -->
<svg version="1.1" id="Layer_1" xmlns="http://www.w3.org/2000/svg" xmlns:xlink="http://www.w3.org/1999/xlink" x="0px" y="0px"
	 viewBox="0 0 512 512" style="enable-background:new 0 0 512 512;" xml:space="preserve">
<style type="text/css">
	.st0{fill:#EAE8E8;}
	.st1{fill:#F7DFB7;}
	.st2{fill:#008075;}
	.st3{fill:#738191;}
	.st4{fill:#03B68C;}
	.st5{fill:#5AC0A5;}
	.st6{fill:#D8D4D4;}
	.st7{fill:#231F20;}
	.st8{opacity:0.1;}
	.st9{fill:#FCCF8B;}
	.st10{fill:#E0DCDC;}
	.st11{fill:#6AC6D8;}
</style>
<path class="st0" d="M152.7,457.1h-22.9c-25.9,0-46.9-21-46.9-46.9V81.8c0-25.9,21-46.9,46.9-46.9h328.4c25.9,0,46.9,21,46.9,46.9
	v328.4c0,25.9-21,46.9-46.9,46.9H175.5"/>
<polygon class="st1" points="262.8,351.6 247.6,405.4 301.4,390.2 "/>
<path class="st2" d="M456.1,217L436,196.9c-5.1-5.1-13.4-5.1-18.5,0L397,217.4l38.6,38.6l20.5-20.5
	C461.2,230.4,461.2,222.1,456.1,217z"/>
<rect x="396.4" y="217.6" transform="matrix(0.7071 -0.7071 0.7071 0.7071 -53.6372 360.2782)" class="st3" width="23.4" height="54.6"/>
<rect x="257.7" y="284.8" transform="matrix(0.7071 -0.7071 0.7071 0.7071 -120.8012 332.5222)" class="st4" width="166.5" height="54.6"/>
<polygon class="st5" points="378.5,200.6 390.3,188.8 128.5,188.8 128.5,228.5 350.7,228.5 "/>
<path class="st0" d="M458.2,34.9H129.8c-25.9,0-46.9,21-46.9,46.9v41.6h422.3V81.8C505.2,55.9,484.2,34.9,458.2,34.9z"/>
<circle class="st2" cx="138.4" cy="81" r="13.7"/>
<circle class="st4" cx="185.5" cy="81" r="13.7"/>
<circle class="st5" cx="232.7" cy="81" r="13.7"/>
<polyline class="st6" points="441,146.9 82.9,146.9 82.9,123.3 505.2,123.3 505.2,146.9 463.4,146.9 "/>
<path class="st7" d="M458.2,28H129.8C100.2,28,76,52.1,76,81.8v41.6V147v263.3c0,29.6,24.1,53.8,53.8,53.8h22.9
	c3.8,0,6.8-3.1,6.8-6.8c0-3.8-3.1-6.8-6.8-6.8h-22.9c-22.1,0-40.1-18-40.1-40.1V153.7H441c3.8,0,6.8-3.1,6.8-6.8
	c0-3.8-3.1-6.8-6.8-6.8H89.7v-9.9h408.6v9.9h-35c-3.8,0-6.8,3.1-6.8,6.8c0,3.8,3.1,6.8,6.8,6.8h35v256.5c0,22.1-18,40.1-40.1,40.1
	H175.5c-3.8,0-6.8,3.1-6.8,6.8c0,3.8,3.1,6.8,6.8,6.8h282.8c29.6,0,53.8-24.1,53.8-53.8V146.9v-23.6V81.8
	C512,52.1,487.9,28,458.2,28z M89.7,116.5V81.8c0-22.1,18-40.1,40.1-40.1h328.4c22.1,0,40.1,18,40.1,40.1v34.7H89.7z"/>
<path class="st7" d="M138.4,60.5c-11.3,0-20.5,9.2-20.5,20.5s9.2,20.5,20.5,20.5s20.5-9.2,20.5-20.5S149.7,60.5,138.4,60.5z
	 M138.4,87.8c-3.8,0-6.8-3.1-6.8-6.8c0-3.8,3.1-6.8,6.8-6.8c3.8,0,6.8,3.1,6.8,6.8S142.1,87.8,138.4,87.8z"/>
<path class="st7" d="M185.5,60.5c-11.3,0-20.5,9.2-20.5,20.5s9.2,20.5,20.5,20.5S206,92.3,206,81S196.8,60.5,185.5,60.5z
	 M185.5,87.8c-3.8,0-6.8-3.1-6.8-6.8c0-3.8,3.1-6.8,6.8-6.8c3.8,0,6.8,3.1,6.8,6.8C192.3,84.7,189.3,87.8,185.5,87.8z"/>
<path class="st7" d="M232.7,60.5c-11.3,0-20.5,9.2-20.5,20.5s9.2,20.5,20.5,20.5s20.5-9.2,20.5-20.5S244,60.5,232.7,60.5z
	 M232.7,87.8c-3.8,0-6.8-3.1-6.8-6.8c0-3.8,3.1-6.8,6.8-6.8c3.8,0,6.8,3.1,6.8,6.8S236.4,87.8,232.7,87.8z"/>
<path class="st7" d="M459.9,74.1H339.7c-3.8,0-6.8,3.1-6.8,6.8s3.1,6.8,6.8,6.8h120.2c3.8,0,6.8-3.1,6.8-6.8S463.7,74.1,459.9,74.1z
	"/>
<path class="st7" d="M460.9,212.2l-20.1-20.1c-3.8-3.8-8.8-5.8-14.1-5.8c-5.3,0-10.3,2.1-14.1,5.8l-20.5,20.4l0,0L375.7,229
	L257.9,346.8c-0.2,0.2-0.3,0.4-0.5,0.6c0,0.1-0.1,0.1-0.1,0.2c-0.1,0.2-0.2,0.3-0.3,0.5c0,0.1-0.1,0.1-0.1,0.2
	c-0.1,0.2-0.2,0.4-0.3,0.6c0,0.1-0.1,0.1-0.1,0.2c-0.1,0.2-0.2,0.5-0.3,0.8c0,0,0,0,0,0.1L241,403.5c-0.7,2.4,0,4.9,1.7,6.7
	c1.3,1.3,3,2,4.8,2c0.6,0,1.2-0.1,1.9-0.3l53.8-15.2l0,0c0.3-0.1,0.5-0.2,0.8-0.3c0,0,0.1,0,0.1-0.1c0.2-0.1,0.4-0.2,0.6-0.3
	c0.1,0,0.1-0.1,0.2-0.1c0.2-0.1,0.4-0.2,0.5-0.4l0.1-0.1c0.2-0.2,0.4-0.3,0.6-0.5l117.8-117.8l0,0l16.5-16.5l20.5-20.5
	C468.7,232.6,468.7,219.9,460.9,212.2z M301.4,380.6l-28.9-28.9l108.1-108.1l16.1,16.1l12.8,12.8L301.4,380.6z M419.1,262.8
	l-14.5-14.5l-14.5-14.5l6.9-6.9l28.9,28.9L419.1,262.8z M266.2,364.7l22.1,22.1l-30.8,8.7L266.2,364.7z M451.3,230.7l-15.6,15.6
	l-28.9-28.9l15.6-15.6c1.2-1.2,2.7-1.8,4.4-1.8c1.7,0,3.2,0.6,4.4,1.8l20.1,20.1C453.7,224.3,453.7,228.2,451.3,230.7z"/>
<path class="st7" d="M389.6,263.4c-2.7-2.7-7-2.7-9.7,0l-87.1,87.1c-2.7,2.7-2.7,7,0,9.7c1.3,1.3,3.1,2,4.8,2s3.5-0.7,4.8-2
	l87.1-87.1C392.2,270.4,392.2,266.1,389.6,263.4z"/>
<path class="st7" d="M128.5,270.7h187.7c3.8,0,6.8-3.1,6.8-6.8c0-3.8-3.1-6.8-6.8-6.8H128.5c-3.8,0-6.8,3.1-6.8,6.8
	S124.7,270.7,128.5,270.7z"/>
<path class="st7" d="M128.5,306.1h151.2c3.8,0,6.8-3.1,6.8-6.8s-3.1-6.8-6.8-6.8H128.5c-3.8,0-6.8,3.1-6.8,6.8
	S124.7,306.1,128.5,306.1z"/>
<path class="st7" d="M128.5,341.5h115.7c3.8,0,6.8-3.1,6.8-6.8c0-3.8-3.1-6.8-6.8-6.8H128.5c-3.8,0-6.8,3.1-6.8,6.8
	S124.7,341.5,128.5,341.5z"/>
<path class="st7" d="M128.5,376.8h102c3.8,0,6.8-3.1,6.8-6.8c0-3.8-3.1-6.8-6.8-6.8h-102c-3.8,0-6.8,3.1-6.8,6.8
	C121.6,373.8,124.7,376.8,128.5,376.8z"/>
<path class="st7" d="M128.5,412.2h94.7c3.8,0,6.8-3.1,6.8-6.8c0-3.8-3.1-6.8-6.8-6.8h-94.7c-3.8,0-6.8,3.1-6.8,6.8
	C121.6,409.2,124.7,412.2,128.5,412.2z"/>
<path class="st7" d="M446.4,292.4h-20c-3.8,0-6.8,3.1-6.8,6.8s3.1,6.8,6.8,6.8h20c3.8,0,6.8-3.1,6.8-6.8
	C453.2,295.5,450.2,292.4,446.4,292.4z"/>
<path class="st7" d="M446.4,327.8h-54.3c-3.8,0-6.8,3.1-6.8,6.8c0,3.8,3.1,6.8,6.8,6.8h54.3c3.8,0,6.8-3.1,6.8-6.8
	C453.2,330.8,450.2,327.8,446.4,327.8z"/>
<path class="st7" d="M446.4,363.2H358c-3.8,0-6.8,3.1-6.8,6.8c0,3.8,3.1,6.8,6.8,6.8h88.4c3.8,0,6.8-3.1,6.8-6.8
	C453.2,366.2,450.2,363.2,446.4,363.2z"/>
<path class="st7" d="M446.4,398.6H322.5c-3.8,0-6.8,3.1-6.8,6.8c0,3.8,3.1,6.8,6.8,6.8h123.9c3.8,0,6.8-3.1,6.8-6.8
	C453.2,401.6,450.2,398.6,446.4,398.6z"/>
<path class="st7" d="M390.3,182H128.5c-3.8,0-6.8,3.1-6.8,6.8v39.6c0,3.8,3.1,6.8,6.8,6.8h222.2c1.8,0,3.5-0.7,4.8-2l39.6-39.6
	c2-2,2.5-4.9,1.5-7.4C395.6,183.7,393.1,182,390.3,182z M347.8,221.6H135.3v-26h238.5L347.8,221.6z"/>
<g class="st8">
	<path class="st7" d="M104.2,410.2V81.8c0-25.9,21-46.9,46.9-46.9h-21.3c-25.9,0-46.9,21-46.9,46.9v328.4c0,25.9,21,46.9,46.9,46.9
		h21.3C125.2,457.1,104.2,436.1,104.2,410.2z"/>
</g>
<g>
	<rect x="5.1" y="361.8" class="st9" width="58.4" height="125.3"/>
	<rect x="63.5" y="367.3" class="st9" width="23.8" height="114.4"/>
	<path class="st9" d="M215.6,372.2l-55.9-1.6h-0.3l4.9-31.7c0,0,5.9-27.2-15-27.2H149c-6.1,0-9.7,5.6-11.1,11.1l-6.3,23.1
		c0,0-6.3,26.3-44.4,26.3v7.3v26v37.6V465v9.2h18.3c0,0,26.2,15.3,92,6.1c5.6-1,9.8-5.9,9.8-11.7v-0.9c0-6.6-5.3-11.9-11.9-11.9h6.7
		c6.6,0,11.9-5.3,11.9-11.9v-4c0-6.6-5.3-11.9-11.9-11.9h6.7c6.6,0,11.9-5.3,11.9-11.9v-4c0-6.6-5.3-11.9-11.9-11.9h6.7
		c6.6,0,11.9-5.3,11.9-11.9v-4C227.6,377.5,222.2,372.2,215.6,372.2z"/>
</g>
<rect x="5.1" y="361.8" class="st2" width="58.4" height="125.3"/>
<g class="st8">
	<rect x="5.1" y="361.8" class="st7" width="16.1" height="125.3"/>
</g>
<g>
	<circle class="st10" cx="32.1" cy="459.4" r="8.6"/>
	<rect x="63.5" y="367.3" class="st10" width="23.8" height="114.4"/>
</g>
<g>
	<path class="st11" d="M103.5,367.3H87.3v4.9c6.2,0,11.6-0.7,16.3-1.9v-3H103.5z"/>
	<rect x="63.5" y="361.8" class="st11" width="16.3" height="5.5"/>
</g>
<g>
	<path class="st7" d="M87.3,362.2H68.6v-0.4c0-2.8-2.3-5.1-5.1-5.1H5.1c-2.8,0-5.1,2.3-5.1,5.1V488h0.1c0.4,2.4,2.5,4.3,5,4.3h58.4
		c2.8,0,5.1-2.3,5.1-5.1v-0.4h18.7c2.8,0,5.1-2.3,5.1-5.1v-2.4h12c4.6,2.2,21.4,9.1,54,9.1c12.4,0,25.9-1,40-3c0.1,0,0.1,0,0.2,0
		c8.1-1.5,14-8.5,14-16.7v-0.9c0-3.2-0.9-6.2-2.4-8.7c5.4-2.8,9.1-8.5,9.1-15.1v-4c0-3.2-0.9-6.2-2.4-8.7c5.4-2.8,9.1-8.5,9.1-15.1
		v-4c0-3.2-0.9-6.2-2.4-8.7c5.4-2.8,9.1-8.5,9.1-15.1v-4c0-9.4-7.6-17-16.9-17l-50.4-1.5l4-25.9c0.5-2.4,3.2-17.1-4.3-26.3
		c-2.5-3.1-7.3-6.9-15.7-6.9h-0.3c-2.4,0-4.7,0.6-6.7,1.6c-2.9,1.9-3.8,1.7-7.3,7.9c-0.6,1.2-1.1,2.5-1.6,3.9
		c-0.2,0.5-0.3,1-0.4,1.5l-6.3,23.1c0,0.1,0,0.1,0,0.1s0,0,0,0.1l0,0c0,0,0,0.1-0.1,0.2l0,0c0,0.1-0.1,0.2-0.1,0.3l0,0
		c0,0.1-0.1,0.2-0.1,0.3c0,0,0,0,0,0.1s-0.1,0.3-0.2,0.4v0.1c-0.1,0.2-0.1,0.3-0.2,0.5v0.1c-0.1,0.2-0.2,0.4-0.2,0.5v0.1
		c-0.1,0.2-0.2,0.4-0.3,0.6v0.1c-0.1,0.2-0.2,0.4-0.3,0.7c0,0,0,0,0,0.1c-0.1,0.2-0.3,0.5-0.4,0.7c0,0,0,0,0,0.1
		c-0.1,0.2-0.3,0.5-0.5,0.8c0,0,0,0.1-0.1,0.1c-0.2,0.3-0.3,0.5-0.5,0.8l-0.1,0.1c-0.2,0.3-0.4,0.5-0.5,0.8c0,0.1-0.1,0.1-0.1,0.2
		c-0.2,0.3-0.4,0.5-0.6,0.8c0,0.1-0.1,0.1-0.1,0.2c-0.2,0.3-0.4,0.5-0.7,0.8c0,0.1-0.1,0.1-0.1,0.2c-0.2,0.3-0.5,0.6-0.7,0.8
		c-0.1,0.1-0.1,0.1-0.2,0.2c-0.3,0.3-0.5,0.6-0.8,0.8l-0.1,0.1c-0.3,0.3-0.6,0.6-0.9,0.9l-0.1,0.1c-0.3,0.3-0.7,0.6-1,0.9
		c0,0-0.1,0-0.1,0.1c-0.4,0.3-0.7,0.6-1.1,0.9l-0.1,0.1c-0.4,0.3-0.8,0.6-1.2,0.8c-0.1,0-0.1,0.1-0.2,0.1c-0.4,0.3-0.8,0.5-1.2,0.8
		c-0.1,0-0.2,0.1-0.2,0.1c-0.4,0.3-0.9,0.5-1.3,0.7c-0.1,0-0.2,0.1-0.3,0.1c-0.5,0.2-0.9,0.5-1.4,0.7c-0.1,0-0.2,0.1-0.3,0.1
		c-0.5,0.2-1,0.5-1.5,0.7c-0.1,0-0.2,0.1-0.3,0.1c-0.5,0.2-1.1,0.4-1.6,0.6c-0.1,0-0.2,0.1-0.3,0.1c-0.6,0.2-1.2,0.4-1.8,0.6
		c-0.1,0-0.1,0-0.2,0.1c-0.6,0.2-1.3,0.4-2,0.5h-0.1c-0.4,0.1-0.8,0.2-1.2,0.3c0,0-4.6,1-8.6,1.4l0,0c0-2.7-2.1-4.8-4.8-4.9
		L87.3,362.2z M58.4,482.1H10.2V366.9h48.2V482.1z M82.2,476.6H68.6V372.4h13.6V476.6z M215.6,395h-43.2c-2.8,0-5.1,2.3-5.1,5.1
		c0,2.8,2.3,5.1,5.1,5.1h36.5c3.8,0,6.8,3.1,6.8,6.8v4c0,3.7-3.1,6.8-6.8,6.8h-6.7c-0.2,0-0.3,0-0.5,0l-29.3,0.1
		c-2.8,0-5.1,2.3-5.1,5.1c0,2.8,2.3,5.1,5.1,5.1l0,0l30.1-0.1c3.6,0.2,6.4,3.2,6.4,6.8v4c0,3.8-3.1,6.8-6.8,6.8h-29.8
		c-2.8,0-5.1,2.3-5.1,5.1c0,2.8,2.3,5.1,5.1,5.1h23c3.8,0,6.8,3.1,6.8,6.8v0.9c0,3.3-2.3,6-5.5,6.7c-13.6,1.9-26.6,2.8-38.5,2.8
		c-35,0-50-8.3-50.2-8.4c-0.8-0.4-1.7-0.7-2.6-0.7H92.4V377c0.1,0,0.2,0,0.4,0c0.3,0,0.5,0,0.8-0.1c0.2,0,0.4,0,0.6,0s0.3,0,0.5-0.1
		c0.2,0,0.4,0,0.7-0.1c0.2,0,0.5,0,0.7-0.1c0.2,0,0.3,0,0.5-0.1h0.1c0.1,0,0.3,0,0.4-0.1c0.3,0,0.7-0.1,1-0.1c0.2,0,0.4-0.1,0.7-0.1
		c0.3-0.1,0.7-0.1,1-0.2c0.2,0,0.4-0.1,0.6-0.1c0.4-0.1,0.7-0.1,1-0.2c0.2,0,0.3-0.1,0.5-0.1c0.4-0.1,0.8-0.2,1.2-0.3
		c0.1,0,0.2,0,0.3-0.1c0.5-0.1,1-0.2,1.5-0.4h0.1c0.5-0.1,0.9-0.2,1.3-0.4c0.1,0,0.3-0.1,0.4-0.1c0.3-0.1,0.7-0.2,1-0.3
		c0.2-0.1,0.3-0.1,0.5-0.2c0.3-0.1,0.6-0.2,0.9-0.3c0.2-0.1,0.3-0.1,0.5-0.2c0.3-0.1,0.5-0.2,0.8-0.3c0.2-0.1,0.3-0.1,0.5-0.2
		c0.3-0.1,0.5-0.2,0.8-0.3c0.2-0.1,0.3-0.1,0.5-0.2c0.3-0.1,0.5-0.2,0.7-0.3c0.2-0.1,0.3-0.1,0.5-0.2s0.5-0.2,0.7-0.3
		c0.1-0.1,0.3-0.1,0.4-0.2c0.2-0.1,0.5-0.2,0.7-0.4c0.1-0.1,0.3-0.1,0.4-0.2c0.3-0.1,0.5-0.3,0.8-0.4c0.1-0.1,0.2-0.1,0.3-0.2
		c0.3-0.2,0.6-0.3,0.8-0.5c0.1,0,0.1-0.1,0.2-0.1c0.7-0.4,1.3-0.8,2-1.2c0.1-0.1,0.2-0.1,0.2-0.2c0.2-0.1,0.5-0.3,0.7-0.4
		c0.1-0.1,0.2-0.1,0.3-0.2c0.2-0.1,0.4-0.3,0.6-0.4c0.1-0.1,0.2-0.2,0.3-0.2c0.2-0.1,0.4-0.3,0.5-0.4s0.2-0.2,0.3-0.2
		c0.2-0.1,0.3-0.2,0.5-0.4c0.1-0.1,0.2-0.2,0.3-0.3c0.2-0.1,0.3-0.2,0.5-0.4c0.1-0.1,0.2-0.2,0.3-0.3c0.2-0.1,0.3-0.2,0.4-0.4
		c0.1-0.1,0.2-0.2,0.3-0.3c0.1-0.1,0.3-0.2,0.4-0.4c0.1-0.1,0.2-0.2,0.3-0.2c0.1-0.1,0.3-0.3,0.4-0.4s0.2-0.2,0.2-0.2
		c0.1-0.1,0.3-0.3,0.4-0.4s0.1-0.1,0.2-0.2c0.2-0.2,0.4-0.4,0.6-0.6c0.4-0.4,0.8-0.9,1.2-1.3c0.3-0.3,0.5-0.6,0.8-0.9
		c0.1-0.1,0.2-0.3,0.3-0.4c3.5-4.3,5.3-8.4,6.2-10.7v-0.1c0.1-0.1,0.1-0.3,0.1-0.4s0.1-0.2,0.1-0.3v-0.1c0.2-0.5,0.3-0.9,0.3-1.1
		l4.1-15.1l2.2-8c0.1-0.5,0.3-0.9,0.4-1.3c0,0,0-0.1,0.1-0.1c0.1-0.4,0.3-0.8,0.5-1.2l0,0c0.4-0.8,0.8-1.5,1.2-2.2l0.1-0.1
		c1-1.3,2.3-2.4,4-2.4h0.3c3.6,0,6.1,1,7.8,3c3.9,4.8,2.9,14.6,2.2,17.9c0,0.1,0,0.2-0.1,0.3l-4.2,27.4h-5.7c-2.8,0-5.1,2.3-5.1,5.1
		c0,2.8,2.3,5.1,5.1,5.1h10l56.1,1.6h0.1c3.8,0,6.8,3.1,6.8,6.8v4l0,0C222.4,391.9,219.4,395,215.6,395z"/>
	<path class="st7" d="M32.1,445.7c-7.6,0-13.8,6.2-13.8,13.7c0,7.6,6.2,13.8,13.8,13.8s13.8-6.2,13.8-13.8
		C45.8,451.8,39.7,445.7,32.1,445.7z M32.1,462.9c-2,0-3.5-1.6-3.5-3.5s1.6-3.5,3.5-3.5c2,0,3.5,1.6,3.5,3.5
		C35.6,461.4,34,462.9,32.1,462.9z"/>
</g>
<rect x="-630.2" y="-187.6" class="st2" width="64.4" height="64.4"/>
<rect x="-548.9" y="-187.6" class="st4" width="64.4" height="64.4"/>
<rect x="-466.5" y="-187.6" class="st5" width="64.4" height="64.4"/>
</svg>
