<?xml version="1.0" encoding="utf-8"?>
<!-- Generator: Adobe Illustrator 24.1.1, SVG Export Plug-In . SVG Version: 6.00 Build 0)  -->
<svg version="1.1" id="Layer_1" xmlns="http://www.w3.org/2000/svg" xmlns:xlink="http://www.w3.org/1999/xlink" x="0px" y="0px"
	 viewBox="0 0 512 512" style="enable-background:new 0 0 512 512;" xml:space="preserve">
<style type="text/css">
	.st0{fill:#5BC2A6;}
	.st1{fill:#E5E4E4;}
	.st2{fill:#738191;}
	.st3{fill:#3E495A;}
	.st4{fill:#F57555;}
	.st5{fill:#F4B847;}
	.st6{fill:#62B07E;}
	.st7{fill:#231F20;}
	.st8{opacity:0.1;}
</style>
<path class="st0" d="M82,512H55.1C24.7,512,0,487.3,0,456.9V71.2C0,40.7,24.7,16,55.1,16h385.7c30.4,0,55.1,24.7,55.1,55.1v385.7
	c0,30.4-24.7,55.1-55.1,55.1H108.7"/>
<g>
	<path class="st1" d="M163.7,395.9c-3.7,0-7.3-1.4-10.1-4.2L79,317c-2.7-2.7-4.2-6.3-4.2-10.1c0-3.8,1.5-7.4,4.2-10.1l74.7-74.7
		c5.6-5.6,14.6-5.6,20.2,0c5.6,5.6,5.6,14.6,0,20.2l-64.6,64.6l64.6,64.6c5.6,5.6,5.6,14.6,0,20.2
		C171,394.5,167.4,395.9,163.7,395.9z"/>
	<path class="st1" d="M348.8,395.9c3.7,0,7.3-1.4,10.1-4.2l74.7-74.7c2.7-2.7,4.2-6.3,4.2-10.1c0-3.8-1.5-7.4-4.2-10.1l-74.7-74.7
		c-5.6-5.6-14.6-5.6-20.2,0s-5.6,14.6,0,20.2l64.6,64.6l-64.6,64.6c-5.6,5.6-5.6,14.6,0,20.2C341.5,394.5,345.2,395.9,348.8,395.9z"
		/>
	<path class="st1" d="M249.7,358.5l3.2-7.5l0,0l5.1-11.9l5.1-11.9l0,0l6.3-14.7l6.3-14.7l0,0l5.1-11.9l5.1-11.9l0,0l21.7-50.5
		c1.6-3.6,1.5-7.5,0.1-10.9c-1.4-3.4-4-6.3-7.6-7.8c-7.2-3.1-15.6,0.2-18.7,7.5l-22.8,53.1c0,0,0,0,0,0l-15.4,35.9l-15.4,35.9
		c0,0,0,0,0,0L205,390.3c-3.1,7.2,0.2,15.6,7.5,18.7c3.6,1.6,7.5,1.5,10.9,0.1c3.4-1.4,6.3-4,7.8-7.6L249.7,358.5"/>
</g>
<polyline class="st2" points="428.7,139.6 8,139.6 8,111.9 504,111.9 504,139.6 454.9,139.6 "/>
<path class="st3" d="M448.9,8H63.1C32.7,8,8,32.7,8,63.1v48.8H504V63.1C504,32.7,479.3,8,448.9,8z"/>
<circle class="st4" cx="73.2" cy="62.2" r="16"/>
<circle class="st5" cx="128.5" cy="62.2" r="16"/>
<circle class="st6" cx="183.9" cy="62.2" r="16"/>
<g>
	<path class="st7" d="M448.9,0H63.1C28.3,0,0,28.3,0,63.1v48.8v27.7v309.2C0,483.7,28.3,512,63.1,512H90c4.4,0,8-3.6,8-8
		c0-4.4-3.6-8-8-8H63.1c-26,0-47.1-21.1-47.1-47.1V147.7h412.6c4.4,0,8-3.6,8-8c0-4.4-3.6-8-8-8H16.1V120h479.9v11.6h-41.1
		c-4.4,0-8,3.6-8,8c0,4.4,3.6,8,8,8h41.1v301.2c0,26-21.1,47.1-47.1,47.1H116.8c-4.4,0-8,3.6-8,8c0,4.4,3.6,8,8,8h332.1
		c34.8,0,63.1-28.3,63.1-63.1V139.6v-27.7V63.1C512,28.3,483.7,0,448.9,0z M16.1,103.9V63.1c0-26,21.1-47.1,47.1-47.1h385.7
		c26,0,47.1,21.1,47.1,47.1v40.8H16.1z"/>
	<path class="st7" d="M73.2,38.1c-13.3,0-24.1,10.8-24.1,24.1c0,13.3,10.8,24.1,24.1,24.1s24.1-10.8,24.1-24.1
		C97.2,48.9,86.4,38.1,73.2,38.1z M73.2,70.2c-4.4,0-8-3.6-8-8c0-4.4,3.6-8,8-8s8,3.6,8,8S77.6,70.2,73.2,70.2z"/>
	<path class="st7" d="M128.5,38.1c-13.3,0-24.1,10.8-24.1,24.1c0,13.3,10.8,24.1,24.1,24.1c13.3,0,24.1-10.8,24.1-24.1
		C152.6,48.9,141.8,38.1,128.5,38.1z M128.5,70.2c-4.4,0-8-3.6-8-8c0-4.4,3.6-8,8-8c4.4,0,8,3.6,8,8S133,70.2,128.5,70.2z"/>
	<path class="st7" d="M183.9,38.1c-13.3,0-24.1,10.8-24.1,24.1c0,13.3,10.8,24.1,24.1,24.1c13.3,0,24.1-10.8,24.1-24.1
		C208,48.9,197.2,38.1,183.9,38.1z M183.9,70.2c-4.4,0-8-3.6-8-8c0-4.4,3.6-8,8-8c4.4,0,8,3.6,8,8C191.9,66.6,188.3,70.2,183.9,70.2
		z"/>
	<path class="st7" d="M450.9,54.2H309.6c-4.4,0-8,3.6-8,8s3.6,8,8,8h141.2c4.4,0,8-3.6,8-8S455.3,54.2,450.9,54.2z"/>
	<path class="st7" d="M186,232.2c0-6-2.3-11.6-6.5-15.8c-4.2-4.2-9.8-6.5-15.8-6.5s-11.6,2.3-15.8,6.5l-74.7,74.7
		c-4.2,4.2-6.5,9.8-6.5,15.8c0,6,2.3,11.6,6.5,15.8l74.7,74.7c4.2,4.2,9.8,6.5,15.8,6.5c6,0,11.6-2.3,15.8-6.5
		c4.2-4.2,6.5-9.8,6.5-15.8c0-6-2.3-11.6-6.5-15.8l-58.9-58.9l58.9-58.9C183.7,243.8,186,238.2,186,232.2z M168.2,236.7l-64.6,64.6
		c-1.5,1.5-2.3,3.5-2.3,5.7s0.8,4.2,2.3,5.7l64.6,64.6c1.2,1.2,1.8,2.7,1.8,4.4c0,1.7-0.6,3.2-1.8,4.4c-1.2,1.2-2.7,1.8-4.4,1.8
		c-1.7,0-3.2-0.6-4.4-1.8l-74.7-74.7c-1.2-1.2-1.8-2.7-1.8-4.4c0-1.7,0.6-3.2,1.8-4.4l74.7-74.7c1.2-1.2,2.7-1.8,4.4-1.8
		c1.7,0,3.2,0.6,4.4,1.8c1.2,1.2,1.8,2.7,1.8,4.4S169.3,235.5,168.2,236.7z"/>
	<path class="st7" d="M333.1,397.4c4.2,4.2,9.8,6.5,15.8,6.5s11.6-2.3,15.8-6.5l74.7-74.7c4.2-4.2,6.5-9.8,6.5-15.8
		c0-6-2.3-11.6-6.5-15.8l-74.7-74.7c-4.2-4.2-9.8-6.5-15.8-6.5c-6,0-11.6,2.3-15.8,6.5c-8.7,8.7-8.7,22.8,0,31.5l58.9,58.9
		l-58.9,58.9C324.4,374.5,324.4,388.7,333.1,397.4z M344.4,377.2l64.6-64.6c1.5-1.5,2.4-3.5,2.4-5.7s-0.8-4.2-2.4-5.7l-64.6-64.6
		c-2.4-2.4-2.4-6.4,0-8.8c1.2-1.2,2.7-1.8,4.4-1.8c1.7,0,3.2,0.6,4.4,1.8l74.7,74.7c1.2,1.2,1.8,2.7,1.8,4.4s-0.6,3.2-1.8,4.4
		L353.2,386c-1.2,1.2-2.7,1.8-4.4,1.8c-1.7,0-3.2-0.6-4.4-1.8C342,383.6,342,379.6,344.4,377.2z"/>
	<path class="st7" d="M209.3,416.4c2.8,1.2,5.8,1.8,8.8,1.8c0,0,0,0,0,0c2.8,0,5.6-0.5,8.3-1.6c5.5-2.2,9.9-6.4,12.2-11.9
		l76.3-177.9c2.4-5.5,2.4-11.5,0.2-17.1c-2.2-5.5-6.4-9.9-11.9-12.2c-2.8-1.2-5.8-1.8-8.8-1.8c-8.9,0-17,5.3-20.5,13.5l-22.8,53.2
		c0,0,0,0,0,0l-30.7,71.5c0,0,0,0.1,0,0.1l-22.8,53.1c-2.3,5.5-2.4,11.5-0.2,17.1C199.6,409.7,203.8,414,209.3,416.4z M212.4,393.4
		l22.8-53c0,0,0,0,0-0.1l30.8-71.7c0,0,0-0.1,0.1-0.1l22.7-53c1-2.3,3.2-3.8,5.7-3.8c0.8,0,1.7,0.2,2.5,0.5c1.5,0.7,2.7,1.9,3.3,3.4
		c0.6,1.6,0.6,3.2-0.1,4.8l-76.3,177.9c-0.7,1.5-1.9,2.7-3.4,3.3c-1.5,0.6-3.2,0.6-4.8-0.1c-1.5-0.7-2.7-1.9-3.3-3.4
		C211.7,396.7,211.7,395,212.4,393.4z"/>
</g>
<g class="st8">
	<path class="st7" d="M33.2,448.9V63.1C33.2,32.7,57.9,8,88.3,8H63.1C32.7,8,8,32.7,8,63.1v385.7C8,479.3,32.7,504,63.1,504h25.2
		C57.9,504,33.2,479.3,33.2,448.9z"/>
</g>
</svg>
