<?xml version="1.0" encoding="utf-8"?>
<!-- Generator: Adobe Illustrator 25.0.1, SVG Export Plug-In . SVG Version: 6.00 Build 0)  -->
<svg version="1.1" id="Layer_1" xmlns="http://www.w3.org/2000/svg" xmlns:xlink="http://www.w3.org/1999/xlink" x="0px" y="0px"
	 viewBox="0 0 512 512" style="enable-background:new 0 0 512 512;" xml:space="preserve">
<style type="text/css">
	.st0{fill:#03B68C;}
	.st1{fill:#5AC0A5;}
	.st2{fill:#F4B846;}
	.st3{opacity:0.1;}
	.st4{fill:#231F20;}
	.st5{fill:#008075;}
</style>
<path class="st0" d="M133.1,165.5v101.2c10.7-21.2,32.7-35.8,58.1-35.8c35.9,0,65,29.1,65,65c0,1.5-0.1,2.9-0.2,4.3h124.9V165.5
	H133.1L133.1,165.5z"/>
<path class="st1" d="M344.4,166.8c0,19.7,16,35.7,35.7,35.7c0.2,0,0.5,0,0.7,0v-37h-36.4C344.5,165.9,344.4,166.4,344.4,166.8z"/>
<path class="st1" d="M380.8,263.1c-0.2,0-0.5,0-0.7,0c-19.7,0-35.7,16-35.7,35.7c0,0.5,0,0.9,0,1.3h36.4L380.8,263.1L380.8,263.1z"
	/>
<path class="st1" d="M169.5,166.8c0,19.7-16,35.7-35.7,35.7c-0.2,0-0.5,0-0.7,0v-37h36.4C169.5,165.9,169.5,166.4,169.5,166.8z"/>
<path class="st1" d="M257,197.1c-19.7,0-35.7,16-35.7,35.7c0,1.9,0.2,3.8,0.5,5.7c12.2,6.5,22,16.8,28,29.2c2.3,0.5,4.7,0.7,7.2,0.7
	c19.7,0,35.7-16,35.7-35.7S276.7,197.1,257,197.1z"/>
<circle class="st2" cx="191.1" cy="295.8" r="65"/>
<g class="st3">
	<path class="st4" d="M151.3,295.8c0-31.6,22.5-57.9,52.4-63.7c-4.1-0.8-8.3-1.2-12.6-1.2c-35.9,0-65,29.1-65,65s29.1,65,65,65
		c4.3,0,8.5-0.4,12.6-1.2C173.8,353.7,151.3,327.4,151.3,295.8z"/>
</g>
<path class="st5" d="M437.5,401.8c22.1-27.4,38.1-59.9,45.9-95.5h-35.3c-22.3,85.2-100,148.3-192.2,148.3
	c-90.3,0-166.8-60.6-190.8-143.3l27.6-10.5l-70.5-57.4L8.1,333.1l25-9.6C62.1,419.1,151,488.8,256,488.8
	c64.5,0,122.9-26.3,165.1-68.8"/>
<path class="st5" d="M74.5,110.2c-22.1,27.4-38.1,59.9-45.9,95.5h35.3C86.2,120.5,163.9,57.4,256,57.4
	c90.3,0,166.8,60.6,190.8,143.3l-27.6,10.5l70.5,57.4l14.3-89.8l-25,9.6C449.8,92.9,360.9,23.1,256,23.1
	c-64.5,0-122.9,26.3-165.1,68.8"/>
<path class="st4" d="M483.4,298.2h-35.3c-3.7,0-6.9,2.5-7.8,6C418.4,388,342.6,446.5,256,446.5c-81.8,0-155.1-53.3-180.8-130.4
	l20.5-7.8c2.7-1,4.6-3.4,5.1-6.3c0.5-2.8-0.6-5.7-2.9-7.5l-70.5-57.4c-2.2-1.8-5.3-2.3-8-1.3s-4.6,3.4-5.1,6.3L0.1,331.8
	c-0.5,2.8,0.6,5.7,2.9,7.5c2.2,1.8,5.3,2.3,8,1.3l17.1-6.5c15.5,45.1,44.8,85.5,83.2,114.4c42,31.7,92.1,48.5,144.8,48.5
	c64.5,0,125.2-25.3,170.8-71.2c3.1-3.2,3.1-8.3,0-11.4c-3.2-3.1-8.3-3.1-11.4,0c-42.6,42.8-99.2,66.4-159.4,66.4
	C158,480.8,69.5,415.2,41,321.2c-0.7-2.1-2.2-3.9-4.2-4.9s-4.3-1.1-6.4-0.3l-12,4.6l9.9-62.1l48.8,39.7l-14.6,5.6
	c-3.9,1.5-6,5.8-4.9,9.8c12.2,42.1,38.3,80.1,73.4,106.8c36.3,27.7,79.5,42.3,125.2,42.3c91.8,0,172.5-60.7,198.3-148.3h18.8
	c-8.1,29.8-22.4,58.1-41.9,82.3c-2.8,3.5-2.2,8.6,1.2,11.4c3.5,2.8,8.6,2.2,11.4-1.2c23.2-28.8,39.6-62.9,47.5-98.8
	c0.5-2.4-0.1-4.9-1.6-6.8C488.2,299.3,485.9,298.2,483.4,298.2z"/>
<path class="st4" d="M509,172.6c-2.2-1.8-5.3-2.3-8-1.3l-17.1,6.5c-15.5-45.1-44.8-85.5-83.2-114.4C358.7,31.8,308.7,15,256,15
	c-64.5,0-125.2,25.3-170.8,71.2c-3.1,3.2-3.1,8.3,0,11.4c3.2,3.1,8.3,3.1,11.4,0c42.6-42.8,99.2-66.4,159.4-66.4
	c98.1,0,186.6,65.6,215.1,159.6c0.7,2.1,2.2,3.9,4.2,4.9s4.3,1.1,6.4,0.3l12-4.6l-9.9,62.1L435,213.8l14.6-5.6
	c3.9-1.5,6-5.8,4.9-9.8c-12.2-42.1-38.3-80.1-73.4-106.8C344.9,63.9,301.6,49.3,256,49.3c-91.8,0-172.5,60.7-198.3,148.3H38.9
	c8.1-29.8,22.4-58.1,41.9-82.3c2.8-3.5,2.2-8.6-1.2-11.4c-3.5-2.8-8.6-2.2-11.4,1.2c-23.1,28.8-39.6,62.9-47.5,98.8
	c-0.5,2.4,0.1,4.9,1.6,6.8s3.9,3,6.3,3h35.3c3.7,0,6.9-2.5,7.8-6C93.6,124,169.4,65.5,256,65.5c81.8,0,155.1,53.3,180.8,130.4
	l-20.5,7.8c-2.7,1-4.6,3.4-5.1,6.3c-0.5,2.8,0.6,5.7,2.9,7.5l70.5,57.4c1.5,1.2,3.3,1.8,5.1,1.8c1,0,1.9-0.2,2.9-0.5
	c2.7-1,4.6-3.4,5.1-6.3l14.3-89.8C512.4,177.3,511.3,174.4,509,172.6z"/>
<path class="st4" d="M388.9,300.1v-37v-60.7v-37c0-4.5-3.6-8.1-8.1-8.1h-36.4h-175H133c-4.5,0-8.1,3.6-8.1,8.1v37v62.3
	c-4.4,9.4-6.9,19.9-6.9,31c0,40.3,32.8,73,73,73c36,0,66.1-26.3,72-60.6h81.4h36.4C385.3,308.2,388.9,304.6,388.9,300.1z M336.9,292
	h-72.8c-0.1-1.2-0.2-2.5-0.3-3.7c0-0.3-0.1-0.6-0.1-0.9c-0.1-0.9-0.2-1.8-0.3-2.7c-0.1-0.4-0.1-0.8-0.2-1.2
	c-0.1-0.8-0.3-1.5-0.4-2.3c-0.1-0.4-0.2-0.9-0.3-1.3c-0.2-0.7-0.3-1.4-0.5-2.1c-0.1-0.5-0.3-0.9-0.4-1.4c0,0,0,0,0-0.1
	c22-2.3,39.2-20.9,39.2-43.5c0-24.1-19.6-43.8-43.7-43.8c-21.9,0-40.1,16.2-43.3,37.3c-0.4-0.1-0.8-0.3-1.2-0.4
	c-0.6-0.2-1.3-0.4-1.9-0.5c-0.5-0.1-1-0.3-1.5-0.4c-0.6-0.2-1.3-0.3-2-0.5c-0.5-0.1-1-0.2-1.5-0.3c-0.7-0.1-1.4-0.2-2-0.4
	c-0.5-0.1-1-0.2-1.5-0.3c-0.7-0.1-1.4-0.2-2.2-0.3c-0.5-0.1-0.9-0.1-1.4-0.2c-0.8-0.1-1.6-0.1-2.4-0.2c-0.4,0-0.8-0.1-1.2-0.1
	c-1.2-0.1-2.5-0.1-3.7-0.1s-2.5,0-3.7,0.1c-0.3,0-0.6,0-0.9,0.1c-0.9,0.1-1.9,0.1-2.8,0.2c-0.2,0-0.5,0.1-0.7,0.1
	c-1,0.1-2,0.2-3,0.4c-0.1,0-0.2,0-0.4,0.1c-14.6,2.3-28,8.9-38.6,18.8v-32.5c18.4-3.1,33-17.9,35.9-36.4h159.8
	c2.9,18.5,17.4,33.3,35.9,36.4v45.7C354.3,258.8,339.8,273.5,336.9,292z M255,260.3c-2.5-4.4-5.4-8.6-8.7-12.4
	c0-0.1-0.1-0.1-0.1-0.2c-1.1-1.2-2.2-2.4-3.3-3.6c0,0,0,0-0.1-0.1c-0.4-0.4-0.8-0.7-1.1-1.1c-0.1-0.1-0.1-0.1-0.2-0.2
	c-3.7-3.5-7.7-6.6-12-9.3c0-0.3,0-0.5,0-0.8c0-15.2,12.4-27.6,27.6-27.6c15.2,0,27.6,12.4,27.6,27.6c0,15.2-12.4,27.6-27.6,27.6
	C256.3,260.4,255.7,260.4,255,260.3z M372.8,173.5v19.9c-9.5-2.6-17-10.3-19.4-19.9H372.8z M141.2,173.5h19.4
	c-2.4,9.6-9.9,17.2-19.4,19.9V173.5z M191.1,352.7c-31.4,0-56.9-25.5-56.9-56.9c0-28.4,20.9-52,48.2-56.2h0.1
	c0.9-0.1,1.9-0.3,2.8-0.4c0,0,0,0,0.1,0c0.8-0.1,1.7-0.1,2.5-0.2c0.2,0,0.4,0,0.6,0c0.9,0,1.7-0.1,2.6-0.1
	c14.7,0,28.1,5.6,38.2,14.8c0.1,0,0.1,0.1,0.1,0.1c0.6,0.5,1.2,1.1,1.7,1.6c0.1,0.1,0.2,0.2,0.3,0.3c0.5,0.5,1,1.1,1.5,1.6
	c0.1,0.1,0.2,0.2,0.3,0.3c9.1,10.1,14.7,23.5,14.7,38.1c0,0.8,0,1.5-0.1,2.3c0,0.5,0,1-0.1,1.5l0,0
	C245.9,329.2,221.2,352.7,191.1,352.7z M372.8,292h-19.4c2.4-9.6,9.9-17.2,19.4-19.9V292z"/>
<path class="st4" d="M372,345h-96.2c-4.5,0-8.1,3.6-8.1,8.1s3.6,8.1,8.1,8.1H372c4.5,0,8.1-3.6,8.1-8.1S376.5,345,372,345z"/>
<path class="st4" d="M372,318.9h-96.2c-4.5,0-8.1,3.6-8.1,8.1s3.6,8.1,8.1,8.1H372c4.5,0,8.1-3.6,8.1-8.1S376.5,318.9,372,318.9z"/>
<path class="st4" d="M209.2,294.7c-1.5-1.3-3.4-2.4-5.5-3.3c-2.2-0.9-4.6-1.7-7.3-2.4l-2.5-0.6v-10.8c1.5,0.2,3,0.6,4.4,1.1
	c1.5,0.5,2.8,1,4,1.6s2.2,1.1,2.9,1.6c0.8,0.5,1.2,0.8,1.4,1l5.7-10.8c-2.2-1.3-4.9-2.5-7.9-3.7s-6.3-2-9.7-2.3v-8h-5.5v8
	c-2.5,0.3-4.9,0.8-7.1,1.7c-2.2,0.9-4.1,2.1-5.7,3.6c-1.6,1.5-2.9,3.4-3.9,5.5s-1.4,4.6-1.4,7.4c0,2.1,0.3,4,0.9,5.6
	c0.6,1.6,1.5,3,2.8,4.2c1.2,1.2,2.8,2.3,4.7,3.2c1.9,0.9,4.2,1.8,6.8,2.6l3.8,1.1v10.6c-1.9-0.3-3.8-0.7-5.6-1.3
	c-1.8-0.6-3.4-1.2-4.9-1.9c-1.4-0.7-2.6-1.3-3.5-1.9s-1.5-1-1.7-1.3l-5.7,11.4c2.9,1.9,6.1,3.4,9.7,4.6c3.6,1.2,7.2,1.9,10.9,2.2
	v9.3h5.5v-9.2c2.5-0.1,5-0.5,7.3-1.2s4.3-1.7,6.1-3.1s3.2-3.1,4.3-5.2s1.6-4.7,1.6-7.7c0-2.6-0.4-4.8-1.2-6.7
	C211.9,297.5,210.7,296,209.2,294.7z M190.1,287.2c-1.9-0.6-3.2-1.3-4.2-2c-0.9-0.8-1.4-1.8-1.4-3.1c0-2.8,1.9-4.3,5.6-4.6
	L190.1,287.2L190.1,287.2z M193.8,311.6V302c1.9,0.6,3.3,1.3,4.5,2.1c1.1,0.8,1.7,1.8,1.7,3.2C199.9,310,197.9,311.4,193.8,311.6z"
	/>
<g class="st3">
	<rect x="136.6" y="169.1" class="st4" width="22" height="74.2"/>
</g>
<rect x="-495.9" y="201" class="st5" width="68.1" height="68.1"/>
<rect x="-409.9" y="201" class="st0" width="68.1" height="68.1"/>
<rect x="-322.9" y="201" class="st1" width="68.1" height="68.1"/>
</svg>
