<?xml version="1.0" encoding="utf-8"?>
<!-- Generator: Adobe Illustrator 24.1.1, SVG Export Plug-In . SVG Version: 6.00 Build 0)  -->
<svg version="1.1" id="Layer_1" xmlns="http://www.w3.org/2000/svg" xmlns:xlink="http://www.w3.org/1999/xlink" x="0px" y="0px"
	 viewBox="0 0 512 512" style="enable-background:new 0 0 512 512;" xml:space="preserve">
<style type="text/css">
	.st0{fill:#03B68C;}
	.st1{opacity:0.1;}
	.st2{fill:#231F20;}
	.st3{fill:#FFFFFF;}
	.st4{fill:#CCCACA;}
	.st5{fill:#5BC2A6;}
	.st6{fill:#058175;}
</style>
<path class="st0" d="M369.3,338.8c-78.6-29.1-134.6-104.7-134.6-193.4v-26.8c-10.6-1.8-21.4-2.7-32.5-2.7
	c-65.7,0-123.8,32.7-158.9,82.7l0,0c-0.6,0.8-1.1,1.6-1.7,2.5c-0.1,0.2-0.2,0.3-0.3,0.5c-0.8,1.2-1.5,2.3-2.3,3.5
	c-0.2,0.4-0.5,0.7-0.7,1.1c-0.5,0.8-1.1,1.7-1.6,2.5c-0.3,0.4-0.5,0.8-0.8,1.2c-0.5,0.9-1.1,1.8-1.6,2.7c-0.2,0.3-0.4,0.6-0.6,1
	c-0.7,1.2-1.4,2.4-2,3.7c-0.2,0.3-0.3,0.6-0.5,0.9c-0.5,0.9-1,1.9-1.5,2.9c-0.2,0.4-0.4,0.9-0.7,1.3c-0.5,0.9-0.9,1.8-1.3,2.7
	c-0.2,0.4-0.4,0.8-0.6,1.2c-0.6,1.3-1.2,2.6-1.8,3.8c0,0.1-0.1,0.2-0.1,0.3c-0.5,1.2-1.1,2.4-1.6,3.6c-0.2,0.4-0.4,0.8-0.5,1.3
	c-0.4,0.9-0.8,1.9-1.1,2.8c-0.2,0.4-0.4,0.9-0.5,1.3c-0.4,1.1-0.8,2.1-1.2,3.2c-0.1,0.3-0.2,0.6-0.3,0.9c-0.5,1.3-1,2.7-1.4,4
	c-0.1,0.4-0.2,0.7-0.4,1.1c-0.3,1-0.7,2-1,3c-0.1,0.5-0.3,0.9-0.4,1.4c-0.3,1-0.6,2-0.9,3c-0.1,0.4-0.2,0.8-0.3,1.2
	c-0.4,1.4-0.8,2.8-1.1,4.2c-0.1,0.2-0.1,0.4-0.2,0.7c-0.3,1.2-0.6,2.4-0.9,3.6c-0.1,0.5-0.2,0.9-0.3,1.4c-0.2,1-0.4,2-0.7,3
	c-0.1,0.5-0.2,0.9-0.3,1.4c-0.3,1.2-0.5,2.5-0.7,3.8c0,0.2-0.1,0.4-0.1,0.6c-0.3,1.4-0.5,2.9-0.7,4.3c-0.1,0.4-0.1,0.8-0.2,1.3
	c-0.2,1.1-0.3,2.1-0.4,3.2c-0.1,0.5-0.1,1-0.2,1.5c-0.1,1.1-0.3,2.2-0.4,3.3c0,0.4-0.1,0.7-0.1,1.1c-0.1,1.5-0.3,2.9-0.4,4.4
	c0,0.3,0,0.6-0.1,1c-0.1,1.2-0.2,2.4-0.2,3.5c0,0.5,0,1-0.1,1.5c0,1.1-0.1,2.2-0.1,3.2c0,0.5,0,0.9,0,1.4c0,1.5-0.1,3-0.1,4.5
	c0,107.2,86.9,194,194,194c101.4,0,184.6-77.8,193.3-176.9C387,331.5,378.3,335.4,369.3,338.8z"/>
<g class="st1">
	<path class="st2" d="M394,338.6c0.6-3.8,1-7.7,1.4-11.6c-4.4,2.4-8.9,4.6-13.5,6.6C385.9,335.4,389.9,337,394,338.6z"/>
	<path class="st2" d="M33.4,309.9c0-1.5,0-3,0.1-4.5c0-0.5,0-0.9,0-1.4c0-1.1,0.1-2.2,0.1-3.2c0-0.5,0-1,0.1-1.5
		c0.1-1.2,0.1-2.4,0.2-3.5c0-0.3,0-0.6,0.1-1c0.1-1.5,0.2-3,0.4-4.4c0-0.4,0.1-0.7,0.1-1.1c0.1-1.1,0.2-2.2,0.4-3.3
		c0.1-0.5,0.1-1,0.2-1.5c0.1-1.1,0.3-2.1,0.4-3.2c0.1-0.4,0.1-0.8,0.2-1.3c0.2-1.5,0.5-2.9,0.7-4.3c0-0.2,0.1-0.4,0.1-0.6
		c0.2-1.3,0.5-2.5,0.7-3.8c0.1-0.5,0.2-0.9,0.3-1.4c0.2-1,0.4-2,0.7-3c0.1-0.5,0.2-0.9,0.3-1.4c0.3-1.2,0.6-2.4,0.9-3.6
		c0.1-0.2,0.1-0.4,0.2-0.7c0.4-1.4,0.7-2.8,1.1-4.2c0.1-0.4,0.2-0.8,0.3-1.2c0.3-1,0.6-2,0.9-3c0.1-0.5,0.3-0.9,0.4-1.4
		c0.3-1,0.7-2,1-3c0.1-0.4,0.2-0.7,0.4-1.1c0.5-1.4,0.9-2.7,1.4-4c0.1-0.3,0.2-0.6,0.3-0.9c0.4-1.1,0.8-2.1,1.2-3.2
		c0.2-0.4,0.4-0.9,0.5-1.3c0.4-0.9,0.8-1.9,1.1-2.8c0.2-0.4,0.3-0.8,0.5-1.3c0.5-1.2,1.1-2.4,1.6-3.6c0-0.1,0.1-0.2,0.1-0.3
		c0.6-1.3,1.2-2.6,1.8-3.8c0.2-0.4,0.4-0.8,0.6-1.2c0.4-0.9,0.9-1.8,1.3-2.7c0.2-0.4,0.4-0.9,0.7-1.3c0.5-1,1-1.9,1.5-2.9
		c0.2-0.3,0.3-0.6,0.5-0.9c0.7-1.2,1.4-2.4,2-3.7c0.2-0.3,0.4-0.6,0.6-1c0.5-0.9,1.1-1.8,1.6-2.7c0.3-0.4,0.5-0.8,0.8-1.2
		c0.5-0.8,1-1.7,1.6-2.5c0.2-0.4,0.5-0.7,0.7-1.1c0.8-1.2,1.5-2.3,2.3-3.5c0.1-0.2,0.2-0.3,0.3-0.5c0.6-0.8,1.1-1.6,1.7-2.5l0,0
		c32.8-46.8,85.7-78.4,146.2-82.3c-4.2-0.3-8.4-0.4-12.6-0.4c-65.7,0-123.8,32.7-158.9,82.7l0,0c-0.6,0.8-1.1,1.6-1.7,2.5
		c-0.1,0.2-0.2,0.3-0.3,0.5c-0.8,1.2-1.5,2.3-2.3,3.5c-0.2,0.4-0.5,0.7-0.7,1.1c-0.5,0.8-1.1,1.7-1.6,2.5c-0.3,0.4-0.5,0.8-0.8,1.2
		c-0.5,0.9-1.1,1.8-1.6,2.7c-0.2,0.3-0.4,0.6-0.6,1c-0.7,1.2-1.4,2.4-2,3.7c-0.2,0.3-0.3,0.6-0.5,0.9c-0.5,0.9-1,1.9-1.5,2.9
		c-0.2,0.4-0.4,0.9-0.7,1.3c-0.5,0.9-0.9,1.8-1.3,2.7c-0.2,0.4-0.4,0.8-0.6,1.2c-0.6,1.3-1.2,2.6-1.8,3.8c0,0.1-0.1,0.2-0.1,0.3
		c-0.5,1.2-1.1,2.4-1.6,3.6c-0.2,0.4-0.4,0.8-0.5,1.3c-0.4,0.9-0.8,1.9-1.1,2.8c-0.2,0.4-0.4,0.9-0.5,1.3c-0.4,1.1-0.8,2.1-1.2,3.2
		c-0.1,0.3-0.2,0.6-0.3,0.9c-0.5,1.3-1,2.7-1.4,4c-0.1,0.4-0.2,0.7-0.4,1.1c-0.3,1-0.7,2-1,3c-0.1,0.5-0.3,0.9-0.4,1.4
		c-0.3,1-0.6,2-0.9,3c-0.1,0.4-0.2,0.8-0.3,1.2c-0.4,1.4-0.8,2.8-1.1,4.2c-0.1,0.2-0.1,0.4-0.2,0.7c-0.3,1.2-0.6,2.4-0.9,3.6
		c-0.1,0.5-0.2,0.9-0.3,1.4c-0.2,1-0.4,2-0.7,3c-0.1,0.5-0.2,0.9-0.3,1.4c-0.3,1.2-0.5,2.5-0.7,3.8c0,0.2-0.1,0.4-0.1,0.6
		c-0.3,1.4-0.5,2.9-0.7,4.3c-0.1,0.4-0.1,0.8-0.2,1.3c-0.2,1.1-0.3,2.1-0.4,3.2c-0.1,0.5-0.1,1-0.2,1.5c-0.1,1.1-0.3,2.2-0.4,3.3
		c0,0.4-0.1,0.7-0.1,1.1c-0.1,1.5-0.3,2.9-0.4,4.4c0,0.3,0,0.6-0.1,1c-0.1,1.2-0.2,2.4-0.2,3.5c0,0.5,0,1-0.1,1.5
		c0,1.1-0.1,2.2-0.1,3.2c0,0.5,0,0.9,0,1.4c0,1.5-0.1,3-0.1,4.5c0,107.2,86.9,194,194,194c4.3,0,8.5-0.1,12.7-0.4
		C113.5,497,33.4,412.8,33.4,309.9z"/>
</g>
<g>
	<circle class="st3" cx="91.8" cy="307.5" r="15.9"/>
	<circle class="st3" cx="201.9" cy="236.7" r="15.9"/>
	<circle class="st3" cx="201.9" cy="383.1" r="15.9"/>
</g>
<path class="st4" d="M503.9,104.4V33.7c-12.6,3.1-25.8,4.8-39.4,4.8c-35.5,0-66.8-11.2-93.7-30.4c-26.9,19.1-61.3,30.4-96.8,30.4
	c-13.6,0-26.8-1.7-39.4-4.8v111.7c0,88.7,56,164.3,134.6,193.4c78.6-29.1,134.6-104.7,134.6-193.4V131"/>
<path class="st5" d="M369.3,44.4c-51,27.3-104.8,23.2-104.8,23.2v15.1v32.5v20.7v11.3c0,69.1,43.6,135.4,104.8,158
	c61.2-22.6,104.8-88.9,104.8-158v-11.3v-20.7V82.6V67.5C474.1,67.5,420.3,71.7,369.3,44.4z"/>
<g class="st1">
	<path class="st2" d="M290,147.1v-11.3v-20.7V82.6V68.4h-7.3v-0.9c-11.3,0.6-18.2,0-18.2,0v15.1v32.5v20.7v11.3
		c0,69.1,43.6,135.4,104.8,158c4.3-1.6,8.6-3.4,12.7-5.5C327.6,273,290,211.2,290,147.1z"/>
</g>
<path class="st6" d="M364.5,209.2c-4.1,0-8-1.6-10.9-4.5l-29.3-29.6c-5.9-6-5.9-15.7,0.1-21.6c6-5.9,15.7-5.9,21.6,0.1l17.9,18.1
	l37.7-41.4c5.7-6.3,15.4-6.7,21.6-1c6.3,5.7,6.7,15.4,1,21.6l-48.5,53.3c-2.8,3.1-6.8,4.9-11,5C364.7,209.2,364.6,209.2,364.5,209.2
	z"/>
<g>
	<path class="st2" d="M503.9,112.5c4.5,0,8.1-3.6,8.1-8.1V33.7c0-2.5-1.1-4.8-3.1-6.4c-2-1.5-4.5-2.1-6.9-1.5
		c-12.2,3-24.8,4.5-37.5,4.5c-32.1,0-62.1-9.7-89-28.9c-2.8-2-6.6-2-9.4,0C340,20.1,307.2,30.3,274,30.3c-12.6,0-25.2-1.5-37.5-4.5
		c-2.4-0.6-5,0-6.9,1.5c-2,1.5-3.1,3.9-3.1,6.4v75.6c-8.1-1-16.3-1.5-24.4-1.5c0,0-0.1,0-0.1,0c0,0-0.1,0-0.1,0c-0.1,0-0.1,0-0.2,0
		c-32.1,0.1-62.7,7.4-91.1,21.8c-11.1,5.6-21.7,12.4-31.6,20c-0.2,0.1-0.4,0.3-0.6,0.4c-1.2,0.9-2.4,1.9-3.6,2.9
		c-0.5,0.4-0.9,0.8-1.4,1.1c-0.9,0.8-1.8,1.5-2.7,2.3c-0.7,0.6-1.4,1.2-2,1.7c-0.7,0.6-1.4,1.2-2,1.8c-0.8,0.7-1.6,1.5-2.4,2.2
		c-0.5,0.5-1.1,1-1.6,1.5c-0.9,0.9-1.8,1.7-2.7,2.6c-0.4,0.4-0.9,0.9-1.3,1.3c-0.9,0.9-1.9,1.9-2.8,2.8c-0.4,0.5-0.9,0.9-1.3,1.4
		c-0.9,1-1.8,1.9-2.7,2.9c-0.7,0.7-1.3,1.5-2,2.3c-0.6,0.7-1.2,1.4-1.9,2.1c-1.3,1.5-2.5,3-3.8,4.6c-0.2,0.3-0.4,0.5-0.6,0.8
		c-0.9,1.2-1.9,2.4-2.8,3.6c0,0-0.1,0.1-0.1,0.1c-1.3,1.8-2.6,3.5-3.9,5.3c-0.1,0.1-0.2,0.2-0.3,0.4c-0.6,0.8-1.2,1.7-1.8,2.6
		l-0.3,0.5c-0.8,1.2-1.6,2.4-2.4,3.7l-0.7,1.1c-0.6,0.9-1.1,1.8-1.6,2.6c-0.3,0.4-0.5,0.9-0.8,1.3c-0.6,0.9-1.1,1.9-1.7,2.8l-0.6,1
		c-0.7,1.3-1.4,2.5-2.1,3.8c-0.1,0.2-0.2,0.4-0.3,0.6l-0.2,0.4c-0.5,1-1.1,2-1.6,3c-0.2,0.3-0.4,0.7-0.5,1l-0.2,0.3
		c-0.5,0.9-0.9,1.9-1.4,2.8l-0.6,1.3c-0.6,1.3-1.3,2.7-1.9,4.1l-0.1,0.2c-0.6,1.3-1.1,2.5-1.7,3.8l-0.5,1.3c-0.4,1-0.8,1.9-1.2,2.9
		l-0.5,1.4c-0.4,1.1-0.8,2.2-1.3,3.3l-0.3,0.9c-0.5,1.4-1,2.8-1.5,4.2c-0.1,0.3-0.2,0.6-0.3,0.9l-0.1,0.3c-0.4,1.1-0.7,2.1-1,3.2
		c-0.2,0.5-0.3,1-0.5,1.4c-0.3,1-0.6,2.1-0.9,3.2l-0.4,1.2c-0.4,1.4-0.8,2.9-1.2,4.3L6.2,260c-0.3,1.2-0.6,2.5-0.9,3.8L5,265.1
		c-0.2,1-0.5,2.1-0.7,3.2L4,269.7c-0.3,1.3-0.5,2.6-0.8,3.9l-0.1,0.6c-0.3,1.5-0.5,3-0.7,4.5c-0.1,0.3-0.1,0.7-0.2,1l0,0.3
		c-0.2,1.1-0.3,2.2-0.5,3.3c-0.1,0.5-0.1,1-0.2,1.5c-0.1,1.2-0.3,2.3-0.4,3.5L1,289.5c-0.2,1.5-0.3,3.1-0.4,4.7l-0.1,1
		c-0.1,1.2-0.2,2.4-0.2,3.7l-0.1,1.5c-0.1,1.1-0.1,2.2-0.1,3.3c0,0.5,0,1,0,1.4c0,0.6,0,1.2,0,1.8c0,0.2,0,0.5,0,0.7
		c0,0.1,0,0.3,0,0.4c0,0.6,0,1.1,0,1.7c0,45.3,15,87.2,40.3,120.9c0.2,0.3,0.4,0.6,0.6,0.9c18.5,24.4,42.6,44.6,69.8,58.4
		c22.3,11.4,46.1,18.3,70.8,20.8c0,0,0.1,0,0.1,0c1.5,0.2,3,0.3,4.6,0.4c0.5,0,0.9,0.1,1.4,0.1c1.2,0.1,2.4,0.2,3.7,0.2
		c0.9,0,1.8,0.1,2.7,0.1c0.9,0,1.8,0.1,2.7,0.1c1.7,0,3.4,0.1,5.1,0.1c0.1,0,0.2,0,0.3,0c0,0,0,0,0.1,0c0,0,0.1,0,0.1,0
		c1.8,0,3.6,0,5.4-0.1c0.8,0,1.5-0.1,2.3-0.1c1,0,1.9-0.1,2.8-0.1c1-0.1,2.1-0.1,3.1-0.2c0.5,0,1-0.1,1.5-0.1
		c21.6-1.6,42.4-6.5,62.3-14.8c0.3-0.1,0.7-0.3,1-0.4c1.1-0.5,2.2-0.9,3.3-1.4c0.9-0.4,1.8-0.8,2.7-1.2c0.6-0.3,1.3-0.6,1.9-0.9
		c1.6-0.8,3.2-1.5,4.8-2.4c0.1-0.1,0.2-0.1,0.4-0.2c0.3-0.1,0.6-0.3,0.9-0.5c1.2-0.6,2.4-1.3,3.6-1.9c0.4-0.2,0.7-0.4,1.1-0.6
		c1.4-0.8,2.8-1.6,4.2-2.4c0.1-0.1,0.2-0.1,0.4-0.2c12.5-7.3,24.4-16,35.2-26c7.5-6.9,14.5-14.4,20.8-22.2c0-0.1,0.1-0.1,0.1-0.2
		c23.9-29.8,38.9-65.8,43.1-104.1c27.4-15.4,51.2-36.8,69.7-62.9c25.7-36.3,39.3-79.1,39.3-123.7V131c0-4.5-3.6-8.1-8.1-8.1
		s-8.1,3.6-8.1,8.1v14.5c0,73.4-41.2,140.6-104.7,174.7c-1.6,0.9-3.3,1.7-5,2.6c0,0-0.1,0-0.1,0.1c-1.7,0.9-3.5,1.7-5.3,2.5
		c-0.1,0-0.2,0.1-0.3,0.1c-1.7,0.8-3.5,1.6-5.2,2.3c-0.3,0.1-0.5,0.2-0.8,0.3c-1.7,0.7-3.5,1.4-5.2,2.1c-17.6-6.8-33.8-16-48.3-27.1
		c-0.9-1.2-2.1-2.2-3.6-2.8c-38.5-30.8-64.7-75.3-72.3-124.7c-0.2-1.2-0.4-2.5-0.5-3.7c-0.5-3.7-0.9-7.4-1.2-11.2
		c0-0.2,0-0.5-0.1-0.7c-0.1-1.6-0.2-3.2-0.3-4.8c-0.1-1.1-0.1-2.2-0.1-3.2c0-0.5,0-1.1,0-1.6c0-1.6-0.1-3.3-0.1-4.9v-20.8v-6v0V43.7
		c10.3,1.9,20.8,2.8,31.3,2.8c34.6,0,68.7-10.1,96.8-28.6c28.5,19,60,28.6,93.7,28.6c10.5,0,21-1,31.3-2.8v60.7
		C495.8,108.8,499.5,112.5,503.9,112.5z M16.3,315.8h53c2.5,6.8,8.1,12.1,15,14.4c1.3,21.9,4.6,43.1,9.8,62.9
		c-16.7,6.1-31.8,13.7-44.9,22.4C29.4,387.1,17.4,352.8,16.3,315.8z M60.1,189.9c0.1-0.1,0.2-0.2,0.3-0.4
		c22.4-26.3,51.5-45.7,83.8-56.3c-15.7,14.9-29.4,36-39.9,62c0,0.1-0.1,0.2-0.1,0.3c-0.3,0.7-0.6,1.5-0.9,2.2l-0.3,0.8
		c-0.5,1.2-0.9,2.4-1.4,3.7l-0.4,1.1c-0.3,0.9-0.6,1.7-0.9,2.6l-0.4,1.3c-0.3,0.9-0.6,1.9-1,2.9l-0.3,0.9c0,0,0,0.1,0,0.1
		C83.9,205.6,70.5,199,59,191.3C59.3,190.8,59.7,190.4,60.1,189.9z M226.6,150.2c0,0.3,0,0.6,0,0.9c0,0.4,0,0.7,0,1
		c0,0.9,0.1,1.8,0.1,2.7c0,0.7,0.1,1.3,0.1,2c0,0.2,0,0.4,0,0.7c0,0.7,0.1,1.3,0.1,2c0,0.7,0.1,1.5,0.1,2.2c0,0.4,0.1,0.8,0.1,1.2
		c0,0.3,0.1,0.7,0.1,1c0,0,0,0.1,0,0.1c0.1,1.6,0.3,3.1,0.5,4.7c0,0.2,0.1,0.5,0.1,0.7c0,0.3,0.1,0.7,0.1,1c0.1,1,0.2,2,0.4,3
		c0.1,0.5,0.1,1,0.2,1.5c0,0.1,0,0.1,0,0.2c0.1,0.9,0.3,1.9,0.4,2.8c0.1,0.5,0.1,0.9,0.2,1.4c0.2,1,0.3,2.1,0.5,3.1
		c0,0.2,0.1,0.4,0.1,0.7c0.3,2,0.7,3.9,1.1,5.9c0.1,0.7,0.3,1.3,0.4,2c0.1,0.5,0.2,0.9,0.3,1.4c0,0.2,0.1,0.4,0.1,0.5
		c0,0.1,0,0.2,0.1,0.3c0.2,0.9,0.4,1.7,0.6,2.6c0.1,0.6,0.3,1.2,0.4,1.8c0.1,0.3,0.1,0.6,0.2,0.8c0.2,0.9,0.5,1.9,0.7,2.8
		c0.1,0.2,0.1,0.5,0.2,0.7c0.1,0.4,0.2,0.8,0.3,1.2c0.2,0.6,0.4,1.3,0.6,1.9c0.3,1,0.6,1.9,0.8,2.8c0.2,0.8,0.5,1.6,0.7,2.3
		c0.2,0.7,0.4,1.4,0.7,2c0.6,1.8,1.2,3.5,1.8,5.3c0.1,0.3,0.2,0.6,0.3,0.9c0.9,2.6,1.9,5.2,3,7.8c-6,0.7-12,1.3-18,1.7
		c-2.5-6.3-7.6-11.3-14-13.7v-89.6c5.5,0.8,11,2.5,16.4,5v15.9C226.5,147,226.6,148.6,226.6,150.2z M280.6,287.7
		c0.3,0.3,0.5,0.6,0.8,0.9c0.6,0.7,1.2,1.3,1.8,2c2.9,3.1,5.9,6.2,8.9,9.2h-81.9v-40.4c6.9-2.5,12.3-8.2,14.6-15.2
		c8.2-0.5,16.4-1.4,24.5-2.5C257.6,258.2,268.1,273.6,280.6,287.7z M113.9,216.3c0-0.1,0-0.1,0.1-0.2l0.3-0.9
		c0.3-0.9,0.6-1.8,0.9-2.6l0.4-1.2c0.3-0.8,0.6-1.6,0.9-2.4l0.4-1.1c0.4-1.1,0.8-2.3,1.2-3.3l0.3-0.8c0.2-0.6,0.5-1.2,0.7-1.8
		c0-0.1,0.1-0.2,0.1-0.3c17.8-44.6,45.3-72.7,74.8-77v89.6c-6.6,2.3-11.8,7.4-14.4,13.8C156.5,226.3,134.2,222.3,113.9,216.3z
		 M194.1,236.6c0.1-3.9,3.2-7.2,7-7.6c0.3,0,0.5,0,0.8,0c4.2,0,7.7,3.4,7.8,7.6c0,0.1,0,0.1,0,0.2c0,4.3-3.5,7.8-7.8,7.8
		c-4.3,0-7.8-3.5-7.8-7.8C194.1,236.7,194.1,236.6,194.1,236.6z M100.8,285c0.1-1,0.2-2.1,0.3-3.2c0-0.4,0.1-0.8,0.1-1.2
		c0.1-1.4,0.3-2.8,0.4-4.3l0-0.4c0.1-1.2,0.3-2.5,0.4-3.7l0.2-1.3c0.1-1,0.2-2,0.4-3l0.2-1.3c0.2-1.2,0.3-2.3,0.5-3.5l0.1-0.6
		c0.2-1.4,0.4-2.7,0.6-4l0.2-1.2c0.2-1,0.3-2,0.5-2.9l0.2-1.3c0.2-1,0.4-2,0.5-3l0.2-1.1c0.3-1.3,0.5-2.6,0.8-3.9l0.2-0.8
		c0.2-1,0.4-2.1,0.7-3.1l0.3-1.3c0.2-0.9,0.4-1.8,0.6-2.7l0.3-1.2c0.3-1.2,0.6-2.4,0.9-3.5l0.1-0.3c0-0.1,0-0.2,0.1-0.3
		c21.6,6.5,45.2,10.7,69.7,12.3c2.3,7.1,7.9,12.8,14.9,15.3v40.3h-79.5c-2.2-6.6-7.2-11.9-13.7-14.4L100.8,285z M179.6,391.9
		c2.5,6.5,7.8,11.5,14.4,13.8v89.5c-22.3-3.2-43.5-20-60.5-48c-7.8-12.9-14.4-27.7-19.6-43.8C134.2,397.4,156.4,393.5,179.6,391.9z
		 M209.7,383.2c0,0.8-0.2,1.6-0.4,2.3c0,0.1,0,0.1-0.1,0.2c-0.1,0.2-0.1,0.3-0.2,0.5c-0.1,0.2-0.2,0.4-0.3,0.6c0,0,0,0,0,0
		c-1.3,2.4-3.9,4.1-6.9,4.1c-3,0-5.5-1.7-6.9-4.1c0,0,0-0.1,0-0.1c-0.1-0.2-0.2-0.4-0.3-0.5c-0.1-0.2-0.1-0.3-0.2-0.5
		c0,0,0-0.1-0.1-0.1c-0.2-0.7-0.4-1.5-0.4-2.3c0-0.1,0-0.1,0-0.2c0-4.3,3.5-7.8,7.8-7.8s7.8,3.5,7.8,7.8
		C209.7,383.1,209.7,383.2,209.7,383.2z M194,360.4c-7.1,2.5-12.6,8.2-14.9,15.3c-24.5,1.6-48.1,5.8-69.7,12.3
		c-4.7-18.3-7.7-37.9-9-58.2c6.4-2.5,11.4-7.6,13.8-14H194L194,360.4L194,360.4z M91.8,299.7c0.1,0,0.2,0,0.2,0
		c0.8,0,1.6,0.2,2.3,0.4c0,0,0,0,0,0c0.2,0.1,0.4,0.2,0.6,0.2c0.1,0,0.2,0.1,0.3,0.1c0.1,0.1,0.2,0.1,0.4,0.2
		c0.2,0.1,0.3,0.2,0.5,0.3c0,0,0.1,0,0.1,0.1c2.1,1.4,3.4,3.8,3.4,6.5c0,4.2-3.4,7.7-7.7,7.8c-0.1,0-0.1,0-0.2,0
		c-4.1,0-7.4-3.1-7.7-7.1c0-0.1,0-0.3,0-0.4c0-0.2,0-0.5,0-0.7C84.2,302.9,87.6,299.7,91.8,299.7z M98.6,408.7
		c5.6,17.2,12.7,33.1,21.1,47c7.4,12.2,15.6,22.5,24.4,30.9c-33.6-11.1-63-31.4-85.1-58.1C70.6,420.8,83.9,414.1,98.6,408.7z
		 M260,486.4c9.8-9.4,18.9-21.2,26.9-35.4c7.3-12.9,13.5-27.2,18.5-42.5c14.7,5.5,28.1,12.1,39.7,19.8
		C322.8,455,293.3,475.4,260,486.4z M272.8,443.1c-17.3,30.4-39.2,48.6-62.6,52.1v-89.6c6.4-2.4,11.5-7.4,14-13.7
		c23.2,1.5,45.5,5.5,65.8,11.6C285.3,417.8,279.6,431.1,272.8,443.1z M224.8,375.7c-2.3-7-7.7-12.6-14.6-15.2v-44.7h93.7
		c-0.4,25.3-3.7,49.7-9.4,72.1C272.9,381.5,249.3,377.3,224.8,375.7z M16.7,295.4c0.1-1.4,0.2-2.8,0.4-4.2l0.1-1.1
		c0.1-1.1,0.2-2.1,0.4-3.2c0.1-0.5,0.1-0.9,0.2-1.4c0.1-1,0.3-2,0.4-3.1l0.2-1.2c0.2-1.4,0.4-2.8,0.7-4.1l0.1-0.5
		c0.2-1.2,0.5-2.4,0.7-3.6l0.3-1.3c0.2-1,0.4-1.9,0.6-2.9l0.3-1.3c0.3-1.2,0.5-2.3,0.8-3.5l0.1-0.6c0.3-1.3,0.7-2.7,1.1-4l0.3-1.2
		c0.3-1,0.6-1.9,0.9-2.9c0.1-0.4,0.3-0.9,0.4-1.3c0.3-1,0.6-1.9,1-2.9l0.3-1c0.4-1.3,0.9-2.6,1.4-3.9l0.3-0.8c0.4-1,0.8-2,1.2-3
		l0.5-1.3c0.4-0.9,0.7-1.8,1.1-2.7l0.5-1.2c0.5-1.2,1-2.3,1.6-3.5l0.1-0.2c0.6-1.2,1.1-2.5,1.7-3.7l0.6-1.2c0.4-0.9,0.8-1.7,1.3-2.6
		l0.6-1.2c0.5-0.9,1-1.8,1.4-2.7l0.5-0.9c0.6-1.2,1.3-2.3,2-3.5l0.5-0.9c0.5-0.9,1-1.7,1.5-2.6c0.2-0.4,0.5-0.8,0.7-1.2
		c0.5-0.8,1-1.6,1.5-2.4l0.7-1.1c0.7-1.1,1.5-2.2,2.2-3.3l0.3-0.4c0.3-0.5,0.6-0.9,1-1.4c13.1,8.8,28.2,16.4,44.9,22.5
		c-0.1,0.4-0.2,0.9-0.4,1.3c0,0.1,0,0.1,0,0.2l0,0.1c-0.3,1.2-0.6,2.5-0.9,3.7l-0.3,1.3c-0.2,1-0.5,1.9-0.7,2.9l-0.3,1.4
		c-0.2,1.1-0.5,2.2-0.7,3.3l-0.2,0.9c-0.3,1.4-0.6,2.8-0.8,4.1l-0.2,1.1c-0.2,1-0.4,2.1-0.6,3.1l-0.3,1.4c-0.2,1-0.4,2.1-0.5,3.1
		l-0.2,1.2c-0.2,1.4-0.4,2.8-0.7,4.3l-0.1,0.7c-0.2,1.2-0.3,2.4-0.5,3.7l-0.2,1.4c-0.1,1-0.3,2.1-0.4,3.1l-0.2,1.4
		c-0.1,1.3-0.3,2.6-0.4,3.9l-0.1,0.5c-0.2,1.5-0.3,3-0.4,4.4c0,0.4-0.1,0.9-0.1,1.3c-0.1,1.1-0.2,2.2-0.3,3.2l-0.1,0.8
		c-7.3,2.3-13,7.9-15.5,15.1H16.5c0.1-1.1,0.1-2.2,0.2-3.3L16.7,295.4z M354.8,415.5c-13.1-8.8-28.3-16.3-45-22.4
		c5.8-22.1,9.2-46,10.1-70.7c14.4,9.8,30,17.9,46.6,24c0.9,0.3,1.9,0.5,2.8,0.5c1,0,1.9-0.2,2.8-0.5c0.1-0.1,0.3-0.1,0.4-0.2
		c1-0.4,2.1-0.8,3.1-1.2c0.8-0.3,1.5-0.6,2.3-0.9c0.4-0.1,0.7-0.3,1.1-0.4c2.2-0.9,4.4-1.8,6.5-2.8
		C380.8,368.2,370.1,393.6,354.8,415.5z"/>
	<path class="st2" d="M351.9,147.9c-4.4-4.5-10.3-6.9-16.6-6.9c-6.2,0-12,2.4-16.4,6.8c-4.4,4.4-6.9,10.3-6.9,16.5
		c0,6.2,2.4,12.1,6.8,16.6l29.3,29.6c4.4,4.4,10.4,6.9,16.6,6.9c0.2,0,0.4,0,0.5,0c6.4-0.1,12.5-2.9,16.8-7.6l48.5-53.3
		c4.2-4.6,6.4-10.6,6.1-16.8c-0.3-6.2-3-12-7.6-16.2c-4.3-3.9-9.9-6.1-15.7-6.1c-6.6,0-12.9,2.8-17.3,7.6l-31.9,35.1L351.9,147.9z
		 M370,177.1l37.7-41.4c1.4-1.5,3.3-2.4,5.3-2.4c1.8,0,3.5,0.7,4.9,1.9c1.4,1.3,2.3,3.1,2.4,5c0.1,1.9-0.6,3.8-1.9,5.2l-48.5,53.3
		c-1.3,1.5-3.2,2.3-5.2,2.4h-0.1c-1.9,0-3.8-0.8-5.1-2.1l-29.3-29.6c-1.4-1.4-2.1-3.2-2.1-5.1c0-1.9,0.8-3.7,2.1-5.1
		c1.4-1.3,3.2-2.1,5.1-2.1c1.9,0,3.8,0.8,5.1,2.1l17.9,18.1c1.6,1.6,3.7,2.5,5.9,2.4C366.4,179.7,368.5,178.8,370,177.1z"/>
	<path class="st2" d="M473.5,59.5c0,0-2.8,0.2-7.4,0.2c-15.4,0-55.1-2.2-92.9-22.4c-2.4-1.3-5.2-1.3-7.6,0
		c-37.8,20.2-77.6,22.4-92.9,22.4c-4.7,0-7.4-0.2-7.4-0.2c-2.3-0.2-4.5,0.6-6.1,2.1s-2.6,3.7-2.6,5.9v79.5
		c0,35,10.9,70.8,30.8,100.9c20,30.2,48.2,53.2,79.3,64.7c0.9,0.3,1.9,0.5,2.8,0.5s1.9-0.2,2.8-0.5c31.1-11.5,59.3-34.5,79.3-64.7
		c19.9-30,30.8-65.8,30.8-100.9V67.5c0-2.3-0.9-4.4-2.6-5.9C477.9,60.1,475.7,59.3,473.5,59.5z M466,147.1
		c0,64.8-40.5,127-96.7,149.3c-56.2-22.3-96.7-84.6-96.7-149.3V75.8c16.1,0,56.9-2.2,96.7-22.4c39.8,20.1,80.7,22.4,96.7,22.4V147.1
		z"/>
</g>
</svg>
