<?xml version="1.0" encoding="utf-8"?>
<!-- Generator: Adobe Illustrator 24.1.1, SVG Export Plug-In . SVG Version: 6.00 Build 0)  -->
<svg version="1.1" id="Layer_1" xmlns="http://www.w3.org/2000/svg" xmlns:xlink="http://www.w3.org/1999/xlink" x="0px" y="0px"
	 viewBox="0 0 512 512" style="enable-background:new 0 0 512 512;" xml:space="preserve">
<style type="text/css">
	.st0{fill:#5BC2A6;}
	.st1{fill:#3E495A;}
	.st2{fill:#738191;}
	.st3{fill:#F57555;}
	.st4{fill:#F4B846;}
	.st5{fill:#62B07E;}
	.st6{fill:#231F20;}
	.st7{opacity:0.1;}
</style>
<path class="st0" d="M90,503.1H63.1C32.7,503.1,8,478.4,8,448V62.2C8,31.8,32.7,7.1,63.1,7.1h385.7c30.4,0,55.1,24.7,55.1,55.1V448
	c0,30.4-24.7,55.1-55.1,55.1H116.8"/>
<path class="st1" d="M448.9,8H63.1C32.7,8,8,32.7,8,63.1v48.8H504V63.1C504,32.7,479.3,8,448.9,8z"/>
<polyline class="st2" points="428.7,139.6 8,139.6 8,111.9 504,111.9 504,139.6 454.9,139.6 "/>
<circle class="st3" cx="73.2" cy="62.2" r="16"/>
<circle class="st4" cx="128.5" cy="62.2" r="16"/>
<circle class="st5" cx="183.9" cy="62.2" r="16.1"/>
<g>
	<polygon class="st4" points="436.3,239 401.7,208.5 444.2,195.3 444.2,195.3 	"/>
	<circle class="st4" cx="303.8" cy="346.6" r="15.5"/>
	<circle class="st4" cx="218" cy="303" r="15.5"/>
	<circle class="st4" cx="105.4" cy="404.3" r="15.5"/>
</g>
<g>
	<path class="st6" d="M448.9,0H63.1C28.3,0,0,28.3,0,63.1v48.8v27.7v309.2C0,483.7,28.3,512,63.1,512H90c4.4,0,8-3.6,8-8
		c0-4.4-3.6-8-8-8H63.1c-26,0-47.1-21.1-47.1-47.1V147.7h412.6c4.4,0,8-3.6,8-8c0-4.4-3.6-8-8-8H16.1V120h479.9v11.6h-41.1
		c-4.4,0-8,3.6-8,8s3.6,8,8,8h41.1v301.2c0,26-21.1,47.1-47.1,47.1H116.8c-4.4,0-8,3.6-8,8c0,4.4,3.6,8,8,8h332.1
		c34.8,0,63.1-28.3,63.1-63.1V139.6v-27.7V63.1C512,28.3,483.7,0,448.9,0z M16.1,103.9V63.1c0-26,21.1-47.1,47.1-47.1h385.7
		c26,0,47.1,21.1,47.1,47.1v40.8H16.1z"/>
	<path class="st6" d="M73.2,38.1c-13.3,0-24.1,10.8-24.1,24.1s10.8,24.1,24.1,24.1c13.3,0,24.1-10.8,24.1-24.1S86.4,38.1,73.2,38.1z
		 M73.2,70.2c-4.4,0-8-3.6-8-8s3.6-8,8-8c4.4,0,8,3.6,8,8C81.2,66.6,77.6,70.2,73.2,70.2z"/>
	<path class="st6" d="M128.5,38.1c-13.3,0-24.1,10.8-24.1,24.1s10.8,24.1,24.1,24.1c13.3,0,24.1-10.8,24.1-24.1
		S141.8,38.1,128.5,38.1z M128.5,70.2c-4.4,0-8-3.6-8-8s3.6-8,8-8c4.4,0,8,3.6,8,8C136.6,66.6,133,70.2,128.5,70.2z"/>
	<path class="st6" d="M183.9,38.1c-13.3,0-24.1,10.8-24.1,24.1s10.8,24.1,24.1,24.1S208,75.5,208,62.2S197.2,38.1,183.9,38.1z
		 M183.9,70.2c-4.4,0-8-3.6-8-8s3.6-8,8-8s8,3.6,8,8C191.9,66.6,188.3,70.2,183.9,70.2z"/>
	<path class="st6" d="M450.9,54.2H309.6c-4.4,0-8,3.6-8,8s3.6,8,8,8h141.2c4.4,0,8-3.6,8-8C458.9,57.8,455.3,54.2,450.9,54.2z"/>
	<path class="st6" d="M105.4,380.8c-13,0-23.5,10.5-23.5,23.5c0,13,10.6,23.5,23.5,23.5c13,0,23.5-10.5,23.5-23.5
		c0-3-0.6-5.8-1.6-8.4l79-72.5c3.5,2,7.5,3.1,11.7,3.1c6.6,0,12.6-2.7,16.9-7.1l45.4,25.2c-0.1,0.7-0.1,1.3-0.1,2
		c0,13,10.6,23.5,23.5,23.5s23.5-10.5,23.5-23.5c0-3.3-0.7-6.5-1.9-9.4l95.1-101.5l10.5,9.3c1.5,1.3,3.4,2,5.3,2
		c0.9,0,1.8-0.1,2.6-0.4c2.7-1,4.8-3.3,5.3-6.2l7.9-43.8c0.5-2.8-0.5-5.6-2.6-7.4c-2.1-1.9-5-2.5-7.7-1.7l-42.5,13.2
		c-2.8,0.9-4.9,3.1-5.5,6c-0.6,2.8,0.4,5.8,2.5,7.7l12,10.6l-94.1,100.5c-3.2-1.6-6.7-2.5-10.5-2.5c-6.5,0-12.4,2.7-16.7,6.9
		l-45.6-25.3c0-0.6,0.1-1.1,0.1-1.7c0-13-10.6-23.5-23.5-23.5c-13,0-23.5,10.5-23.5,23.5c0,2.8,0.5,5.6,1.4,8.1l-79.2,72.7
		C113.4,381.9,109.5,380.8,105.4,380.8z M433.9,206.9l-3,16.7l-13.2-11.7L433.9,206.9z M303.8,339.1c4.1,0,7.5,3.4,7.5,7.5
		c0,4.1-3.4,7.5-7.5,7.5s-7.5-3.4-7.5-7.5C296.3,342.5,299.6,339.1,303.8,339.1z M105.4,411.8c-4.1,0-7.5-3.4-7.5-7.5
		c0-4.1,3.4-7.5,7.5-7.5c4.1,0,7.5,3.4,7.5,7.5C112.8,408.5,109.5,411.8,105.4,411.8z M218,295.5c4.1,0,7.5,3.4,7.5,7.5
		c0,4.1-3.4,7.5-7.5,7.5c-4.1,0-7.5-3.4-7.5-7.5C210.6,298.9,213.9,295.5,218,295.5z"/>
	<path class="st6" d="M113.8,470.6v-13.7H150v13.7c0,4.4,3.6,8,8,8s8-3.6,8-8v-13.7h36.2v13.7c0,4.4,3.6,8,8,8s8-3.6,8-8v-13.7h36.2
		v13.7c0,4.4,3.6,8,8,8s8-3.6,8-8v-13.7h36.2v13.7c0,4.4,3.6,8,8,8c4.4,0,8-3.6,8-8v-13.7h36.2v13.7c0,4.4,3.6,8,8,8
		c4.4,0,8-3.6,8-8v-13.7h36.2v13.7c0,4.4,3.6,8,8,8s8-3.6,8-8v-13.7h14.1c4.4,0,8-3.6,8-8c0-4.4-3.6-8-8-8H71.4V178.1
		c0-4.4-3.6-8-8-8c-4.4,0-8,3.6-8,8v12.4H43.7c-4.4,0-8,3.6-8,8s3.6,8,8,8h11.6v36.2H43.7c-4.4,0-8,3.6-8,8s3.6,8,8,8h11.6V295H43.7
		c-4.4,0-8,3.6-8,8s3.6,8,8,8h11.6v36.2H43.7c-4.4,0-8,3.6-8,8c0,4.4,3.6,8,8,8h11.6v36.2H43.7c-4.4,0-8,3.6-8,8c0,4.4,3.6,8,8,8
		h11.6v33.3c0,4.4,3.6,8,8,8h34.4v13.7c0,4.4,3.6,8,8,8C110.2,478.6,113.8,475.1,113.8,470.6z"/>
</g>
<g class="st7">
	<path class="st6" d="M33,448V62.2C33,31.8,57.7,7.1,88.1,7.1h-25C32.7,7.1,8,31.8,8,62.2V448c0,30.4,24.7,55.1,55.1,55.1h25
		C57.7,503.1,33,478.4,33,448z"/>
</g>
</svg>
