<?xml version="1.0" encoding="utf-8"?>
<!-- Generator: Adobe Illustrator 25.0.1, SVG Export Plug-In . SVG Version: 6.00 Build 0)  -->
<svg version="1.1" id="Layer_1" xmlns="http://www.w3.org/2000/svg" xmlns:xlink="http://www.w3.org/1999/xlink" x="0px" y="0px"
	 viewBox="0 0 512 512" style="enable-background:new 0 0 512 512;" xml:space="preserve">
<style type="text/css">
	.st0{fill:#008075;}
	.st1{fill:#03B68C;}
	.st2{fill:#5AC0A5;}
	.st3{fill:#EAE8E8;}
	.st4{fill:#F7DFB7;}
	.st5{fill:#738191;}
	.st6{fill:#D8D4D4;}
	.st7{fill:#231F20;}
	.st8{opacity:0.1;}
</style>
<rect x="-384.1" y="360.3" class="st0" width="64.4" height="64.4"/>
<rect x="-302.8" y="360.3" class="st1" width="64.4" height="64.4"/>
<rect x="-220.5" y="360.3" class="st2" width="64.4" height="64.4"/>
<g>
	<path class="st3" d="M90,504H63.1C32.7,504,8,479.3,8,448.9V63.1C8,32.7,32.7,8,63.1,8h385.7C479.3,8,504,32.7,504,63.1v385.7
		c0,30.4-24.7,55.1-55.1,55.1H116.8"/>
	<polygon class="st4" points="219.3,380.1 201.5,443.2 264.6,425.4 	"/>
	<path class="st0" d="M446.3,222l-23.6-23.6c-6-6-15.7-6-21.7,0l-24,24l45.3,45.3l24-24C452.3,237.7,452.3,227.9,446.3,222z"/>
	
		<rect x="376.2" y="222.7" transform="matrix(0.7071 -0.7071 0.7071 0.7071 -65.9447 350.3337)" class="st5" width="27.4" height="64.1"/>
	
		<rect x="213.3" y="301.5" transform="matrix(0.7071 -0.7071 0.7071 0.7071 -144.7439 317.6647)" class="st1" width="195.6" height="64.1"/>
	<polygon class="st2" points="355.2,202.7 369.1,188.9 61.5,188.9 61.5,235.4 322.5,235.4 	"/>
	<path class="st3" d="M448.9,8H63.1C32.7,8,8,32.7,8,63.1v48.8h496V63.1C504,32.7,479.3,8,448.9,8z"/>
	<circle class="st0" cx="73.2" cy="62.2" r="16"/>
	<circle class="st1" cx="128.5" cy="62.2" r="16"/>
	<circle class="st2" cx="183.9" cy="62.2" r="16"/>
	<polyline class="st6" points="428.7,139.6 8,139.6 8,111.9 504,111.9 504,139.6 454.9,139.6 	"/>
	<path class="st7" d="M448.9,0H63.1C28.3,0,0,28.3,0,63.1v48.8v27.7v309.2C0,483.7,28.3,512,63.1,512H90c4.4,0,8-3.6,8-8s-3.6-8-8-8
		H63.1c-26,0-47.1-21.1-47.1-47.1V147.7h412.6c4.4,0,8-3.6,8-8s-3.6-8-8-8H16V120h479.9v11.6h-41.1c-4.4,0-8,3.6-8,8s3.6,8,8,8h41.1
		v301.2c0,26-21.1,47.1-47.1,47.1h-332c-4.4,0-8,3.6-8,8s3.6,8,8,8h332.1c34.8,0,63.1-28.3,63.1-63.1V139.6v-27.7V63.1
		C512,28.3,483.7,0,448.9,0z M16,103.9V63.1C16,37.2,37.2,16,63.1,16h385.7c26,0,47.1,21.1,47.1,47.1v40.8
		C495.9,103.9,16,103.9,16,103.9z"/>
	<path class="st7" d="M73.2,38.1c-13.3,0-24.1,10.8-24.1,24.1s10.8,24.1,24.1,24.1s24.1-10.8,24.1-24.1S86.4,38.1,73.2,38.1z
		 M73.2,70.2c-4.4,0-8-3.6-8-8s3.6-8,8-8s8,3.6,8,8S77.6,70.2,73.2,70.2z"/>
	<path class="st7" d="M128.5,38.1c-13.3,0-24.1,10.8-24.1,24.1s10.8,24.1,24.1,24.1s24.1-10.8,24.1-24.1S141.8,38.1,128.5,38.1z
		 M128.5,70.2c-4.4,0-8-3.6-8-8s3.6-8,8-8c4.4,0,8,3.6,8,8C136.6,66.6,133,70.2,128.5,70.2z"/>
	<path class="st7" d="M183.9,38.1c-13.3,0-24.1,10.8-24.1,24.1s10.8,24.1,24.1,24.1S208,75.5,208,62.2S197.2,38.1,183.9,38.1z
		 M183.9,70.2c-4.4,0-8-3.6-8-8s3.6-8,8-8s8,3.6,8,8S188.3,70.2,183.9,70.2z"/>
	<path class="st7" d="M450.9,54.2H309.6c-4.4,0-8,3.6-8,8s3.6,8,8,8h141.2c4.4,0,8-3.6,8-8S455.3,54.2,450.9,54.2z"/>
	<path class="st7" d="M452,216.3l-23.6-23.6c-4.4-4.4-10.3-6.8-16.5-6.8s-12.1,2.4-16.5,6.8l-24,24l0,0L352,236.1L213.6,374.4
		c-0.2,0.2-0.4,0.4-0.6,0.7c0,0.1-0.1,0.1-0.1,0.2c-0.1,0.2-0.3,0.4-0.4,0.6c-0.1,0.1-0.1,0.2-0.1,0.2c-0.1,0.2-0.2,0.4-0.3,0.7
		c0,0.1-0.1,0.1-0.1,0.2c-0.1,0.3-0.2,0.6-0.3,0.9c0,0,0,0,0,0.1l-18,63c-0.8,2.8,0,5.8,2,7.9c1.5,1.5,3.6,2.4,5.7,2.4
		c0.7,0,1.5-0.1,2.2-0.3l63.1-17.8l0,0c0.3-0.1,0.6-0.2,0.9-0.3c0.1,0,0.1-0.1,0.2-0.1c0.2-0.1,0.5-0.2,0.7-0.4
		c0.1,0,0.1-0.1,0.2-0.1c0.2-0.1,0.4-0.3,0.6-0.4c0.1,0,0.1-0.1,0.2-0.1c0.2-0.2,0.5-0.4,0.7-0.6l138.3-138.3l0,0l19.4-19.4l24-24
		C461.1,240.2,461.1,225.4,452,216.3z M264.6,414l-34-34l127-127l18.9,18.9l15,15L264.6,414z M402.9,275.7l-17-17l-17-17l8-8l34,34
		L402.9,275.7z M223.3,395.4l26,26l-36.2,10.2L223.3,395.4z M440.7,238l-18.4,18.4l-34-34l18.4-18.4c1.4-1.4,3.2-2.1,5.2-2.1
		s3.8,0.8,5.2,2.1l23.6,23.6C443.5,230.5,443.5,235.1,440.7,238z"/>
	<path class="st7" d="M368.2,276.5c-3.1-3.1-8.2-3.1-11.3,0L254.5,378.8c-3.1,3.1-3.1,8.2,0,11.3c1.6,1.6,3.6,2.3,5.7,2.3
		s4.1-0.8,5.7-2.3l102.3-102.3C371.3,284.7,371.3,279.6,368.2,276.5z"/>
	<path class="st7" d="M61.5,285h220.4c4.4,0,8-3.6,8-8s-3.6-8-8-8H61.5c-4.4,0-8,3.6-8,8S57.1,285,61.5,285z"/>
	<path class="st7" d="M61.5,326.6h177.6c4.4,0,8-3.6,8-8s-3.6-8-8-8H61.5c-4.4,0-8,3.6-8,8S57.1,326.6,61.5,326.6z"/>
	<path class="st7" d="M61.5,368.1h135.9c4.4,0,8-3.6,8-8s-3.6-8-8-8H61.5c-4.4,0-8,3.6-8,8S57.1,368.1,61.5,368.1z"/>
	<path class="st7" d="M61.5,409.7h119.8c4.4,0,8-3.6,8-8s-3.6-8-8-8H61.5c-4.4,0-8,3.6-8,8S57.1,409.7,61.5,409.7z"/>
	<path class="st7" d="M61.5,451.2h111.3c4.4,0,8-3.6,8-8s-3.6-8-8-8H61.5c-4.4,0-8,3.6-8,8S57.1,451.2,61.5,451.2z"/>
	<path class="st7" d="M435,310.5h-23.5c-4.4,0-8,3.6-8,8s3.6,8,8,8H435c4.4,0,8-3.6,8-8S439.4,310.5,435,310.5z"/>
	<path class="st7" d="M435,352.1h-63.8c-4.4,0-8,3.6-8,8s3.6,8,8,8H435c4.4,0,8-3.6,8-8S439.4,352.1,435,352.1z"/>
	<path class="st7" d="M435,393.6H331.2c-4.4,0-8,3.6-8,8s3.6,8,8,8H435c4.4,0,8-3.6,8-8S439.4,393.6,435,393.6z"/>
	<path class="st7" d="M435,435.2H289.4c-4.4,0-8,3.6-8,8s3.6,8,8,8H435c4.4,0,8-3.6,8-8C443,438.8,439.4,435.2,435,435.2z"/>
	<path class="st7" d="M369.1,180.8H61.5c-4.4,0-8,3.6-8,8v46.6c0,4.4,3.6,8,8,8h261c2.1,0,4.2-0.8,5.7-2.4l46.6-46.6
		c2.3-2.3,3-5.7,1.7-8.7C375.2,182.8,372.3,180.8,369.1,180.8z M319.2,227.4H69.6v-30.5h280.1L319.2,227.4z"/>
	<g class="st8">
		<path class="st7" d="M33,448.9V63.1C33,32.7,57.7,8,88.1,8h-25C32.7,8,8,32.7,8,63.1v385.7C8,479.3,32.7,504,63.1,504h25
			C57.7,504,33,479.3,33,448.9z"/>
	</g>
</g>
</svg>
