<?xml version="1.0" encoding="utf-8"?>
<!-- Generator: Adobe Illustrator 25.0.1, SVG Export Plug-In . SVG Version: 6.00 Build 0)  -->
<svg version="1.1" id="Layer_1" xmlns="http://www.w3.org/2000/svg" xmlns:xlink="http://www.w3.org/1999/xlink" x="0px" y="0px"
	 viewBox="0 0 512 512" style="enable-background:new 0 0 512 512;" xml:space="preserve">
<style type="text/css">
	.st0{fill:#008075;}
	.st1{opacity:0.1;}
	.st2{fill:#231F20;}
	.st3{fill:#77614A;}
	.st4{fill:#62B07E;}
	.st5{fill:#9EA8B2;}
	.st6{fill:#5D6A7C;}
	.st7{fill:#C3CAD1;}
	.st8{fill:#FCCF8B;}
	.st9{fill:#EAB875;}
	.st10{fill:#03B68C;}
	.st11{fill:#5AC0A5;}
	.st12{opacity:0.1;fill:#231F20;enable-background:new    ;}
</style>
<path class="st0" d="M153.4,223.6c-1.1,0-2.3,0-3.5,0c-1.3,0-2.5-0.7-3.2-1.8s-0.8-2.5-0.3-3.6c0.1-0.1,6.3-15,5.2-32.8l7.8-0.5
	c0.8,13.1,27.9,19.7,27.9,19.5c0,0.1,0,0.1,0,0.1l7.7,0.9C194.8,207.3,191.8,223.6,153.4,223.6z"/>
<path class="st0" d="M350.6,290.6c1.1,0,2.3,0,3.5,0c1.3,0,2.5-0.7,3.2-1.8c0.7-1.1,0.8-2.5,0.3-3.6c-0.1-0.1-6.3-15-5.2-32.8
	l-7.8-0.5c-0.8,13.1-27.9,19.7-27.9,19.5c0,0.1,0,0.1,0,0.1l-7.7,0.9C309.2,274.3,312.2,290.6,350.6,290.6z"/>
<g class="st1">
	<path class="st2" d="M-1024.3,1062.3c0-13.9,9.9-25.5,23.1-28l-0.3-0.5h-9.2c-15.8,0-28.6,12.8-28.6,28.6v35.4h14.9L-1024.3,1062.3
		L-1024.3,1062.3z"/>
</g>
<path class="st3" d="M-1008.4,958.1c1.1,0,2.1,0.1,3.1,0.4v-4.3c31.4,6.9,49.6-12.9,49.6-12.9l15.8,12.9v4.3c1-0.2,2-0.4,3.1-0.4
	c3.4,0,6.6,1.3,8.9,3.4v-14.4c0-23.2-18.8-42.1-42.1-42.1h-5.3c-23.2,0-42.1,18.8-42.1,42.1v14.4
	C-1015,959.4-1011.8,958.1-1008.4,958.1z"/>
<g class="st1">
	<path class="st2" d="M-1002.7,947.1c0-21.7,16.4-39.5,37.4-41.8c-1.5-0.2-3.1-0.3-4.7-0.3h-5.3c-23.2,0-42.1,18.8-42.1,42.1v14.4
		c2.4-2.1,5.5-3.4,8.9-3.4c1.1,0,2.1,0.1,3.1,0.4v-4.3c0.9,0.2,1.8,0.4,2.7,0.5L-1002.7,947.1L-1002.7,947.1L-1002.7,947.1z"/>
</g>
<path class="st4" d="M-835,805.6c-48.7,0-88.1,30.4-88.1,67.9c0,19.3,10.5,36.8,27.4,49.2l-10.5,28.9l31.7-17.4
	c11.9,4.6,25.3,7.2,39.5,7.2c48.7,0,88.1-30.4,88.1-67.9S-786.4,805.6-835,805.6z"/>
<g class="st1">
	<path class="st2" d="M-880.8,915.9c-16.9-12.4-27.4-29.8-27.4-49.2c0-22.7,14.5-42.8,36.7-55.1c-30.5,10.7-51.7,34.3-51.7,61.8
		c0,19.3,10.5,36.8,27.4,49.2l-10.5,28.9l19.6-10.7l5.8-15.7C-880.9,925-878.1,918-880.8,915.9z"/>
</g>
<path class="st5" d="M-987.1,1097.6l81.1-0.1v-35.3c0-15.8-12.8-28.6-28.6-28.6h-9.2l-15.1,27.3l-13.8-9l-13.8,9l-15.1-27.3h-9.2
	c-15.8,0-28.6,12.8-28.6,28.6v35.4h37.2"/>
<polygon class="st6" points="-981.9,1058.1 -972.6,1073.6 -963.3,1058.1 -972.6,1052 "/>
<g>
	<polygon class="st7" points="-987.3,1028.4 -972.6,1052 -986.4,1061 -1001.6,1033.5 	"/>
	<polygon class="st7" points="-958,1028.4 -972.6,1052 -958.9,1061 -943.6,1033.5 	"/>
</g>
<path class="st8" d="M-1005.3,954.2v35c0,17.6,14.2,31.8,31.8,31.8h1.8c17.6,0,31.8-14.2,31.8-31.8v-35l-15.8-12.9
	C-955.7,941.3-973.9,961-1005.3,954.2z"/>
<g class="st1">
	<path class="st2" d="M-990.7,989.2v-33.6c-4.5,0.1-9.4-0.3-14.7-1.4v35c0,17.6,14.2,31.8,31.8,31.8h1.8c2.2,0,4.4-0.2,6.4-0.7
		C-979.8,1017.4-990.7,1004.6-990.7,989.2z"/>
</g>
<g>
	<path class="st9" d="M-1005.3,958.5c-1-0.2-2-0.4-3.1-0.4c-7.5,0-13.5,6-13.5,13.5s6,13.5,13.5,13.5c1.1,0,2.1-0.1,3.1-0.4V958.5z"
		/>
	<path class="st9" d="M-939.9,958.5c1-0.2,2-0.4,3.1-0.4c7.5,0,13.5,6,13.5,13.5s-6,13.5-13.5,13.5c-1.1,0-2.1-0.1-3.1-0.4V958.5z"
		/>
	<path class="st9" d="M-958,1028.4l-2.4-9.4c-3.5,1.3-7.3,2.1-11.3,2.1h-1.8c-4,0-7.8-0.7-11.3-2.1l-2.4,9.4l0,0l14.7,23.7
		L-958,1028.4L-958,1028.4z"/>
</g>
<path class="st2" d="M-934.6,1028.9h-7.7l-11.8-4.2l-0.8-3.1c11.5-6,19.4-18,19.6-31.8c9.3-0.9,16.6-8.7,16.6-18.2
	c0-4.6-1.7-8.8-4.6-12.1v-12.4c0-25.8-21-46.8-46.8-46.8h-5.3c-25.8,0-46.8,21-46.8,46.8v12.4c-2.8,3.2-4.6,7.4-4.6,12.1
	c0,9.5,7.3,17.3,16.6,18.2c0.2,13.8,8.1,25.8,19.6,31.8l-0.8,3.1l-11.8,4.2h-7.7c-18.4,0-33.3,14.9-33.3,33.3v35.4
	c0,1.3,0.5,2.5,1.4,3.4s2.1,1.4,3.4,1.4l0,0h37.2c2.6,0,4.8-2.1,4.8-4.8c0-2.6-2.1-4.8-4.8-4.8l0,0h-7.6V1066c0-2.6-2.1-4.8-4.8-4.8
	s-4.8,2.1-4.8,4.8v26.8h-15.3v-30.7c0-13.1,10.7-23.8,23.8-23.8h6.4l13.8,24.9c0.6,1.2,1.7,2,3,2.3c0.2,0,0.4,0.1,0.5,0.1
	s0.1,0,0.2,0c0.1,0,0.2,0,0.4,0h0.1h0.1c0.2,0,0.3,0,0.5,0h0.1c0.2,0,0.4-0.1,0.6-0.1h0.1c0.2,0,0.3-0.1,0.5-0.2
	c0.1,0,0.1,0,0.2-0.1c0.2-0.1,0.4-0.2,0.5-0.3l0.3-0.2l6.8,11.3c0.9,1.4,2.4,2.3,4.1,2.3s3.2-0.9,4.1-2.3l6.8-11.3l0.3,0.2
	c0.2,0.1,0.4,0.2,0.5,0.3c0.1,0,0.1,0,0.2,0.1c0.2,0.1,0.3,0.1,0.5,0.2h0.1c0.2,0.1,0.4,0.1,0.6,0.1h0.1c0.2,0,0.3,0,0.5,0h0.1h0.1
	c0.1,0,0.2,0,0.4,0c0.1,0,0.1,0,0.2,0c0.2,0,0.4-0.1,0.5-0.1c1.3-0.3,2.4-1.2,3-2.3l13.8-24.9h6.4c13.1,0,23.8,10.7,23.8,23.8v30.6
	H-926V1066c0-2.6-2.1-4.8-4.8-4.8s-4.8,2.1-4.8,4.8v26.7h-51.5c-2.6,0-4.8,2.1-4.8,4.8c0,2.6,2.1,4.8,4.8,4.8l0,0l81.1-0.1
	c2.6,0,4.8-2.1,4.8-4.8v-35.3C-901.2,1043.9-916.2,1028.9-934.6,1028.9z M-989.3,1034.1l10.2,16.5l-5.4,3.5l0,0l-0.2,0.1l-10-18.1
	L-989.3,1034.1z M-960.5,1054.2l-5.6-3.6l10.2-16.5l5.4,2L-960.5,1054.2z M-935.2,980.2V963c1.5,0.3,2.9,1,4.1,2c0,0,0,0,0.1,0.1
	c1.8,1.6,2.9,3.9,2.9,6.5C-928.1,975.8-931.1,979.4-935.2,980.2z M-1012.6,947.1c0-20.6,16.7-37.3,37.3-37.3h5.3
	c20.6,0,37.3,16.7,37.3,37.3v6.7l0,0c-0.4-0.1-0.8-0.2-1.2-0.2l0,0c-0.4-0.1-0.8-0.1-1.2-0.2c0,0,0,0-0.1,0c0-0.1,0-0.1,0-0.2
	c0-0.1,0-0.1,0-0.2c0-0.1-0.1-0.3-0.1-0.4v-0.1c-0.1-0.2-0.1-0.3-0.2-0.4c0,0,0-0.1-0.1-0.1c-0.1-0.1-0.1-0.2-0.2-0.3l-0.1-0.1
	c-0.1-0.1-0.1-0.2-0.2-0.3l-0.1-0.1c-0.1-0.1-0.1-0.2-0.2-0.3l-0.1-0.1c-0.1-0.1-0.2-0.2-0.4-0.3l-15.8-12.9
	c-1.9-1.6-4.7-1.4-6.4,0.4c0,0,0,0-0.1,0.1s-12.3,12.8-33,12.8c-3.9,0-8-0.5-12.1-1.3c-1.4-0.3-2.9,0-4,0.9
	c-0.1,0.1-0.3,0.2-0.4,0.3l-0.1,0.1c-0.1,0.1-0.2,0.2-0.2,0.3l-0.1,0.1c-0.1,0.1-0.1,0.2-0.2,0.3l-0.1,0.1c-0.1,0.1-0.1,0.2-0.2,0.3
	c0,0,0,0.1-0.1,0.1c-0.1,0.1-0.1,0.3-0.2,0.4v0.1c0,0.1-0.1,0.3-0.1,0.4c0,0.1,0,0.1,0,0.2c0,0.1,0,0.1,0,0.2c0,0,0,0-0.1,0
	c-0.4,0-0.8,0.1-1.2,0.2l0,0c-0.4,0.1-0.8,0.1-1.2,0.2l0,0L-1012.6,947.1L-1012.6,947.1L-1012.6,947.1z M-1017.1,971.6
	c0-2.6,1.1-4.9,2.9-6.5l0,0c1.2-1,2.6-1.7,4.1-2v17.1C-1014.1,979.4-1017.1,975.8-1017.1,971.6z M-1000.6,989.2v-4.5v-24.9
	c0.4,0.1,0.8,0.1,1.2,0.1c0.3,0,0.5,0.1,0.8,0.1c0.5,0,0.9,0.1,1.4,0.1c0.3,0,0.5,0,0.8,0.1c0.5,0,1,0.1,1.4,0.1c0.2,0,0.4,0,0.7,0
	c0.7,0,1.4,0,2.1,0c18.4,0,31.1-8.2,36.7-12.8l10.9,8.9v2v26.3v4.5c0,11.6-7.3,21.5-17.6,25.3c-0.2,0.1-0.4,0.1-0.6,0.2
	c-0.2,0.1-0.4,0.1-0.6,0.2c-0.2,0.1-0.4,0.1-0.6,0.2c-0.2,0.1-0.4,0.1-0.6,0.2c-0.2,0.1-0.4,0.1-0.6,0.2c-0.2,0.1-0.4,0.1-0.7,0.2
	c-0.2,0-0.4,0.1-0.6,0.1c-0.2,0-0.5,0.1-0.7,0.1s-0.4,0.1-0.6,0.1c-0.3,0-0.5,0.1-0.8,0.1c-0.2,0-0.3,0-0.5,0.1
	c-0.3,0-0.6,0-0.9,0.1c-0.1,0-0.3,0-0.4,0c-0.4,0-0.9,0-1.3,0h-1.8c-0.4,0-0.9,0-1.3,0c-0.1,0-0.3,0-0.4,0c-0.3,0-0.6,0-0.9-0.1
	c-0.2,0-0.4,0-0.5-0.1c-0.3,0-0.5-0.1-0.8-0.1c-0.2,0-0.4-0.1-0.6-0.1c-0.2,0-0.5-0.1-0.7-0.1s-0.4-0.1-0.6-0.1
	c-0.2,0-0.4-0.1-0.6-0.1c-0.2-0.1-0.4-0.1-0.6-0.2c-0.2-0.1-0.4-0.1-0.6-0.2c-0.2-0.1-0.4-0.1-0.6-0.2c-0.2-0.1-0.4-0.1-0.6-0.2
	c-0.2-0.1-0.4-0.1-0.6-0.2C-993.2,1010.7-1000.6,1000.8-1000.6,989.2z M-980,1025.2c0.2,0,0.5,0.1,0.7,0.1c0.4,0.1,0.8,0.1,1.2,0.2
	c0.2,0,0.5,0.1,0.7,0.1c0.4,0,0.9,0.1,1.3,0.1c0.2,0,0.4,0,0.6,0c0.6,0,1.3,0.1,2,0.1h1.8c0.7,0,1.3,0,2-0.1c0.2,0,0.4,0,0.6,0
	c0.4,0,0.9-0.1,1.3-0.1c0.2,0,0.5-0.1,0.7-0.1c0.4-0.1,0.8-0.1,1.2-0.2c0.2,0,0.5-0.1,0.7-0.1c0.4-0.1,0.8-0.1,1.2-0.2
	c0.1,0,0.2,0,0.3,0l0.7,2.7l-9.5,15.4l-4.4-7.2l-5.1-8.2l0.7-2.7c0.1,0,0.2,0,0.3,0C-980.8,1025-980.4,1025.1-980,1025.2z
	 M-972.6,1064.3l-2.9-4.8l2.9-1.9l2.9,1.9L-972.6,1064.3z"/>
<g class="st1">
	<path class="st2" d="M-654.1,1062.3c0-13.9,9.9-25.5,23.1-28l-0.3-0.5h-9.2c-15.8,0-28.6,12.8-28.6,28.6v35.4h14.9L-654.1,1062.3
		L-654.1,1062.3z"/>
</g>
<path class="st3" d="M-638.3,958.1c1.1,0,2.1,0.1,3.1,0.4v-4.3c31.4,6.9,49.6-12.9,49.6-12.9l15.8,12.9v4.3c1-0.2,2-0.4,3.1-0.4
	c3.4,0,6.6,1.3,8.9,3.4v-14.4c0-23.2-18.8-42.1-42.1-42.1h-5.3c-23.2,0-42.1,18.8-42.1,42.1v14.4
	C-644.8,959.4-641.7,958.1-638.3,958.1z"/>
<g class="st1">
	<path class="st2" d="M-632.5,947.1c0-21.7,16.4-39.5,37.4-41.8c-1.5-0.2-3.1-0.3-4.7-0.3h-5.3c-23.2,0-42.1,18.8-42.1,42.1v14.4
		c2.4-2.1,5.5-3.4,8.9-3.4c1.1,0,2.1,0.1,3.1,0.4v-4.3c0.9,0.2,1.8,0.4,2.7,0.5L-632.5,947.1L-632.5,947.1L-632.5,947.1z"/>
</g>
<path class="st10" d="M416.7,361.6l90.8-0.1v-28.4c0-24.3-19.2-44.3-43.5-45.4l0,0l-20.3,8.6h-18.8l-20.5-8.6H402
	c-24.5,0-44.5,19.6-45.1,44l-0.7,29.8h44.6"/>
<polygon class="st6" points="-611.8,1058.1 -602.5,1073.6 -593.2,1058.1 -602.5,1052 "/>
<g>
	<polygon class="st7" points="-617.1,1028.4 -602.5,1052 -616.3,1061 -631.5,1033.5 	"/>
	<polygon class="st7" points="-587.8,1028.4 -602.5,1052 -588.7,1061 -573.5,1033.5 	"/>
</g>
<path class="st8" d="M-635.2,954.2v35c0,17.6,14.2,31.8,31.8,31.8h1.8c17.6,0,31.8-14.2,31.8-31.8v-35l-15.8-12.9
	C-585.5,941.3-603.8,961-635.2,954.2z"/>
<path class="st8" d="M399.2,284.2L399.2,284.2c17.8,16.6,47.1,16,64.1-1.2c0.3-0.4,0.7-0.7,1-1.1c20.5-20.8,18.7-53-4.1-71.7l0,0
	c-16.1-13.2-40.7-12.4-55.7,1.9l-5.8,5.5C379.3,236.4,379.5,265.8,399.2,284.2z"/>
<g class="st1">
	<path class="st2" d="M-620.5,989.2v-33.6c-4.5,0.1-9.4-0.3-14.7-1.4v35c0,17.6,14.2,31.8,31.8,31.8h1.8c2.2,0,4.4-0.2,6.4-0.7
		C-609.6,1017.4-620.5,1004.6-620.5,989.2z"/>
</g>
<g>
	<path class="st9" d="M-635.2,958.5c-1-0.2-2-0.4-3.1-0.4c-7.5,0-13.5,6-13.5,13.5s6,13.5,13.5,13.5c1.1,0,2.1-0.1,3.1-0.4V958.5z"
		/>
	<path class="st9" d="M-569.8,958.5c1-0.2,2-0.4,3.1-0.4c7.5,0,13.5,6,13.5,13.5s-6,13.5-13.5,13.5c-1.1,0-2.1-0.1-3.1-0.4V958.5z"
		/>
	<path class="st9" d="M-587.8,1028.4l-2.4-9.4c-3.5,1.3-7.3,2.1-11.3,2.1h-1.8c-4,0-7.8-0.7-11.3-2.1l-2.4,9.4l0,0l14.7,23.7
		L-587.8,1028.4L-587.8,1028.4z"/>
</g>
<path class="st2" d="M-322.8,511.9h-7.7l-11.8-4.2l-0.8-3.1c11.5-6,19.4-18,19.6-31.8c9.3-0.9,16.6-8.7,16.6-18.2
	c0-4.6-1.7-8.8-4.6-12.1v-12.4c0-25.8-21-46.8-46.9-46.8h-5.3c-25.8,0-46.8,21-46.8,46.8v12.4c-2.8,3.2-4.6,7.4-4.6,12.1
	c0,9.5,7.3,17.3,16.6,18.2c0.2,13.8,8.1,25.8,19.6,31.8l-0.8,3.1l-11.8,4.2h-7.7c-18.4,0-33.3,14.9-33.3,33.3v35.4
	c0,1.3,0.5,2.5,1.4,3.4s2.1,1.4,3.4,1.4l0,0h37.2c2.6,0,4.8-2.1,4.8-4.8c0-2.6-2.1-4.8-4.8-4.8l0,0h-7.6V549c0-2.6-2.1-4.8-4.8-4.8
	c-2.6,0-4.8,2.1-4.8,4.8v26.8H-423v-30.7c0-13.1,10.7-23.8,23.8-23.8h6.4l13.8,24.9c0.6,1.2,1.7,2,3,2.3c0.2,0,0.4,0.1,0.5,0.1
	s0.1,0,0.2,0s0.2,0,0.4,0h0.1h0.1c0.2,0,0.3,0,0.5,0h0.1c0.2,0,0.4-0.1,0.6-0.1h0.1c0.2,0,0.3-0.1,0.5-0.2c0.1,0,0.1,0,0.2-0.1
	c0.2-0.1,0.4-0.2,0.5-0.3l0.3-0.2l6.8,11.3c0.9,1.4,2.4,2.3,4.1,2.3s3.2-0.9,4.1-2.3l6.8-11.3l0.3,0.2c0.2,0.1,0.4,0.2,0.5,0.3
	c0.1,0,0.1,0,0.2,0.1c0.2,0.1,0.3,0.1,0.5,0.2h0.1c0.2,0.1,0.4,0.1,0.6,0.1h0.1c0.2,0,0.3,0,0.5,0h0.1h0.1c0.1,0,0.2,0,0.4,0
	c0.1,0,0.1,0,0.2,0c0.2,0,0.4-0.1,0.5-0.1c1.3-0.3,2.4-1.2,3-2.3l13.8-24.9h6.4c13.1,0,23.8,10.7,23.8,23.8v30.6h-15.3V549
	c0-2.6-2.1-4.8-4.8-4.8c-2.6,0-4.8,2.1-4.8,4.8v26.7h-51.5c-2.6,0-4.8,2.1-4.8,4.8c0,2.6,2.1,4.8,4.8,4.8l0,0l81.1-0.1
	c2.6,0,4.8-2.1,4.8-4.8v-35.3C-289.5,526.8-304.4,511.9-322.8,511.9z M-377.5,517.1l10.2,16.5l-5.4,3.5l0,0l-0.2,0.1l-10-18.1
	L-377.5,517.1z M-348.8,537.2l-5.6-3.6l10.2-16.5l5.4,2L-348.8,537.2z M-323.4,463.1V446c1.5,0.3,2.9,1,4.1,2c0,0,0,0,0.1,0.1
	c1.8,1.6,2.9,3.9,2.9,6.5C-316.3,458.8-319.4,462.3-323.4,463.1z M-400.8,430.1c0-20.6,16.7-37.3,37.3-37.3h5.3
	c20.6,0,37.3,16.7,37.3,37.3v6.7l0,0c-0.4-0.1-0.8-0.2-1.2-0.2l0,0c-0.4-0.1-0.8-0.1-1.2-0.2c0,0,0,0-0.1,0c0-0.1,0-0.1,0-0.2
	s0-0.1,0-0.2s-0.1-0.3-0.1-0.4v-0.1c-0.1-0.2-0.1-0.3-0.2-0.4c0,0,0-0.1-0.1-0.1c-0.1-0.1-0.1-0.2-0.2-0.3l-0.1-0.1
	c-0.1-0.1-0.1-0.2-0.2-0.3l-0.1-0.1c-0.1-0.1-0.1-0.2-0.2-0.3l-0.1-0.1c-0.1-0.1-0.2-0.2-0.4-0.3l-15.8-12.9
	c-1.9-1.6-4.7-1.4-6.4,0.4c0,0,0,0-0.1,0.1s-12.3,12.8-33,12.8c-3.9,0-8-0.5-12.1-1.3c-1.4-0.3-2.9,0-4,0.9
	c-0.1,0.1-0.3,0.2-0.4,0.3l-0.1,0.1c-0.1,0.1-0.2,0.2-0.2,0.3l-0.1,0.1c-0.1,0.1-0.1,0.2-0.2,0.3l-0.1,0.1c-0.1,0.1-0.1,0.2-0.2,0.3
	c0,0,0,0.1-0.1,0.1c-0.1,0.1-0.1,0.3-0.2,0.4v0.1c0,0.1-0.1,0.3-0.1,0.4s0,0.1,0,0.2s0,0.1,0,0.2c0,0,0,0-0.1,0
	c-0.4,0-0.8,0.1-1.2,0.2l0,0c-0.4,0.1-0.8,0.1-1.2,0.2l0,0L-400.8,430.1L-400.8,430.1L-400.8,430.1z M-405.4,454.5
	c0-2.6,1.1-4.9,2.9-6.5l0,0c1.2-1,2.6-1.7,4.1-2v17.1C-402.3,462.3-405.4,458.8-405.4,454.5z M-388.8,472.1v-4.5v-24.9
	c0.4,0.1,0.8,0.1,1.2,0.1c0.3,0,0.5,0.1,0.8,0.1c0.5,0,0.9,0.1,1.4,0.1c0.3,0,0.5,0,0.8,0.1c0.5,0,1,0.1,1.4,0.1c0.2,0,0.4,0,0.7,0
	c0.7,0,1.4,0,2.1,0c18.4,0,31.1-8.2,36.7-12.8l10.9,8.9v2v26.3v4.5c0,11.6-7.3,21.5-17.6,25.3c-0.2,0.1-0.4,0.1-0.6,0.2
	s-0.4,0.1-0.6,0.2s-0.4,0.1-0.6,0.2s-0.4,0.1-0.6,0.2s-0.4,0.1-0.6,0.2s-0.4,0.1-0.7,0.2c-0.2,0-0.4,0.1-0.6,0.1s-0.5,0.1-0.7,0.1
	s-0.4,0.1-0.6,0.1c-0.3,0-0.5,0.1-0.8,0.1c-0.2,0-0.3,0-0.5,0.1c-0.3,0-0.6,0-0.9,0.1c-0.1,0-0.3,0-0.4,0c-0.4,0-0.9,0-1.3,0h-1.8
	c-0.4,0-0.9,0-1.3,0c-0.1,0-0.3,0-0.4,0c-0.3,0-0.6,0-0.9-0.1c-0.2,0-0.4,0-0.5-0.1c-0.3,0-0.5-0.1-0.8-0.1c-0.2,0-0.4-0.1-0.6-0.1
	s-0.5-0.1-0.7-0.1s-0.4-0.1-0.6-0.1s-0.4-0.1-0.6-0.1c-0.2-0.1-0.4-0.1-0.6-0.2s-0.4-0.1-0.6-0.2s-0.4-0.1-0.6-0.2s-0.4-0.1-0.6-0.2
	s-0.4-0.1-0.6-0.2C-381.5,493.6-388.8,483.7-388.8,472.1z M-368.2,508.1c0.2,0,0.5,0.1,0.7,0.1c0.4,0.1,0.8,0.1,1.2,0.2
	c0.2,0,0.5,0.1,0.7,0.1c0.4,0,0.9,0.1,1.3,0.1c0.2,0,0.4,0,0.6,0c0.6,0,1.3,0.1,2,0.1h1.8c0.7,0,1.3,0,2-0.1c0.2,0,0.4,0,0.6,0
	c0.4,0,0.9-0.1,1.3-0.1c0.2,0,0.5-0.1,0.7-0.1c0.4-0.1,0.8-0.1,1.2-0.2c0.2,0,0.5-0.1,0.7-0.1c0.4-0.1,0.8-0.1,1.2-0.2
	c0.1,0,0.2,0,0.3,0l0.7,2.7l-9.5,15.4l-4.4-7.2l-5.1-8.2l0.7-2.7c0.1,0,0.2,0,0.3,0C-369,508-368.6,508.1-368.2,508.1z
	 M-360.8,547.3l-2.9-4.8l2.9-1.9l2.9,1.9L-360.8,547.3z"/>
<path class="st2" d="M-769.8,821.7c-17.5-13.5-40.6-20.9-65.2-20.9c-24.6,0-47.7,7.4-65.2,20.9c-17.8,13.7-27.7,32.1-27.7,51.8
	c0,19,9.6,37.3,26.5,50.8l-9.3,25.6c-0.7,1.9-0.1,3.9,1.4,5.2c0.9,0.8,2,1.1,3.1,1.1c0.8,0,1.6-0.2,2.3-0.6l29.8-16.3
	c12.3,4.5,25.4,6.7,39.1,6.7c24.6,0,47.7-7.4,65.2-20.9c17.8-13.7,27.7-32.1,27.7-51.8C-742.2,853.8-752,835.4-769.8,821.7z
	 M-835,936.5c-13.3,0-26-2.3-37.8-6.9c-1.3-0.5-2.8-0.4-4,0.3l-20.7,11.3l6.2-17c0.7-2,0-4.2-1.7-5.5c-16.4-12-25.4-28.1-25.4-45.3
	c0-34.8,37.4-63.1,83.3-63.1c46,0,83.3,28.3,83.3,63.1S-789.1,936.5-835,936.5z"/>
<path class="st2" d="M-792.1,841.4h-10.8c-2.6,0-4.8,2.1-4.8,4.8s2.1,4.8,4.8,4.8h10.8c2.6,0,4.8-2.1,4.8-4.8
	C-787.3,843.6-789.5,841.4-792.1,841.4z"/>
<path class="st2" d="M-881.7,851h62.9c2.6,0,4.8-2.1,4.8-4.8c0-2.6-2.1-4.8-4.8-4.8h-62.9c-2.6,0-4.8,2.1-4.8,4.8
	C-886.4,848.8-884.3,851-881.7,851z"/>
<path class="st2" d="M-881.7,890.2h10.8c2.6,0,4.8-2.1,4.8-4.8s-2.1-4.8-4.8-4.8h-10.8c-2.6,0-4.8,2.1-4.8,4.8
	C-886.4,888-884.3,890.2-881.7,890.2z"/>
<path class="st2" d="M-792.1,880.6H-855c-2.6,0-4.8,2.1-4.8,4.8s2.1,4.8,4.8,4.8h62.9c2.6,0,4.8-2.1,4.8-4.8
	C-787.3,882.8-789.5,880.6-792.1,880.6z"/>
<path class="st2" d="M-792.1,861h-89.5c-2.6,0-4.8,2.1-4.8,4.8s2.1,4.8,4.8,4.8h89.5c2.6,0,4.8-2.1,4.8-4.8S-789.5,861-792.1,861z"
	/>
<path class="st2" d="M-792.1,900.3h-89.5c-2.6,0-4.8,2.1-4.8,4.8c0,2.6,2.1,4.8,4.8,4.8h89.5c2.6,0,4.8-2.1,4.8-4.8
	C-787.3,902.4-789.5,900.3-792.1,900.3z"/>
<path class="st4" d="M-835,918.8c0,37.5,39.4,67.9,88.1,67.9c14.2,0,27.6-2.6,39.5-7.2l31.7,17.4l-10.5-28.9
	c16.9-12.4,27.4-29.8,27.4-49.2c0-37.5-39.4-67.9-88.1-67.9C-795.6,851-835,881.3-835,918.8z"/>
<g class="st1">
	<path class="st2" d="M-701.1,970.4l5.8,15.7l19.6,10.7l-10.5-28.9c16.9-12.4,27.4-29.8,27.4-49.2c0-27.5-21.2-51.1-51.7-61.8
		c22.2,12.3,36.7,32.4,36.7,55.1c0,19.3-10.5,36.8-27.4,49.2C-703.8,963.4-701.1,970.4-701.1,970.4z"/>
</g>
<path class="st2" d="M-839.8,918.8c0,19.6,9.8,38,27.7,51.8c17.5,13.5,40.6,20.9,65.2,20.9c13.7,0,26.8-2.3,39.1-6.7l29.8,16.3
	c0.7,0.4,1.5,0.6,2.3,0.6c1.1,0,2.2-0.4,3.1-1.1c1.5-1.3,2.1-3.4,1.4-5.2l-9.3-25.6C-663.6,956.3-654,938-654,919
	c0-19.6-9.8-38-27.7-51.8c-17.5-13.5-40.6-20.9-65.2-20.9c-24.6,0-47.7,7.4-65.2,20.9C-830,880.8-839.8,899.2-839.8,918.8z
	 M-830.3,918.8c0-34.8,37.4-63.1,83.3-63.1s83.3,28.3,83.3,63.1c0,17.2-9,33.3-25.4,45.3c-1.7,1.3-2.4,3.5-1.7,5.5l6.2,17
	l-20.7-11.3c-1.2-0.7-2.7-0.8-4-0.3c-11.8,4.6-24.5,6.9-37.8,6.9C-792.9,981.9-830.3,953.6-830.3,918.8z"/>
<path class="st2" d="M-794.6,891.6c0,2.6,2.1,4.8,4.8,4.8h10.8c2.6,0,4.8-2.1,4.8-4.8s-2.1-4.8-4.8-4.8h-10.8
	C-792.5,886.8-794.6,889-794.6,891.6z"/>
<path class="st2" d="M-695.5,891.6c0-2.6-2.1-4.8-4.8-4.8h-62.9c-2.6,0-4.8,2.1-4.8,4.8s2.1,4.8,4.8,4.8h62.9
	C-697.7,896.4-695.5,894.2-695.5,891.6z"/>
<path class="st2" d="M-695.5,930.8c0-2.6-2.1-4.8-4.8-4.8h-10.8c-2.6,0-4.8,2.1-4.8,4.8s2.1,4.8,4.8,4.8h10.8
	C-697.7,935.6-695.5,933.4-695.5,930.8z"/>
<path class="st2" d="M-794.6,930.8c0,2.6,2.1,4.8,4.8,4.8h62.9c2.6,0,4.8-2.1,4.8-4.8c0-2.6-2.1-4.8-4.8-4.8h-62.9
	C-792.5,926.1-794.6,928.2-794.6,930.8z"/>
<path class="st2" d="M-794.6,911.2c0,2.6,2.1,4.8,4.8,4.8h89.5c2.6,0,4.8-2.1,4.8-4.8s-2.1-4.8-4.8-4.8h-89.5
	C-792.5,906.5-794.6,908.6-794.6,911.2z"/>
<path class="st2" d="M-794.6,950.4c0,2.6,2.1,4.8,4.8,4.8h89.5c2.6,0,4.8-2.1,4.8-4.8c0-2.6-2.1-4.8-4.8-4.8h-89.5
	C-792.5,945.7-794.6,947.8-794.6,950.4z"/>
<path class="st4" d="M-1180.3,416.3c-48.7,0-88.1,30.4-88.1,67.9c0,19.3,10.5,36.8,27.4,49.2l-10.5,28.9l31.7-17.4
	c11.9,4.6,25.3,7.2,39.5,7.2c48.7,0,88.1-30.4,88.1-67.9S-1131.6,416.3-1180.3,416.3z"/>
<g class="st1">
	<path class="st2" d="M-1226.1,526.7c-16.9-12.4-27.4-29.8-27.4-49.2c0-22.7,14.5-42.8,36.7-55.1c-30.5,10.7-51.7,34.3-51.7,61.8
		c0,19.3,10.5,36.8,27.4,49.2l-10.5,28.9l19.6-10.7l5.8-15.7C-1226.1,535.8-1223.4,528.8-1226.1,526.7z"/>
</g>
<path class="st2" d="M-1115.1,432.4c-17.5-13.5-40.6-20.9-65.2-20.9s-47.7,7.4-65.2,20.9c-17.8,13.7-27.7,32.1-27.7,51.8
	c0,19,9.6,37.3,26.5,50.8l-9.3,25.6c-0.7,1.9-0.1,3.9,1.4,5.2c0.9,0.8,2,1.1,3.1,1.1c0.8,0,1.6-0.2,2.3-0.6l29.8-16.3
	c12.3,4.5,25.4,6.7,39.1,6.7c24.6,0,47.7-7.4,65.2-20.9c17.8-13.7,27.7-32.1,27.7-51.8C-1087.4,464.6-1097.2,446.2-1115.1,432.4z
	 M-1180.3,547.3c-13.3,0-26-2.3-37.8-6.9c-1.3-0.5-2.8-0.4-4,0.3l-20.7,11.3l6.2-17c0.7-2,0-4.2-1.7-5.5
	c-16.4-12-25.4-28.1-25.4-45.3c0-34.8,37.4-63.1,83.3-63.1c46,0,83.3,28.3,83.3,63.1S-1134.3,547.3-1180.3,547.3z"/>
<path class="st2" d="M-1137.3,452.2h-10.8c-2.6,0-4.8,2.1-4.8,4.8c0,2.6,2.1,4.8,4.8,4.8h10.8c2.6,0,4.8-2.1,4.8-4.8
	C-1132.6,454.4-1134.7,452.2-1137.3,452.2z"/>
<path class="st2" d="M-1226.9,461.8h62.9c2.6,0,4.8-2.1,4.8-4.8s-2.1-4.8-4.8-4.8h-62.9c-2.6,0-4.8,2.1-4.8,4.8
	C-1231.6,459.6-1229.5,461.8-1226.9,461.8z"/>
<path class="st2" d="M-1226.9,501h10.8c2.6,0,4.8-2.1,4.8-4.8s-2.1-4.8-4.8-4.8h-10.8c-2.6,0-4.8,2.1-4.8,4.8
	C-1231.6,498.8-1229.5,501-1226.9,501z"/>
<path class="st2" d="M-1137.3,491.4h-62.9c-2.6,0-4.8,2.1-4.8,4.8c0,2.6,2.1,4.8,4.8,4.8h62.9c2.6,0,4.8-2.1,4.8-4.8
	C-1132.6,493.6-1134.7,491.4-1137.3,491.4z"/>
<path class="st2" d="M-1137.3,471.8h-89.5c-2.6,0-4.8,2.1-4.8,4.8s2.1,4.8,4.8,4.8h89.5c2.6,0,4.8-2.1,4.8-4.8
	S-1134.7,471.8-1137.3,471.8z"/>
<path class="st2" d="M-1137.3,511h-89.5c-2.6,0-4.8,2.1-4.8,4.8c0,2.6,2.1,4.8,4.8,4.8h89.5c2.6,0,4.8-2.1,4.8-4.8
	C-1132.6,513.2-1134.7,511-1137.3,511z"/>
<path class="st11" d="M283.4,207.2H179.2c-14.8,0-26.8-12-26.8-26.8v-3.9c0-14.8,12-26.8,26.8-26.8h104.2c14.8,0,26.8,12,26.8,26.8
	v3.9C310.2,195.2,298.2,207.2,283.4,207.2z"/>
<path class="st11" d="M326.1,277.8H221.9c-14.8,0-26.8-12-26.8-26.8v-3.9c0-14.8,12-26.8,26.8-26.8h104.2c14.8,0,26.8,12,26.8,26.8
	v3.9C353,265.8,340.9,277.8,326.1,277.8z"/>
<path class="st2" d="M79,300.4c-29,0-52.6-23.6-52.6-52.6S50,195.3,79,195.3s52.6,23.6,52.6,52.6S107.9,300.4,79,300.4z M79,204
	c-24.3,0-44,19.7-44,43.9s19.7,43.9,43.9,43.9s43.9-19.7,43.9-43.9C122.9,223.7,103.2,204,79,204z"/>
<path class="st2" d="M157.9,361.3h-8.6v-23.1c0-24.2-18.9-44.5-43-46.4l0.7-8.6c28.6,2.2,50.9,26.3,50.9,55V361.3z"/>
<path class="st2" d="M8.6,361.3H0v-23.1c0-28.8,22.5-52.9,51.1-55l0.6,8.6C27.6,293.6,8.6,314,8.6,338.2V361.3z"/>
<circle class="st2" cx="60.6" cy="246.1" r="9.1"/>
<circle class="st2" cx="95.9" cy="246.1" r="9.1"/>
<path class="st2" d="M431.9,300.7c-29,0-52.6-23.6-52.6-52.6s23.6-52.6,52.6-52.6s52.6,23.6,52.6,52.6S460.9,300.7,431.9,300.7z
	 M431.9,204.2c-24.2,0-43.9,19.7-43.9,43.9s19.7,43.9,43.9,43.9c24.2,0,43.9-19.7,43.9-43.9C475.8,223.9,456.1,204.2,431.9,204.2z"
	/>
<path class="st2" d="M510.9,361.6h-8.6v-23.1c0-24.2-18.9-44.5-43-46.4l0.7-8.6c28.6,2.2,50.9,26.3,50.9,55V361.6z"/>
<path class="st2" d="M361.6,361.6H353v-23.1c0-28.8,22.5-52.9,51.1-55l0.6,8.6c-24.2,1.8-43.1,22.1-43.1,46.4V361.6z"/>
<circle class="st2" cx="413.5" cy="246.3" r="9.1"/>
<circle class="st2" cx="448.8" cy="246.3" r="9.1"/>
<g>
	<path class="st2" d="M326.7,922.8H198.2c-18.2,0-33.1-14.8-33.1-33.1V885c0-18.2,14.8-33.1,33.1-33.1h128.4
		c18.2,0,33.1,14.8,33.1,33.1v4.8C359.7,908,344.9,922.8,326.7,922.8z M198.2,861.9c-12.7,0-23.1,10.3-23.1,23.1v4.8
		c0,12.7,10.3,23.1,23.1,23.1h128.4c12.7,0,23.1-10.3,23.1-23.1V885c0-12.7-10.3-23.1-23.1-23.1H198.2z"/>
	<path class="st2" d="M357.5,943.5c-49.3,0-53.1-20.9-53.4-23.4l9.9-1.1c0,0,0-0.1,0-0.2c0,0.1,3.2,14,40.8,14.6
		c-2.6-8.2-6-22.9-5-39.7l10,0.6c-1.4,23,6.6,41.9,6.7,42.1c0.7,1.5,0.5,3.3-0.4,4.7s-2.4,2.3-4.1,2.3
		C360.4,943.4,358.9,943.5,357.5,943.5z"/>
	<path class="st2" d="M277,841.3H148.6c-18.2,0-33.1-14.8-33.1-33.1v-4.8c0-18.2,14.8-33.1,33.1-33.1H277
		c18.2,0,33.1,14.8,33.1,33.1v4.8C310.1,826.4,295.2,841.3,277,841.3z M148.6,780.4c-12.7,0-23.1,10.3-23.1,23.1v4.8
		c0,12.7,10.3,23.1,23.1,23.1H277c12.7,0,23.1-10.3,23.1-23.1v-4.8c0-12.7-10.3-23.1-23.1-23.1H148.6z"/>
	<path class="st2" d="M117.8,861.9c-1.4,0-2.9,0-4.4-0.1c-1.7,0-3.2-0.9-4.1-2.3c-0.9-1.4-1-3.2-0.4-4.7c0.1-0.2,8.1-19.2,6.7-42.1
		l10-0.6c1.1,16.8-2.4,31.5-5,39.7c37.6-0.6,40.7-14.5,40.8-14.6c0,0.1,0,0.2,0,0.2l9.9,1.1C170.9,841,167,861.9,117.8,861.9z"/>
	<path class="st2" d="M36.3,934c-33.6,0-61-27.3-61-61s27.3-61,61-61c33.6,0,61,27.3,61,61S69.9,934,36.3,934z M36.3,822.1
		c-28.1,0-51,22.9-51,51s22.9,51,51,51s51-22.9,51-51C87.2,844.9,64.4,822.1,36.3,822.1z"/>
	<path class="st2" d="M127.9,1004.6h-10v-26.8c0-28-21.9-51.7-49.8-53.8l0.8-10c33.1,2.5,59.1,30.5,59.1,63.8L127.9,1004.6
		L127.9,1004.6z"/>
	<path class="st2" d="M-45.3,1004.6h-10v-26.8c0-33.3,26-61.4,59.3-63.8l0.7,10c-28.1,2-50,25.7-50,53.8V1004.6z"/>
	<circle class="st2" cx="15" cy="870.9" r="10.6"/>
	<circle class="st2" cx="55.9" cy="870.9" r="10.6"/>
	<path class="st2" d="M445.6,947c-33.6,0-61-27.3-61-61s27.3-61,61-61c33.6,0,61,27.3,61,61S479.2,947,445.6,947z M445.6,835.1
		c-28.1,0-51,22.9-51,51s22.9,51,51,51s51-22.9,51-51S473.7,835.1,445.6,835.1z"/>
	<path class="st2" d="M537.2,1017.7h-10v-26.8c0-28-21.9-51.7-49.8-53.8l0.8-10c33.1,2.5,59.1,30.5,59.1,63.8L537.2,1017.7
		L537.2,1017.7z"/>
	<path class="st2" d="M364,1017.7h-10v-26.8c0-33.3,26-61.4,59.3-63.8l0.7,10c-28.1,2-50,25.7-50,53.8V1017.7z"/>
	<circle class="st2" cx="424.3" cy="884" r="10.6"/>
	<circle class="st2" cx="465.3" cy="884" r="10.6"/>
</g>
<g class="st1">
	<path class="st2" d="M403.3,292.2h-6.6c-21,0-38,17-38,38v31.4h12.4v-15c0-10.8,3.2-21.4,9.3-30.4c1.4-2.1,5.5-12.5,28.3-20.9
		C413.9,289.4,401.3,292.6,403.3,292.2z"/>
</g>
<path class="st12" d="M432.8,295.9c-26.2-0.1-47.3-21.4-47.3-47.6c0-26.1,20.9-47.2,46.9-47.6c-19.4,6.9-33.3,25.6-33.3,47.5
	C399,270.3,413.1,289.1,432.8,295.9z"/>
<path class="st0" d="M63.8,361.5l90.8-0.1V333c0-24.3-19.2-44.3-43.5-45.4l0,0l-20.3,8.6H71.9l-20.5-8.6h-2.3
	c-24.5,0-44.5,19.6-45.1,44l-0.7,29.8H48"/>
<path class="st8" d="M46.3,284.2L46.3,284.2c17.8,16.6,47.1,16,64.1-1.2c0.3-0.4,0.7-0.7,1-1.1c20.5-20.8,18.7-53-4.1-71.7l0,0
	c-16.1-13.2-40.7-12.4-55.7,1.9l-5.8,5.5C26.4,236.4,26.6,265.8,46.3,284.2z"/>
<path class="st2" d="M79,300.7c-29,0-52.6-23.6-52.6-52.6S50,195.6,79,195.6s52.6,23.6,52.6,52.6S107.9,300.7,79,300.7z M79,204.2
	c-24.2,0-43.9,19.7-43.9,43.9C35,272.3,54.7,292,79,292c24.2,0,43.9-19.7,43.9-43.9C122.9,223.9,103.2,204.2,79,204.2z"/>
<path class="st2" d="M157.9,361.6h-8.6v-23.1c0-24.2-18.9-44.5-43-46.4l0.7-8.6c28.6,2.2,50.9,26.3,50.9,55V361.6z"/>
<path class="st2" d="M8.6,361.6H0v-23.1c0-28.8,22.5-52.9,51.1-55l0.6,8.6c-24.2,1.8-43.1,22.1-43.1,46.4
	C8.6,338.5,8.6,361.6,8.6,361.6z"/>
<circle class="st2" cx="60.6" cy="246.3" r="9.1"/>
<circle class="st2" cx="95.9" cy="246.3" r="9.1"/>
<g class="st1">
	<path class="st2" d="M50.3,292.2h-6.6c-21,0-38,17-38,38v31.4h12.4v-15c0-10.8,3.2-21.4,9.3-30.4c1.4-2.1,5.5-12.5,28.3-20.9
		C61,289.4,48.4,292.5,50.3,292.2z"/>
</g>
<path class="st12" d="M79.8,295.9c-26.2-0.1-47.3-21.4-47.3-47.6c0-26.1,20.9-47.2,46.9-47.6c-19.4,6.9-33.3,25.6-33.3,47.5
	C46.1,270.3,60.2,289,79.8,295.9z"/>
<rect x="981.9" y="297.4" class="st0" width="100" height="100"/>
<rect x="1108.1" y="297.4" class="st10" width="100" height="100"/>
<rect x="1235.9" y="297.4" class="st11" width="100" height="100"/>
<path class="st2" d="M329.4,279.6H218.7c-15.7,0-28.5-12.8-28.5-28.5V247c0-15.7,12.8-28.5,28.5-28.5h110.7
	c15.7,0,28.5,12.8,28.5,28.5v4.1C357.9,266.8,345.1,279.6,329.4,279.6z M218.7,227.1c-11,0-19.9,8.9-19.9,19.9v4.1
	c0,11,8.9,19.9,19.9,19.9h110.7c11,0,19.9-8.9,19.9-19.9V247c0-11-8.9-19.9-19.9-19.9H218.7z"/>
<path class="st2" d="M355.9,297.6c-42.5,0-45.8-18-46-20.1l8.6-1c0,0,0-0.1,0-0.2c0,0.1,2.7,12.1,35.1,12.6
	c-2.2-7.1-5.2-19.7-4.3-34.2l8.6,0.5c-1.2,19.8,5.7,36.1,5.7,36.3c0.6,1.3,0.4,2.8-0.3,4c-0.8,1.2-2.1,2-3.5,2
	C358.4,297.6,357.1,297.6,355.9,297.6z"/>
<path class="st2" d="M286.5,209.5H175.8c-15.7,0-28.5-12.8-28.5-28.5v-4.1c0-15.7,12.8-28.5,28.5-28.5h110.7
	c15.7,0,28.5,12.8,28.5,28.5v4.1C315,196.7,302.2,209.5,286.5,209.5z M175.8,157c-11,0-19.9,8.9-19.9,19.9v4.1
	c0,11,8.9,19.9,19.9,19.9h110.7c11,0,19.9-8.9,19.9-19.9v-4.1c0-11-8.9-19.9-19.9-19.9H175.8z"/>
<path class="st2" d="M149.2,227.3c-1.2,0-2.5,0-3.8,0c-1.4,0-2.8-0.8-3.5-2c-0.8-1.2-0.9-2.7-0.3-4c0.1-0.2,7-16.6,5.7-36.3l8.6-0.5
	c0.9,14.5-2.1,27.1-4.3,34.2c32.4-0.5,35.1-12.5,35.1-12.6c0,0.1,0,0.2,0,0.2l8.6,1C195,209.3,191.7,227.3,149.2,227.3z"/>
<path class="st2" d="M167.1,178.5c0,2.3,1.8,4.1,4.1,4.1h51.3c2.3,0,4.1-1.8,4.1-4.1s-1.8-4.1-4.1-4.1h-51.3
	C168.9,174.4,167.1,176.2,167.1,178.5z"/>
<path class="st2" d="M234.2,178.5c0,2.3,1.8,4.1,4.1,4.1h51.3c2.3,0,4.1-1.8,4.1-4.1s-1.8-4.1-4.1-4.1h-51.3
	C236.1,174.4,234.2,176.2,234.2,178.5z"/>
<path class="st2" d="M231.3,249c0,2.3,1.8,4.1,4.1,4.1h77.2c2.3,0,4.1-1.8,4.1-4.1s-1.8-4.1-4.1-4.1h-77.2
	C233.2,244.9,231.3,246.8,231.3,249z"/>
</svg>
