<?xml version="1.0" encoding="utf-8"?>
<!-- Generator: Adobe Illustrator 25.0.1, SVG Export Plug-In . SVG Version: 6.00 Build 0)  -->
<svg version="1.1" id="Layer_1" xmlns="http://www.w3.org/2000/svg" xmlns:xlink="http://www.w3.org/1999/xlink" x="0px" y="0px"
	 viewBox="0 0 512 512" style="enable-background:new 0 0 512 512;" xml:space="preserve">
<style type="text/css">
	.st0{fill:#EAE8E8;}
	.st1{opacity:0.1;}
	.st2{fill:#231F20;}
	.st3{fill:#D8D4D4;}
	.st4{fill:#F57555;}
	.st5{fill:#F4B846;}
	.st6{fill:#62B07E;}
	.st7{fill:#EFAB3C;}
	.st8{fill:#E59C33;}
	.st9{fill:#ED963E;}
	.st10{fill:#DD8536;}
	.st11{fill:#008075;}
	.st12{fill:#03B68C;}
	.st13{fill:#5AC0A5;}
</style>
<g>
	<path class="st0" d="M-2088.4,852.7h-16.7c-18.9,0-34.2-15.3-34.2-34.2V578.8c0-18.9,15.3-34.2,34.2-34.2h239.7
		c18.9,0,34.2,15.3,34.2,34.2v239.7c0,18.9-15.3,34.2-34.2,34.2h-206.4"/>
	<g class="st1">
		<path class="st2" d="M-2123.6,818.5V578.8c0-18.9,15.3-34.2,34.2-34.2h-15.7c-18.9,0-34.2,15.3-34.2,34.2v239.7
			c0,18.9,15.3,34.2,34.2,34.2h15.7C-2108.3,852.7-2123.6,837.4-2123.6,818.5z"/>
	</g>
	<path class="st0" d="M-1865.4,544.5h-239.7c-18.9,0-34.2,15.3-34.2,34.2V609h308.2v-30.3C-1831.2,559.9-1846.5,544.5-1865.4,544.5z
		"/>
	<polyline class="st3" points="-1878,626.3 -2139.3,626.3 -2139.3,609.1 -1831.2,609.1 -1831.2,626.3 -1861.7,626.3 	"/>
	<circle class="st4" cx="-2098.8" cy="578.2" r="10"/>
	<circle class="st5" cx="-2064.4" cy="578.2" r="10"/>
	<circle class="st6" cx="-2030" cy="578.2" r="10"/>
	<path class="st2" d="M-1865.4,539.5h-239.7c-21.6,0-39.2,17.6-39.2,39.2V609v17.2v192.2c0,21.6,17.6,39.2,39.2,39.2h16.7
		c2.8,0,5-2.2,5-5s-2.2-5-5-5h-16.7c-16.1,0-29.3-13.1-29.3-29.3v-187h256.4c2.8,0,5-2.2,5-5s-2.2-5-5-5h-256.4v-7.2h298.2v7.2
		h-25.5c-2.8,0-5,2.2-5,5s2.2,5,5,5h25.5v187.2c0,16.1-13.1,29.3-29.3,29.3h-206.4c-2.8,0-5,2.2-5,5s2.2,5,5,5h206.4
		c21.6,0,39.2-17.6,39.2-39.2V626.3v-17.2v-30.3C-1826.2,557.1-1843.8,539.5-1865.4,539.5z M-2134.3,604.1v-25.3
		c0-16.1,13.1-29.3,29.3-29.3h239.7c16.1,0,29.3,13.1,29.3,29.3v25.3H-2134.3z"/>
	<path class="st2" d="M-2098.8,563.2c-8.2,0-15,6.7-15,15c0,8.2,6.7,15,15,15c8.2,0,15-6.7,15-15
		C-2083.9,569.9-2090.6,563.2-2098.8,563.2z M-2098.8,583.2c-2.7,0-5-2.2-5-5c0-2.7,2.2-5,5-5c2.7,0,5,2.2,5,5
		C-2093.9,580.9-2096.1,583.2-2098.8,583.2z"/>
	<path class="st2" d="M-2064.4,563.2c-8.2,0-15,6.7-15,15c0,8.2,6.7,15,15,15c8.2,0,15-6.7,15-15
		C-2049.5,569.9-2056.2,563.2-2064.4,563.2z M-2064.4,583.2c-2.7,0-5-2.2-5-5c0-2.7,2.2-5,5-5c2.7,0,5,2.2,5,5
		C-2059.5,580.9-2061.7,583.2-2064.4,583.2z"/>
	<path class="st2" d="M-2030,563.2c-8.2,0-15,6.7-15,15c0,8.2,6.7,15,15,15c8.2,0,15-6.7,15-15
		C-2015.1,569.9-2021.8,563.2-2030,563.2z M-2030,583.2c-2.7,0-5-2.2-5-5c0-2.7,2.2-5,5-5s5,2.2,5,5
		C-2025,580.9-2027.3,583.2-2030,583.2z"/>
	<path class="st2" d="M-1864.2,573.2h-87.8c-2.8,0-5,2.2-5,5s2.2,5,5,5h87.8c2.8,0,5-2.2,5-5S-1861.4,573.2-1864.2,573.2z"/>
</g>
<g>
	<polygon class="st7" points="-1363.3,639 -1363.4,639 -1434.3,680 -1535.5,621.5 -1535.5,738.5 -1363.3,838 	"/>
	<polygon class="st8" points="-1363.2,639 -1363.3,639 -1363.3,838 -1363.2,838 -1190.8,738.5 -1190.8,621.4 -1292.3,680 	"/>
	<g>
		<polygon class="st9" points="-1363.3,440.1 -1535.5,539.5 -1363.3,638.9 		"/>
		<path class="st9" d="M-1363.3,639L-1363.3,639L-1363.3,639z"/>
	</g>
	<polygon class="st10" points="-1363.3,440.1 -1363.3,638.9 -1363.3,639 -1363.3,639 -1363.3,639 -1363.2,639 -1190.9,539.5 
		-1190.8,539.6 -1190.8,539.5 -1363.2,440 	"/>
	<g>
		<polygon class="st5" points="-1190.9,539.5 -1363.2,639 -1363.2,639 -1363.2,639 -1292.3,680 -1120,580.5 		"/>
		<polygon class="st5" points="-1535.5,539.5 -1535.5,539.5 -1535.5,539.5 -1606.7,580.5 -1434.3,680 -1363.3,639 		"/>
	</g>
	<g>
		<polygon class="st7" points="-1300.4,403.6 -1363.2,440 -1363.2,440 -1363.2,440 -1191,539.4 -1128.1,503.1 -1128.1,503.2 
			-1128.1,503.1 		"/>
		<polyline class="st7" points="-1535.5,539.5 -1535.5,539.5 -1363.3,440.1 -1426.5,403.6 -1598.9,503.1 -1535.5,539.5 		"/>
	</g>
	<path class="st2" d="M-1619.3,580.5c0,4.5,2.4,8.7,6.3,11l64.8,37.4v109.7c0,4.5,2.4,8.7,6.3,11l172.3,99.5h0.1
		c0.5,0.3,0.9,0.5,1.4,0.7h0.1c0.4,0.2,0.9,0.3,1.4,0.5c0.1,0,0.2,0.1,0.4,0.1c0.4,0.1,0.8,0.2,1.1,0.2c0.1,0,0.3,0,0.4,0.1
		c0.5,0.1,1,0.1,1.5,0.1s1,0,1.5-0.1c0.1,0,0.3,0,0.4-0.1c0.4-0.1,0.8-0.1,1.1-0.2c0.1,0,0.2-0.1,0.4-0.1c0.5-0.1,0.9-0.3,1.4-0.5
		h0.1c0.5-0.2,0.9-0.4,1.4-0.7h0.1l172.4-99.5c3.9-2.3,6.3-6.4,6.3-11V628.7l64.5-37.3c3.9-2.3,6.3-6.4,6.3-11s-2.4-8.7-6.3-11
		l-52.1-30.1l43.3-25c0.2-0.1,0.3-0.2,0.5-0.2c4-2.2,6.5-6.5,6.5-11.1c0-4.5-2.4-8.7-6.3-11l-172.4-99.5c-3.9-2.3-8.8-2.3-12.7,0
		l-56.6,32.8l-56.9-32.8c-3.9-2.3-8.7-2.3-12.7,0l-172.3,99.5c-3.9,2.3-6.3,6.4-6.3,11c0,4.5,2.4,8.7,6.3,11l44.3,25.4l-52.1,30
		C-1616.9,571.8-1619.3,576-1619.3,580.5z M-1522.9,643.5l82.3,47.5c0.5,0.3,1,0.5,1.5,0.7c1.5,0.6,3.2,1,4.8,1
		c1.1,0,2.2-0.1,3.2-0.4c1.1-0.3,2.1-0.7,3.1-1.3l52.1-30.1v155.3l-147-84.9V643.5L-1522.9,643.5z M-1216.1,539.5l-104.5,60.3
		l-29.9,17.3V461.9L-1216.1,539.5z M-1375.8,461.9v155.2l-134.4-77.6l20.8-12L-1375.8,461.9z M-1203.5,643.3v87.9l-147,84.9V661
		l51.9,30c2,1.1,4.1,1.7,6.3,1.7c0.9,0,1.8-0.1,2.7-0.3c0.2,0,0.3-0.1,0.5-0.1l0,0c1.1-0.3,2.1-0.7,3-1.3L-1203.5,643.3z
		 M-1292.3,665.4l-45.6-26.3l36.3-21l110.7-63.9l45.6,26.3L-1292.3,665.4z M-1300.4,418.2l147,84.9l-37.6,21.7l-70.5-40.7
		l-76.4-44.1L-1300.4,418.2z M-1426.5,418.2l37.9,21.9l-72.1,41.6l-74.8,43.2l-38-21.8L-1426.5,418.2z M-1535.5,554.1l147,84.9
		l-45.7,26.4l-94.9-54.8l0,0l-52.1-30.1L-1535.5,554.1z"/>
</g>
<polygon class="st7" points="256,274.2 256,274.2 185,315.2 83.8,256.7 83.8,373.7 256,473.1 "/>
<polygon class="st8" points="256.1,274.2 256,274.2 256,473.1 256.1,473.2 428.5,373.7 428.5,256.6 327,315.2 "/>
<g>
	<polygon class="st9" points="256,75.3 83.8,174.7 256,274.1 	"/>
	<path class="st9" d="M256,274.2L256,274.2L256,274.2z"/>
</g>
<polygon class="st10" points="256,75.3 256,274.1 256,274.1 256,274.2 256,274.2 256.1,274.2 428.4,174.7 428.5,174.7 428.5,174.7 
	256.1,75.2 "/>
<g>
	<polygon class="st5" points="428.4,174.7 256.1,274.2 256.1,274.2 256.1,274.2 327,315.2 499.4,215.7 	"/>
	<polygon class="st5" points="83.8,174.7 83.8,174.7 83.8,174.7 12.7,215.7 185,315.2 256,274.1 	"/>
</g>
<g>
	<polygon class="st7" points="318.9,38.8 256.1,75.2 256.1,75.2 256.1,75.2 428.3,174.6 491.2,138.3 491.2,138.3 491.2,138.3 	"/>
	<polyline class="st7" points="83.8,174.7 83.8,174.7 256,75.3 192.8,38.8 20.4,138.3 83.8,174.7 	"/>
</g>
<path class="st2" d="M0,215.6c0,4.5,2.4,8.7,6.3,11L71.1,264v109.7c0,4.5,2.4,8.7,6.3,11l172.3,99.5h0.1c0.5,0.3,0.9,0.5,1.4,0.7
	h0.1c0.4,0.2,0.9,0.3,1.4,0.5c0.1,0,0.2,0.1,0.4,0.1c0.4,0.1,0.8,0.2,1.1,0.2c0.1,0,0.3,0,0.4,0.1c0.5,0.1,1,0.1,1.5,0.1
	s1,0,1.5-0.1c0.1,0,0.3,0,0.4-0.1c0.4-0.1,0.8-0.1,1.1-0.2c0.1,0,0.2-0.1,0.4-0.1c0.5-0.1,0.9-0.3,1.4-0.5h0.1
	c0.5-0.2,0.9-0.4,1.4-0.7h0.1l172.4-99.5c3.9-2.3,6.3-6.4,6.3-11V263.9l64.5-37.3c3.9-2.3,6.3-6.4,6.3-11s-2.4-8.7-6.3-11
	l-52.1-30.1l43.3-25c0.2-0.1,0.3-0.2,0.5-0.2c4-2.2,6.5-6.5,6.5-11.1c0-4.5-2.4-8.7-6.3-11L325.2,27.8c-3.9-2.3-8.8-2.3-12.7,0
	l-56.6,32.8L199,27.8c-3.9-2.3-8.7-2.3-12.7,0L14.1,127.3c-3.9,2.3-6.3,6.4-6.3,11c0,4.5,2.4,8.7,6.3,11l44.3,25.4l-52.1,30
	C2.4,206.9,0,211.1,0,215.6z M96.4,278.6l82.3,47.5c0.5,0.3,1,0.5,1.5,0.7c1.5,0.6,3.2,1,4.8,1c1.1,0,2.2-0.1,3.2-0.4
	c1.1-0.3,2.1-0.7,3.1-1.3l52.1-30.1v155.3l-147-84.9L96.4,278.6L96.4,278.6z M403.2,174.7L298.7,235l-29.9,17.3V97.1L403.2,174.7z
	 M243.5,97.1v155.2l-134.4-77.6l20.8-12L243.5,97.1z M415.8,278.5v87.9l-147,84.9V296.1l51.9,30c2,1.1,4.1,1.7,6.3,1.7
	c0.9,0,1.8-0.1,2.7-0.3c0.2,0,0.3-0.1,0.5-0.1l0,0c1.1-0.3,2.1-0.7,3-1.3L415.8,278.5z M327,300.5l-45.6-26.3l36.3-21l110.7-63.9
	l45.6,26.3L327,300.5z M318.9,53.4l147,84.9L428.3,160l-70.5-40.7l-76.4-44.1L318.9,53.4z M192.8,53.4l37.9,21.9l-72.1,41.6
	l-74.8,43.2l-38-21.8L192.8,53.4z M83.8,189.3l147,84.9L185,300.5l-94.9-54.8l0,0l-52.1-30L83.8,189.3z"/>
<path class="st0" d="M380.7,57.9l0.6,129.5l-4.6,2.7l-77.9,45l-29.9,17.3l-12.7,7.1l-12.7-7.1l-99.6-57.8l-8.6-4.6l-4-2.3V58.1
	c0-15.3,12.4-27.7,27.7-27.7h194C368.3,30.2,380.7,42.6,380.7,57.9z"/>
<g class="st1">
	<path class="st2" d="M135.3,192.4l-4-2.3V57.9c0-15.3,12.4-27.7,27.7-27.7h12.7c-5.3,0-10.3,1.5-14.5,4.1
		c-7.5,4.7-12.7,12.8-13.2,22.2c0,0.5,0,0.9,0,1.4v139.5L135.3,192.4z"/>
</g>
<path class="st0" d="M353,30.2H159c-15.3,0-27.7,12.4-27.7,27.7v24.5h249.4V57.9C380.7,42.6,368.3,30.2,353,30.2z"/>
<polygon class="st3" points="342.8,96.4 131.2,96.4 131.2,82.4 380.7,82.4 380.7,96.4 356,96.4 "/>
<circle class="st11" cx="164" cy="57.4" r="8.1"/>
<circle class="st12" cx="191.9" cy="57.4" r="8.1"/>
<circle class="st13" cx="219.7" cy="57.4" r="8.1"/>
<path class="st2" d="M353,26.1H159c-17.5,0-31.8,14.2-31.8,31.8v127.3l4,2.3l4,2.3v-89.4h207.5c2.2,0,4-1.8,4-4l0,0c0-2.2-1.8-4-4-4
	H135.3v-5.9h241.4v5.9H356c-2.2,0-4,1.8-4,4l0,0c0,2.2,1.8,4,4,4h20.7V190l4-2.1l4-2.5V57.9C384.7,40.4,370.5,26.1,353,26.1z
	 M376.6,78.4H135.3V57.9c0-12.4,9.6-22.7,21.8-23.6c0.6-0.1,1.2-0.1,1.8-0.1h194c13.1,0,23.7,10.6,23.7,23.7L376.6,78.4L376.6,78.4z
	 M138.8,276.4c2.7,2.2,5.7,4,9,5.2L138.8,276.4z"/>
<path class="st2" d="M164,45.3c-0.2,0-0.5,0-0.7,0c-3.9,0.2-7.4,2.3-9.4,5.4c-1.3,1.9-2,4.2-2,6.6c0,6.7,5.4,12.1,12.1,12.1
	c6.7,0,12.1-5.4,12.1-12.1C176.1,50.7,170.7,45.3,164,45.3z M164,61.4c-2.2,0-4-1.8-4-4s1.8-4,4-4s4,1.8,4,4
	C168,59.6,166.2,61.4,164,61.4z"/>
<path class="st2" d="M191.9,45.3c-6.7,0-12.1,5.4-12.1,12.1c0,2.4,0.7,4.7,1.9,6.5c2.2,3.3,5.9,5.6,10.2,5.6c5.1,0,9.5-3.2,11.2-7.6
	c0.6-1.4,0.9-2.9,0.9-4.5C204,50.7,198.5,45.3,191.9,45.3z M191.9,61.4c-1.3,0-2.4-0.6-3.2-1.6c-0.5-0.7-0.9-1.5-0.9-2.5
	c0-2.2,1.8-4,4-4s4,1.8,4,4c0,0.1,0,0.2,0,0.3C195.7,59.8,194,61.4,191.9,61.4z"/>
<path class="st2" d="M219.7,45.3c-6.7,0-12.1,5.4-12.1,12.1s5.4,12.1,12.1,12.1c6.7,0,12.1-5.4,12.1-12.1S226.4,45.3,219.7,45.3z
	 M219.7,61.4c-2.2,0-4-1.8-4-4s1.8-4,4-4s4,1.8,4,4C223.7,59.6,221.9,61.4,219.7,61.4z"/>
<path class="st2" d="M354,53.4h-71c-2.2,0-4,1.8-4,4s1.8,4,4,4h71c2.2,0,4-1.8,4-4S356.2,53.4,354,53.4z"/>
<path class="st2" d="M156.3,173.7h203c2.4,0,4.4-2,4.4-4.4s-2-4.4-4.4-4.4h-203c-2.4,0-4.4,2-4.4,4.4S153.8,173.7,156.3,173.7z"/>
<path class="st2" d="M236.3,264.1h16.6c2.4,0,4.4-2,4.4-4.4s-2-4.4-4.4-4.4h-16.6c-2.4,0-4.4,2-4.4,4.4
	C231.9,262.2,233.8,264.1,236.3,264.1z"/>
<path class="st2" d="M248.6,218.9h110.8c2.4,0,4.4-2,4.4-4.4s-2-4.4-4.4-4.4H248.6c-2.4,0-4.4,2-4.4,4.4
	C244.2,217,246.2,218.9,248.6,218.9z"/>
<path class="st2" d="M156.3,218.9h73.9c2.4,0,4.4-2,4.4-4.4s-2-4.4-4.4-4.4h-73.9c-2.4,0-4.4,2-4.4,4.4
	C151.9,217,153.8,218.9,156.3,218.9z"/>
<path class="st2" d="M196.8,241.5h125.4c1.5,0,2.7-2,2.7-4.4s-1.2-4.4-2.7-4.4H196.8c-1.5,0-2.7,2-2.7,4.4
	C194.1,239.6,195.3,241.5,196.8,241.5z"/>
<path class="st2" d="M156.3,196.3h60.5c2.4,0,4.4-2,4.4-4.4s-2-4.4-4.4-4.4h-60.5c-2.4,0-4.4,2-4.4,4.4
	C151.9,194.4,153.8,196.3,156.3,196.3z"/>
<polygon class="st13" points="359.8,131.5 359.8,118.8 156.3,118.8 156.3,144.1 359.8,143 "/>
<path class="st2" d="M156.3,114.5c-2.4,0-4.4,2-4.4,4.4v25.3c0,2.4,2,4.4,4.4,4.4l203.3,0.6c2.4,0,4.4-1.9,4.4-4.4v-26
	c0-2.4-1.9-4.4-4.4-4.4L156.3,114.5L156.3,114.5z M355.5,139.8H160.6v-16.6h194.8L355.5,139.8L355.5,139.8z"/>
<rect x="-369.1" y="295.4" class="st11" width="64.4" height="64.4"/>
<rect x="-287.8" y="295.4" class="st12" width="64.4" height="64.4"/>
<rect x="-205.5" y="295.4" class="st13" width="64.4" height="64.4"/>
</svg>
