<?xml version="1.0" encoding="iso-8859-1"?>
<!-- Generator: Adobe Illustrator 19.0.0, SVG Export Plug-In . SVG Version: 6.00 Build 0)  -->
<svg xmlns="http://www.w3.org/2000/svg" xmlns:xlink="http://www.w3.org/1999/xlink" version="1.1" id="Layer_1" x="0px" y="0px" viewBox="0 0 512 512" style="enable-background:new 0 0 512 512;" xml:space="preserve">
<path style="fill:#6AC6D8;" d="M90.026,503.084H63.13c-30.431,0-55.104-24.673-55.104-55.106V62.239  c0-30.433,24.673-55.106,55.104-55.106h385.739c30.431,0,55.106,24.673,55.106,55.106v385.739c0,30.433-24.675,55.106-55.106,55.106  H116.766"/>
<path style="fill:#3E495A;" d="M448.868,8.025H63.13c-30.431,0-55.104,24.673-55.104,55.106v48.809h495.948V63.131  C503.974,32.697,479.299,8.025,448.868,8.025z"/>
<polyline style="fill:#738191;" points="428.66,139.627 8.026,139.627 8.026,111.94 503.974,111.94 503.974,139.627   454.865,139.627 "/>
<circle style="fill:#F57555;" cx="73.176" cy="62.187" r="16.049"/>
<circle style="fill:#F4B846;" cx="128.547" cy="62.187" r="16.049"/>
<circle style="fill:#62B07E;" cx="183.907" cy="62.187" r="16.05"/>
<g>
	<polygon style="fill:#F4B846;" points="436.264,239.044 401.71,208.489 444.17,195.286 444.17,195.286  "/>
	<circle style="fill:#F4B846;" cx="303.766" cy="346.608" r="15.495"/>
	<circle style="fill:#F4B846;" cx="218.039" cy="303.017" r="15.495"/>
	<circle style="fill:#F4B846;" cx="105.36" cy="404.333" r="15.494"/>
</g>
<g>
	<path style="fill:#231F20;" d="M448.868,0H63.13C28.321,0,0.001,28.32,0.001,63.131v48.809v27.688v309.242   C0.001,483.68,28.321,512,63.13,512h26.896c4.433,0,8.025-3.592,8.025-8.025c0-4.433-3.592-8.025-8.025-8.025H63.13   c-25.96,0-47.079-21.12-47.079-47.081V147.652H428.66c4.433,0,8.025-3.592,8.025-8.025c0-4.432-3.592-8.025-8.025-8.025H16.051   v-11.638h479.899v11.638h-41.084c-4.433,0-8.025,3.592-8.025,8.025c0,4.433,3.592,8.025,8.025,8.025h41.084v301.217   c0,25.961-21.12,47.081-47.081,47.081H116.766c-4.433,0-8.025,3.592-8.025,8.025c0,4.433,3.592,8.025,8.025,8.025h332.102   c34.811,0,63.131-28.32,63.131-63.131V139.627V111.94V63.131C511.999,28.32,483.679,0,448.868,0z M16.051,103.915V63.131   c0-25.961,21.119-47.081,47.079-47.081h385.739c25.961,0,47.081,21.12,47.081,47.081v40.784H16.051z"/>
	<path style="fill:#231F20;" d="M73.173,38.114c-13.274,0-24.074,10.8-24.074,24.074s10.8,24.074,24.074,24.074   c13.273,0,24.072-10.8,24.072-24.074S86.446,38.114,73.173,38.114z M73.173,70.213c-4.425,0-8.025-3.599-8.025-8.025   s3.599-8.025,8.025-8.025c4.424,0,8.023,3.599,8.023,8.025C81.196,66.613,77.597,70.213,73.173,70.213z"/>
	<path style="fill:#231F20;" d="M128.542,38.114c-13.274,0-24.074,10.8-24.074,24.074s10.8,24.074,24.074,24.074   c13.273,0,24.072-10.8,24.072-24.074S141.816,38.114,128.542,38.114z M128.542,70.213c-4.425,0-8.025-3.599-8.025-8.025   s3.599-8.025,8.025-8.025c4.424,0,8.023,3.599,8.023,8.025C136.565,66.613,132.967,70.213,128.542,70.213z"/>
	<path style="fill:#231F20;" d="M183.909,38.114c-13.274,0-24.074,10.8-24.074,24.074s10.8,24.074,24.074,24.074   s24.074-10.8,24.074-24.074S197.183,38.114,183.909,38.114z M183.909,70.213c-4.425,0-8.025-3.599-8.025-8.025   s3.599-8.025,8.025-8.025s8.025,3.599,8.025,8.025C191.934,66.613,188.335,70.213,183.909,70.213z"/>
	<path style="fill:#231F20;" d="M450.855,54.163h-141.23c-4.433,0-8.025,3.592-8.025,8.025s3.592,8.025,8.025,8.025h141.23   c4.432,0,8.025-3.592,8.025-8.025C458.88,57.756,455.288,54.163,450.855,54.163z"/>
	<path style="fill:#231F20;" d="M105.356,380.815c-12.968,0-23.518,10.55-23.518,23.519c0,12.969,10.55,23.52,23.518,23.52   c12.969,0,23.52-10.55,23.52-23.52c0-2.976-0.562-5.822-1.574-8.444l79.011-72.498c3.454,1.995,7.457,3.144,11.724,3.144   c6.606,0,12.581-2.741,16.857-7.141l45.443,25.218c-0.056,0.658-0.091,1.322-0.091,1.994c0,12.969,10.551,23.519,23.52,23.519   c12.969,0,23.52-10.55,23.52-23.519c0-3.325-0.698-6.489-1.947-9.36l95.095-101.489l10.515,9.297   c1.489,1.318,3.388,2.014,5.317,2.014c0.882,0,1.771-0.146,2.63-0.443c2.738-0.951,4.751-3.303,5.266-6.156l7.906-43.758   c0.499-2.759-0.48-5.58-2.582-7.437c-2.099-1.856-5.018-2.481-7.697-1.652l-42.461,13.202c-2.768,0.861-4.856,3.146-5.464,5.98   c-0.608,2.833,0.359,5.775,2.53,7.694l12.013,10.623l-94.126,100.455c-3.167-1.59-6.737-2.49-10.515-2.49   c-6.501,0-12.395,2.652-16.656,6.93L241.49,304.7c0.04-0.557,0.067-1.118,0.067-1.685c0-12.969-10.551-23.52-23.52-23.52   c-12.969,0-23.52,10.55-23.52,23.52c0,2.845,0.508,5.574,1.438,8.1l-79.19,72.662C113.384,381.893,109.495,380.815,105.356,380.815   z M433.922,206.876l-3.019,16.714l-13.198-11.671L433.922,206.876z M303.767,339.136c4.12,0,7.471,3.351,7.471,7.471   c0,4.119-3.351,7.469-7.471,7.469c-4.12,0-7.471-3.351-7.471-7.469C296.296,342.487,299.647,339.136,303.767,339.136z    M105.356,411.804c-4.118,0-7.468-3.351-7.468-7.471c0-4.119,3.351-7.469,7.468-7.469c4.12,0,7.471,3.351,7.471,7.469   C112.827,408.452,109.476,411.804,105.356,411.804z M218.037,295.545c4.12,0,7.471,3.351,7.471,7.471   c0,4.121-3.351,7.471-7.471,7.471c-4.119,0-7.471-3.351-7.471-7.471C210.567,298.896,213.918,295.545,218.037,295.545z"/>
	<path style="fill:#231F20;" d="M113.815,470.62v-13.742h36.212v13.742c0,4.433,3.592,8.025,8.025,8.025s8.025-3.592,8.025-8.025   v-13.742h36.214v13.742c0,4.433,3.592,8.025,8.025,8.025s8.025-3.592,8.025-8.025v-13.742h36.212v13.742   c0,4.433,3.592,8.025,8.025,8.025c4.433,0,8.025-3.592,8.025-8.025v-13.742h36.214v13.742c0,4.433,3.592,8.025,8.025,8.025   c4.433,0,8.025-3.592,8.025-8.025v-13.742h36.212v13.742c0,4.433,3.592,8.025,8.025,8.025c4.433,0,8.025-3.592,8.025-8.025v-13.742   h36.214v13.742c0,4.433,3.592,8.025,8.025,8.025s8.025-3.592,8.025-8.025v-13.742h14.052c4.433,0,8.025-3.593,8.025-8.025   c0-4.433-3.592-8.025-8.025-8.025H71.367V178.084c0-4.433-3.592-8.025-8.025-8.025c-4.432,0-8.025,3.592-8.025,8.025v12.387H43.715   c-4.433,0-8.025,3.592-8.025,8.025c0,4.433,3.592,8.025,8.025,8.025h11.603v36.213H43.715c-4.433,0-8.025,3.592-8.025,8.025   s3.592,8.025,8.025,8.025h11.603v36.212H43.715c-4.433,0-8.025,3.592-8.025,8.025s3.592,8.025,8.025,8.025h11.603v36.212H43.715   c-4.433,0-8.025,3.592-8.025,8.025c0,4.433,3.592,8.025,8.025,8.025h11.603v36.214H43.715c-4.433,0-8.025,3.592-8.025,8.025   c0,4.433,3.592,8.025,8.025,8.025h11.603v33.284c0,4.432,3.593,8.025,8.025,8.025h34.423v13.742c0,4.433,3.592,8.025,8.025,8.025   C110.223,478.647,113.815,475.052,113.815,470.62z"/>
</g>
<g style="opacity:0.1;">
	<path style="fill:#231F20;" d="M32.992,447.978V62.239c0-30.433,24.674-55.106,55.105-55.106H63.13   c-30.431,0-55.104,24.673-55.104,55.106v385.739c0,30.433,24.673,55.106,55.104,55.106h24.967   C57.665,503.084,32.992,478.411,32.992,447.978z"/>
</g>
<g>
</g>
<g>
</g>
<g>
</g>
<g>
</g>
<g>
</g>
<g>
</g>
<g>
</g>
<g>
</g>
<g>
</g>
<g>
</g>
<g>
</g>
<g>
</g>
<g>
</g>
<g>
</g>
<g>
</g>
</svg>
