<?xml version="1.0" encoding="utf-8"?>
<!-- Generator: Adobe Illustrator 25.0.1, SVG Export Plug-In . SVG Version: 6.00 Build 0)  -->
<svg version="1.1" id="Layer_1" xmlns="http://www.w3.org/2000/svg" xmlns:xlink="http://www.w3.org/1999/xlink" x="0px" y="0px"
	 viewBox="0 0 88.4 173.6" style="enable-background:new 0 0 88.4 173.6;" xml:space="preserve">
<style type="text/css">
	.st0{fill:url(#SVGID_1_);}
	.st1{fill:url(#SVGID_2_);}
	.st2{fill:#FFE494;}
	.st3{fill:url(#SVGID_3_);}
	.st4{fill:#010080;}
	.st5{fill:#FF3158;}
	.st6{fill:url(#SVGID_4_);}
	.st7{fill:url(#SVGID_5_);}
	.st8{fill:url(#SVGID_6_);}
	.st9{fill:url(#SVGID_7_);}
	.st10{fill:url(#SVGID_8_);}
	.st11{fill:url(#SVGID_9_);}
	.st12{fill:url(#SVGID_10_);}
	.st13{fill:url(#SVGID_11_);}
</style>
<g id="Layer_2_1_">
	<g id="layer_1-2">
		
			<linearGradient id="SVGID_1_" gradientUnits="userSpaceOnUse" x1="64.78" y1="1944.3501" x2="75.4702" y2="1944.3501" gradientTransform="matrix(1 0 0 1 0 -1824)">
			<stop  offset="0" style="stop-color:#FD69FF"/>
			<stop  offset="8.000000e-02" style="stop-color:#D050EA"/>
			<stop  offset="0.19" style="stop-color:#9D34D3"/>
			<stop  offset="0.29" style="stop-color:#741DC0"/>
			<stop  offset="0.38" style="stop-color:#560DB2"/>
			<stop  offset="0.46" style="stop-color:#4403AA"/>
			<stop  offset="0.52" style="stop-color:#3E00A7"/>
			<stop  offset="1" style="stop-color:#00AAFF"/>
		</linearGradient>
		<path class="st0" d="M70.1,108.8c0,0-5.4,5-5.4,8.5v9.3c0,2.9,2.3,5.3,5.2,5.4h0.2c2.9-0.1,5.2-2.5,5.2-5.4v-9
			C75.4,113.2,70.1,108.8,70.1,108.8z"/>
		
			<linearGradient id="SVGID_2_" gradientUnits="userSpaceOnUse" x1="12.85" y1="1944.3501" x2="23.5402" y2="1944.3501" gradientTransform="matrix(1 0 0 1 0 -1824)">
			<stop  offset="0" style="stop-color:#FD69FF"/>
			<stop  offset="8.000000e-02" style="stop-color:#D050EA"/>
			<stop  offset="0.19" style="stop-color:#9D34D3"/>
			<stop  offset="0.29" style="stop-color:#741DC0"/>
			<stop  offset="0.38" style="stop-color:#560DB2"/>
			<stop  offset="0.46" style="stop-color:#4403AA"/>
			<stop  offset="0.52" style="stop-color:#3E00A7"/>
			<stop  offset="1" style="stop-color:#00AAFF"/>
		</linearGradient>
		<path class="st1" d="M18.2,108.8c0,0-5.4,5-5.4,8.5v9.3c0,2.9,2.3,5.3,5.2,5.4h0.2c2.9-0.1,5.2-2.5,5.2-5.4v-9
			C23.5,113.2,18.2,108.8,18.2,108.8z"/>
		<path class="st2" d="M83,155.3c-0.1,0-0.1,0-0.2,0h-0.1c-0.1,0-0.1,0-0.2,0.1l0,0c-0.7,0.4-1.3,2.2-1.4,2.4l-0.6,3.6l-1,5.6
			l-0.8,4.3l2.4,2.3l2.9-12.9C83.9,157,83.5,155.6,83,155.3z"/>
		
			<linearGradient id="SVGID_3_" gradientUnits="userSpaceOnUse" x1="64.01" y1="1970.4001" x2="82.64" y2="1970.4001" gradientTransform="matrix(1 0 0 1 0 -1824)">
			<stop  offset="0" style="stop-color:#FEC564"/>
			<stop  offset="0.32" style="stop-color:#FEAA62"/>
			<stop  offset="0.99" style="stop-color:#FF665E"/>
			<stop  offset="1" style="stop-color:#FF655E"/>
		</linearGradient>
		<path class="st3" d="M82.6,155.3L82.6,155.3l-14.4-23.6l-4.2,2.4l16.6,27.1l0.6-3.6C81.2,157.6,81.9,155.7,82.6,155.3L82.6,155.3
			L82.6,155.3z"/>
		<polygon class="st4" points="60.5,150.5 79.6,167 80.6,161.4 64,134.2 		"/>
		<path class="st5" d="M87.2,152.9c-0.1-0.1-0.3-0.1-0.5,0l-4.2,2.4l0,0c0.1,0,0.1,0,0.2-0.1h0.1c0.1,0,0.1,0,0.2,0
			c0.5,0.3,0.9,1.7,1.1,5.4l-2.9,12.9l4.2-2.4l2.9-12.9C88.1,154.6,87.7,153.2,87.2,152.9z"/>
		<path class="st5" d="M5.6,155.3L5.6,155.3c-0.1,0-0.1,0-0.2-0.1l0,0c-0.1,0-0.1,0-0.2,0c-0.5,0.3-0.9,1.7-1.1,5.4L7,173.5l2.4-2.3
			L7,157.6C6.9,157.6,6.3,155.7,5.6,155.3z"/>
		
			<linearGradient id="SVGID_4_" gradientUnits="userSpaceOnUse" x1="5.68" y1="1970.5001" x2="24.31" y2="1970.5001" gradientTransform="matrix(1 0 0 1 0 -1824)">
			<stop  offset="0" style="stop-color:#FEC564"/>
			<stop  offset="0.32" style="stop-color:#FEAA62"/>
			<stop  offset="0.99" style="stop-color:#FF665E"/>
			<stop  offset="1" style="stop-color:#FF655E"/>
		</linearGradient>
		<path class="st6" d="M5.6,155.3L5.6,155.3c0.7,0.4,1.3,2.2,1.3,2.4l0.7,3.6l16.6-27.1l-4.2-2.4L5.6,155.3z"/>
		<polygon class="st4" points="7.6,161.4 8.6,167 27.7,150.5 24.3,134.2 		"/>
		<path class="st2" d="M5.2,155.3c0.1,0,0.1,0,0.2,0l0,0c0.1,0,0.1,0,0.2,0.1l0,0L1.5,153c-0.1-0.1-0.3-0.1-0.4,0
			c-0.5,0.3-0.9,1.7-1.1,5.4l2.9,12.9l4.2,2.4l-2.9-12.9C4.3,157,4.7,155.6,5.2,155.3z"/>
		
			<linearGradient id="SVGID_5_" gradientUnits="userSpaceOnUse" x1="26.85" y1="1985.5502" x2="61.65" y2="1985.5502" gradientTransform="matrix(1 0 0 1 0 -1824)">
			<stop  offset="0" style="stop-color:#FEC564"/>
			<stop  offset="0.65" style="stop-color:#FF8460"/>
			<stop  offset="1" style="stop-color:#FF655E"/>
		</linearGradient>
		<path class="st7" d="M44.2,165.9c10.7,0,17.3-4.9,17.4-8.6H26.8C26.9,161,33.5,165.9,44.2,165.9z"/>
		
			<linearGradient id="SVGID_6_" gradientUnits="userSpaceOnUse" x1="18.15" y1="1968.8501" x2="70.15" y2="1968.8501" gradientTransform="matrix(1 0 0 1 0 -1824)">
			<stop  offset="0" style="stop-color:#FFFFFF"/>
			<stop  offset="0.36" style="stop-color:#F8F8FB"/>
			<stop  offset="0.87" style="stop-color:#E5E6F0"/>
			<stop  offset="1" style="stop-color:#DFE0ED"/>
		</linearGradient>
		<path class="st8" d="M18.1,125c0,14.4,7.3,29,8.4,31.3c0,0,0,0,0,0.1c0,3.5,6.7,8.4,17.7,8.4S62,160,62,156.4
			c0,0,7.9-16.9,8.2-29.8C68.1,127.3,18.1,125,18.1,125z"/>
		
			<linearGradient id="SVGID_7_" gradientUnits="userSpaceOnUse" x1="18.15" y1="1891.1" x2="70.05" y2="1891.1" gradientTransform="matrix(1 0 0 1 0 -1824)">
			<stop  offset="0" style="stop-color:#FEC564"/>
			<stop  offset="0.32" style="stop-color:#FEAA62"/>
			<stop  offset="0.99" style="stop-color:#FF665E"/>
			<stop  offset="1" style="stop-color:#FF655E"/>
		</linearGradient>
		<path class="st9" d="M18.1,53.3V127c4.4,3.9,15,7.3,26.3,7.3c10.8,0,21.7-2.8,25.6-6.9V55C70,27.9,44.3,0.1,44.3,0
			C44.2-0.1,18.1,31.1,18.1,53.3z"/>
		
			<linearGradient id="SVGID_8_" gradientUnits="userSpaceOnUse" x1="38.81" y1="1951.6501" x2="49.5102" y2="1951.6501" gradientTransform="matrix(1 0 0 1 0 -1824)">
			<stop  offset="0" style="stop-color:#FD69FF"/>
			<stop  offset="8.000000e-02" style="stop-color:#D050EA"/>
			<stop  offset="0.19" style="stop-color:#9D34D3"/>
			<stop  offset="0.29" style="stop-color:#741DC0"/>
			<stop  offset="0.38" style="stop-color:#560DB2"/>
			<stop  offset="0.46" style="stop-color:#4403AA"/>
			<stop  offset="0.52" style="stop-color:#3E00A7"/>
			<stop  offset="1" style="stop-color:#00AAFF"/>
		</linearGradient>
		<path class="st10" d="M44.1,116.1c0,0-5.4,5-5.4,8.5v9.3c0,2.9,2.3,5.3,5.2,5.4h0.2c2.9-0.1,5.2-2.5,5.2-5.4v-9
			C49.5,120.5,44.1,116.1,44.1,116.1z"/>
		<path class="st4" d="M18.1,79.7v13.2c4.4,3.9,15.1,7.3,26.3,7.3c10.8,0,21.7-2.8,25.6-7V80c-3.9,4.1-14.8,7-25.6,7
			C33.2,87,22.6,83.6,18.1,79.7z"/>
		<path class="st4" d="M18.1,99.7v2.9c4.4,3.9,15.1,7.3,26.3,7.3c10.8,0,21.7-2.8,25.6-6.9v-3c-3.9,4.1-14.8,7-25.6,7
			C33.2,107.1,22.6,103.6,18.1,99.7z"/>
		<path class="st4" d="M18.1,58v5.9c4.4,3.9,15.1,7.3,26.3,7.3c10.8,0,21.7-2.8,25.6-7v-5.8c-3.9,4.1-14.8,6.9-25.6,6.9
			C33.2,65.4,22.6,61.9,18.1,58z"/>
		
			<linearGradient id="SVGID_9_" gradientUnits="userSpaceOnUse" x1="18.15" y1="1912.6001" x2="70.05" y2="1912.6001" gradientTransform="matrix(1 0 0 1 0 -1824)">
			<stop  offset="0" style="stop-color:#005DFF"/>
			<stop  offset="0.19" style="stop-color:#0852F4"/>
			<stop  offset="0.53" style="stop-color:#1C33D8"/>
			<stop  offset="0.98" style="stop-color:#3C03AA"/>
			<stop  offset="1" style="stop-color:#3E00A7"/>
		</linearGradient>
		<path class="st11" d="M18.1,78.4v13.2c4.4,3.9,15.1,7.3,26.3,7.3c10.8,0,21.7-2.8,25.6-6.9V78.8c-3.9,4.1-14.8,6.9-25.6,6.9
			C33.2,85.7,22.6,82.3,18.1,78.4z"/>
		
			<linearGradient id="SVGID_10_" gradientUnits="userSpaceOnUse" x1="18.15" y1="1927.5502" x2="70.05" y2="1927.5502" gradientTransform="matrix(1 0 0 1 0 -1824)">
			<stop  offset="0" style="stop-color:#FFFFFF"/>
			<stop  offset="0.36" style="stop-color:#F8F8FB"/>
			<stop  offset="0.87" style="stop-color:#E5E6F0"/>
			<stop  offset="1" style="stop-color:#DFE0ED"/>
		</linearGradient>
		<path class="st12" d="M18.1,98.5v2.9c4.4,3.9,15.1,7.3,26.3,7.3c10.8,0,21.7-2.8,25.6-7v-2.9c-3.9,4.1-14.8,6.9-25.6,6.9
			C33.2,105.8,22.6,102.4,18.1,98.5z"/>
		
			<linearGradient id="SVGID_11_" gradientUnits="userSpaceOnUse" x1="18.15" y1="1887.3501" x2="70.05" y2="1887.3501" gradientTransform="matrix(1 0 0 1 0 -1824)">
			<stop  offset="0" style="stop-color:#005DFF"/>
			<stop  offset="0.19" style="stop-color:#0852F4"/>
			<stop  offset="0.53" style="stop-color:#1C33D8"/>
			<stop  offset="0.98" style="stop-color:#3C03AA"/>
			<stop  offset="1" style="stop-color:#3E00A7"/>
		</linearGradient>
		<path class="st13" d="M18.1,56.8v5.9c4.4,3.9,15.1,7.3,26.3,7.3c10.8,0,21.7-2.8,25.6-7v-5.9c-3.9,4.1-14.8,7-25.6,7
			C33.2,64.1,22.6,60.7,18.1,56.8z"/>
	</g>
</g>
</svg>
