<?xml version="1.0" encoding="UTF-8" standalone="no"?>
<!-- Generator: Adobe Illustrator 25.0.1, SVG Export Plug-In . SVG Version: 6.00 Build 0)  -->

<svg
   version="1.1"
   id="Layer_1"
   x="0px"
   y="0px"
   viewBox="0 0 454.6 162.1"
   style="enable-background:new 0 0 454.6 162.1;"
   xml:space="preserve"
   sodipodi:docname="texto.svg"
   inkscape:version="1.1 (c68e22c387, 2021-05-23)"
   xmlns:inkscape="http://www.inkscape.org/namespaces/inkscape"
   xmlns:sodipodi="http://sodipodi.sourceforge.net/DTD/sodipodi-0.dtd"
   xmlns="http://www.w3.org/2000/svg"
   xmlns:svg="http://www.w3.org/2000/svg"><defs
   id="defs542" /><sodipodi:namedview
   id="namedview540"
   pagecolor="#ffffff"
   bordercolor="#666666"
   borderopacity="1.0"
   inkscape:pageshadow="2"
   inkscape:pageopacity="0.0"
   inkscape:pagecheckerboard="0"
   showgrid="false"
   inkscape:zoom="0.8967159"
   inkscape:cx="426.5565"
   inkscape:cy="201.84765"
   inkscape:window-width="1366"
   inkscape:window-height="739"
   inkscape:window-x="0"
   inkscape:window-y="0"
   inkscape:window-maximized="1"
   inkscape:current-layer="Layer_1" />
<style
   type="text/css"
   id="style509">
	.st0{fill:#008176;}
	.st1{fill:#00B68C;}
	.st2{fill:#010101;}
</style>






<g
   id="g537"
   transform="matrix(0.97355314,0,0,1,-102.49905,-431.9)">
	<path
   class="st1"
   d="m 208,509.9 c 0,-2.5 0.5,-4.8 1.5,-7 1,-2.2 2.3,-4.1 4,-5.7 1.7,-1.6 3.6,-2.9 5.9,-3.9 2.3,-1 4.7,-1.4 7.2,-1.4 2.6,0 5,0.5 7.2,1.4 2.3,1 4.2,2.2 5.9,3.9 1.7,1.6 3,3.5 4,5.7 1,2.2 1.5,4.5 1.5,7 0,2.5 -0.5,4.8 -1.5,7 -1,2.2 -2.3,4.1 -4,5.7 -1.7,1.6 -3.7,2.9 -5.9,3.9 -2.3,1 -4.7,1.4 -7.2,1.4 -2.6,0 -5,-0.5 -7.2,-1.4 -2.3,-1 -4.2,-2.2 -5.9,-3.9 -1.7,-1.6 -3,-3.5 -4,-5.7 -1,-2.2 -1.5,-4.6 -1.5,-7 z m 9.7,0 c 0,1.2 0.2,2.3 0.7,3.4 0.5,1.1 1.1,2 1.9,2.9 0.8,0.8 1.7,1.5 2.8,2 1.1,0.5 2.2,0.7 3.4,0.7 1.2,0 2.4,-0.2 3.4,-0.7 1,-0.5 2,-1.2 2.9,-2 0.8,-0.8 1.5,-1.8 1.9,-2.9 0.4,-1.1 0.7,-2.2 0.7,-3.4 0,-1.2 -0.2,-2.3 -0.7,-3.4 -0.5,-1.1 -1.1,-2 -1.9,-2.9 -0.8,-0.8 -1.8,-1.5 -2.9,-2 -1.1,-0.5 -2.2,-0.7 -3.4,-0.7 -1.2,0 -2.4,0.2 -3.4,0.7 -1,0.5 -2,1.1 -2.8,2 -0.8,0.9 -1.4,1.8 -1.9,2.9 -0.4,1 -0.7,2.2 -0.7,3.4 z"
   id="path523" />
	<path
   class="st1"
   d="m 250.3,493.6 c 0,-0.3 0.1,-0.6 0.3,-0.8 0.2,-0.2 0.5,-0.3 0.8,-0.3 h 7.4 c 0.3,0 0.6,0.1 0.8,0.3 0.2,0.2 0.3,0.5 0.3,0.8 v 19.3 c 0,1.2 0.2,2.3 0.6,3.1 0.4,0.8 0.9,1.4 1.5,1.9 0.6,0.5 1.3,0.8 1.9,1 0.7,0.2 1.3,0.3 1.9,0.3 0.6,0 1.2,-0.1 1.9,-0.3 0.7,-0.2 1.3,-0.5 1.9,-1 0.6,-0.5 1.1,-1.1 1.5,-1.9 0.4,-0.8 0.6,-1.8 0.6,-3.1 v -17 c 0,-2.1 1.3,-3.3 3.9,-3.5 h 5.9 v 20.4 c 0,2.3 -0.4,4.3 -1.1,6.1 -0.7,1.8 -1.8,3.4 -3.2,4.7 -1.4,1.3 -3,2.3 -5,3 -1.9,0.7 -4.1,1.1 -6.4,1.1 -2.4,0 -4.5,-0.4 -6.4,-1.1 -1.9,-0.7 -3.6,-1.7 -5,-3 -1.4,-1.3 -2.4,-2.9 -3.2,-4.7 -0.8,-1.8 -1.1,-3.9 -1.1,-6.1 v -19.2 z"
   id="path525" />
	<path
   class="st1"
   d="m 307,524.1 -7.3,-8 c -0.2,-0.3 -0.4,-0.4 -0.6,-0.3 -0.2,0.1 -0.2,0.3 -0.2,0.6 v 10.5 c 0,0.4 -0.4,0.5 -1.2,0.4 h -7.4 c -0.4,0 -0.7,-0.1 -0.9,-0.3 -0.2,-0.2 -0.3,-0.5 -0.3,-0.8 v -32.6 c 0,-0.3 0.1,-0.6 0.3,-0.8 0.2,-0.2 0.5,-0.3 0.9,-0.3 h 7.4 c 0.3,0 0.6,0.1 0.8,0.3 0.2,0.2 0.3,0.5 0.3,0.8 v 11 c 0,0.3 0.1,0.5 0.2,0.6 0.1,0 0.3,-0.1 0.5,-0.3 l 8.9,-11.4 c 0.2,-0.3 0.5,-0.5 0.8,-0.6 0.4,-0.2 0.7,-0.3 1.1,-0.3 h 9.4 c 0.4,0 0.6,0.2 0.7,0.5 0.1,0.3 0,0.6 -0.1,0.8 l -12.9,15.7 c -0.2,0.3 -0.3,0.5 -0.3,0.9 0,0.3 0.1,0.6 0.4,0.8 1.1,1.2 2.7,3 4.7,5.3 2,2.4 5.2,5.5 9.4,9.5 1.2,1 1.1,1.5 -0.2,1.4 h -7.7 c -2.4,-0.1 -4.6,-1.1 -6.7,-3.4 z"
   id="path527" />
	<path
   class="st1"
   d="m 323.5,509.9 c 0,-2.5 0.5,-4.8 1.5,-7 1,-2.2 2.3,-4.1 4,-5.7 1.7,-1.6 3.6,-2.9 5.9,-3.9 2.3,-1 4.7,-1.4 7.2,-1.4 2.6,0 5,0.5 7.2,1.4 2.3,1 4.2,2.2 5.9,3.9 1.7,1.6 3,3.5 4,5.7 1,2.2 1.5,4.5 1.5,7 0,2.5 -0.5,4.8 -1.5,7 -1,2.2 -2.3,4.1 -4,5.7 -1.7,1.6 -3.7,2.9 -5.9,3.9 -2.3,1 -4.7,1.4 -7.2,1.4 -2.6,0 -5,-0.5 -7.2,-1.4 -2.3,-1 -4.2,-2.2 -5.9,-3.9 -1.7,-1.6 -3,-3.5 -4,-5.7 -1,-2.2 -1.5,-4.6 -1.5,-7 z m 9.8,0 c 0,1.2 0.2,2.3 0.7,3.4 0.5,1.1 1.1,2 1.9,2.9 0.8,0.8 1.7,1.5 2.8,2 1.1,0.5 2.2,0.7 3.4,0.7 1.2,0 2.4,-0.2 3.4,-0.7 1,-0.5 2,-1.2 2.9,-2 0.8,-0.8 1.5,-1.8 1.9,-2.9 0.4,-1.1 0.7,-2.2 0.7,-3.4 0,-1.2 -0.2,-2.3 -0.7,-3.4 -0.5,-1.1 -1.1,-2 -1.9,-2.9 -0.8,-0.8 -1.8,-1.5 -2.9,-2 -1.1,-0.5 -2.2,-0.7 -3.4,-0.7 -1.2,0 -2.4,0.2 -3.4,0.7 -1,0.5 -2,1.1 -2.8,2 -0.8,0.9 -1.4,1.8 -1.9,2.9 -0.5,1 -0.7,2.2 -0.7,3.4 z"
   id="path529" />
	<path
   class="st1"
   d="m 365.9,527.4 v -33.8 c 0,-0.3 0.1,-0.6 0.3,-0.8 0.2,-0.2 0.5,-0.3 0.8,-0.3 h 13.4 c 5.1,0 9.3,1.5 12.6,4.4 1.8,1.6 3.1,3.5 4,5.7 0.9,2.2 1.4,4.7 1.4,7.4 0,2.7 -0.5,5.2 -1.4,7.4 -0.9,2.2 -2.3,4.1 -4,5.7 -1.6,1.4 -3.5,2.5 -5.6,3.2 -2.1,0.7 -4.4,1.1 -7,1.1 z m 9.8,-8.9 h 4.9 c 0.9,0 1.9,-0.1 2.8,-0.3 1,-0.2 1.9,-0.6 2.7,-1.3 0.8,-0.6 1.4,-1.5 1.9,-2.6 0.5,-1.1 0.8,-2.6 0.8,-4.4 0,-1.8 -0.3,-3.3 -0.8,-4.4 -0.5,-1.1 -1.2,-2 -2,-2.6 -0.8,-0.6 -1.7,-1 -2.7,-1.3 -1,-0.2 -1.9,-0.3 -2.8,-0.3 h -3.7 c -0.3,0 -0.6,0.1 -0.8,0.3 -0.2,0.2 -0.3,0.5 -0.3,0.8 v 15 z"
   id="path531" />
	<path
   class="st1"
   d="m 414.1,502.3 v 2 c 0,0.3 0.1,0.6 0.3,0.8 0.2,0.2 0.5,0.3 0.8,0.3 H 427 c 1.2,0 1.9,0 2.2,0 0.3,0 0.4,0.2 0.4,0.7 -0.3,4.9 -2.2,7.6 -5.5,8.1 h -8.8 c -0.3,0 -0.6,0.1 -0.8,0.3 -0.2,0.2 -0.3,0.5 -0.3,0.8 v 1.8 c 0,0.3 0.1,0.6 0.3,0.8 0.2,0.2 0.5,0.3 0.8,0.3 h 15.3 c 0.3,0 0.6,0.1 0.8,0.3 0.2,0.2 0.3,0.5 0.3,0.8 v 6.6 c 0,0.3 -0.1,0.6 -0.3,0.8 -0.2,0.2 -0.5,0.3 -0.8,0.3 h -25 c -0.3,0 -0.6,-0.1 -0.8,-0.3 -0.2,-0.2 -0.3,-0.5 -0.3,-0.8 v -32.6 c 0,-0.3 0.1,-0.6 0.3,-0.8 0.2,-0.2 0.5,-0.3 0.8,-0.3 h 25 c 0.3,0 0.6,0.1 0.8,0.3 0.2,0.2 0.3,0.5 0.3,0.8 v 6.5 c 0,0.3 -0.1,0.6 -0.3,0.8 -0.2,0.2 -0.5,0.3 -0.8,0.3 h -15.3 c -0.3,0 -0.6,0.1 -0.8,0.3 -0.2,0.5 -0.4,0.8 -0.4,1.1 z"
   id="path533" />
	<path
   class="st1"
   d="m 446.6,527.3 h -7.3 c -0.3,0 -0.6,-0.1 -0.8,-0.3 -0.2,-0.2 -0.3,-0.5 -0.3,-0.8 v -32.6 c 0,-0.3 0.1,-0.6 0.3,-0.8 0.2,-0.2 0.5,-0.3 0.8,-0.3 h 15.3 c 1.9,0 3.7,0.3 5.3,0.9 1.6,0.6 3,1.5 4.1,2.6 1.1,1.1 2,2.4 2.7,4 0.6,1.5 0.9,3.2 0.9,5.1 0,1 -0.1,2 -0.4,3 -0.2,1 -0.6,2 -1.1,2.8 -0.5,0.9 -1,1.7 -1.6,2.4 -0.6,0.7 -1.3,1.3 -2.1,1.8 -0.3,0.2 -0.4,0.4 -0.5,0.7 -0.1,0.3 0,0.5 0.2,0.8 1.2,0.8 2.2,2.3 3.3,4.6 1.1,2.3 2,3.8 3,4.7 1,0.9 1.3,1.4 0.8,1.6 h -8.1 c -1.5,0.2 -2.8,-0.7 -3.8,-2.7 -1,-2 -2.1,-3.6 -3.4,-4.8 -1.3,-1.2 -2.5,-2 -3.9,-2.5 h -1.1 c -0.3,0 -0.6,0.1 -0.8,0.3 -0.2,0.2 -0.3,0.5 -0.3,0.8 v 8.9 c -0.5,-0.2 -0.9,-0.2 -1.2,-0.2 z m 2.3,-18.8 h 5.2 c 0.4,0 0.8,-0.1 1.2,-0.2 0.4,-0.1 0.8,-0.4 1.2,-0.7 0.4,-0.3 0.7,-0.7 0.9,-1.1 0.2,-0.4 0.3,-1 0.3,-1.6 0,-0.3 -0.1,-0.7 -0.2,-1.1 -0.1,-0.4 -0.3,-0.8 -0.6,-1.2 -0.3,-0.4 -0.7,-0.7 -1.1,-1 -0.5,-0.3 -1.1,-0.4 -1.8,-0.4 h -6.4 v 6.2 c 0,0.3 0.1,0.6 0.3,0.8 0.4,0.2 0.7,0.3 1,0.3 z"
   id="path535" />
</g>
</svg>
